<svg xmlns="http://www.w3.org/2000/svg" xmlns:xlink="http://www.w3.org/1999/xlink" width="44" height="50" viewBox="0 0 44 50">
    <defs>
        <rect id="a" width="623" height="308" rx="30"/>
        <linearGradient id="b" x1="84.787%" x2="42.592%" y1="42.256%" y2="48.54%">
            <stop offset="0%" stop-color="#FFE0A7"/>
            <stop offset="100%" stop-color="#FFFDF8"/>
        </linearGradient>
        <linearGradient id="d" x1="81.458%" x2="54.013%" y1="45.495%" y2="50.258%">
            <stop offset="0%" stop-color="#FFF6DC"/>
            <stop offset="100%" stop-color="#FFEFD3"/>
        </linearGradient>
    </defs>
    <g fill="none" fill-rule="evenodd">
        <g transform="translate(-33 -54)">
            <mask id="c" fill="#fff">
                <use xlink:href="#a"/>
            </mask>
            <use fill="#FFF" xlink:href="#a"/>
            <path fill="url(#b)" d="M747 349.594c-81.505-139.16-222.469-186.308-422.89-141.444C123.687 253.015-48.35 180.298-192-10l7.467 346.672L226.434 572l143.066-8.479 266.268-183.875L747 349.594z" mask="url(#c)" opacity=".298"/>
            <path fill="url(#d)" d="M522 341.817C389.558 236.752 264.412 191.022 146.56 204.626 28.71 218.23-85.06 183.021-194.75 99L-327 300.625 29.804 510l122.879-9.027L348.38 356.175 522 341.817z" mask="url(#c)" opacity=".604"/>
        </g>
        <path stroke="#158704" stroke-linecap="round" stroke-width="2" d="M22 48.694S1 39 1 8.823C14.063 5.955 17.902 1 22 1c4.098 0 7.937 4.955 21 7.823C43 38 22 48.694 22 48.694z"/>
        <path stroke="#158704" stroke-linecap="round" stroke-width="2" d="M22 13c-5.523 0-10 4.477-10 10s4.477 10 10 10 10-4.477 10-10-4.477-10-10-10z"/>
        <path fill="#158704" d="M28.834 30.286c-1.547-1.375-4.252-1.482-4.779-2.899-.061-.672-.037-1.14-.037-1.754.304-.16.849-1.177.941-2.037.239-.02.616-.253.727-1.174.059-.495-.177-.773-.321-.861.389-1.17 1.198-4.791-1.495-5.166-.277-.487-.987-.733-1.909-.733-3.689.068-4.134 2.786-3.326 5.898-.144.088-.38.366-.321.861.111.921.487 1.155.727 1.174.092.859.658 1.877.963 2.037 0 .614.023 1.082-.038 1.754-.525 1.413-3.224 1.523-4.78 2.885 0 0 3.525 2.463 6.854 2.463s6.794-2.448 6.794-2.448"/>
    </g>
</svg>
