<svg xmlns="http://www.w3.org/2000/svg" width="46" height="46" viewBox="0 0 46 46">
    <g fill="none" fill-rule="evenodd">
        <path stroke="#158704" stroke-width="2" d="M27 45H1V9h16l10 10v26zm16.5-34.5h-8v-8l8 8z"/>
        <path stroke="#158704" stroke-width="2" d="M27 19H17V9"/>
        <path fill="#158704" d="M30 30h10v-2H30v2zm0-6h6v-2h-6v2zm-1.758-8l2 2H40v-2H28.242zM6 32h12v-2H6v2zm0 6h16v-2H6v2zm0-12h16v-2H6v2z"/>
        <path fill="#158704" d="M18 0v5.758l.828.828L20 7.758V2h14.586L44 11.414V36H30v2h16V10.586L35.414 0z"/>
    </g>
</svg>
