<svg xmlns="http://www.w3.org/2000/svg" xmlns:xlink="http://www.w3.org/1999/xlink" width="59" height="62" viewBox="0 0 59 62">
    <defs>
        <path id="a" d="M0 0h58.49v61.83H0z"/>
    </defs>
    <g fill="none" fill-rule="evenodd">
        <mask id="b" fill="#fff">
            <use xlink:href="#a"/>
        </mask>
        <path fill="#568C4B" d="M27.068 34.822h6.8v-7.815h-6.8v7.815zm-1.594 3.266h9.987c.903 0 1.594-.696 1.594-1.606V25.401c0-.91-.69-1.606-1.594-1.606h-9.987c-.904 0-1.594.696-1.594 1.606v11.027c0 .91.743 1.66 1.594 1.66zm-13.388-3.266h6.8v-7.815h-6.8v7.815zm-1.594 3.266h9.988c.903 0 1.594-.696 1.594-1.606V25.401c0-.91-.69-1.606-1.594-1.606h-9.988c-.903 0-1.593.696-1.593 1.606v11.027c0 .91.69 1.66 1.593 1.66z" mask="url(#b)"/>
        <path fill="#568C4B" d="M5.472 9.903h16.415c.904 0 1.594-.695 1.594-1.606 0-2.783 2.284-5.085 5.047-5.085s5.047 2.302 5.047 5.085c0 .91.69 1.606 1.594 1.606h13.228v5.086H5.472V9.903zm39.153 48.715h-4.09V42.504c0-.91-.691-1.606-1.594-1.606H13.919c-.904 0-1.594.697-1.594 1.606v16.114H7.968V18.2h36.657v40.417zm-16.628 0h9.35V44.11h-9.35v14.508zm-3.187 0h-9.297V44.11h9.35v14.508h-.053zM13.919 61.83h40.482c.902 0 1.593-.696 1.593-1.606V18.2h.903c.904 0 1.594-.696 1.594-1.606V8.297c0-.91-.69-1.606-1.594-1.606H36.604C35.859 2.891 32.512 0 28.528 0c-3.984 0-7.33 2.89-8.075 6.691H3.878c-.903 0-1.594.697-1.594 1.606v8.298c0 .91.691 1.606 1.594 1.606h.904v40.417H1.594C.69 58.618 0 59.314 0 60.224c0 .91.69 1.606 1.594 1.606h12.325z" mask="url(#b)"/>
    </g>
</svg>
