<?xml version="1.0" encoding="utf-8"?>
<!-- Generator: Adobe Illustrator 20.1.0, SVG Export Plug-In . SVG Version: 6.00 Build 0)  -->
<svg version="1.1" xmlns="http://www.w3.org/2000/svg" xmlns:xlink="http://www.w3.org/1999/xlink" x="0px" y="0px"
	 viewBox="0 0 73.5 68.7" style="enable-background:new 0 0 73.5 68.7;" xml:space="preserve">
<style type="text/css">
	.st0{fill:none;stroke:#158704;stroke-width:2;stroke-linecap:round;stroke-linejoin:round;stroke-miterlimit:10;}
	.st1{fill:#158704;}
	.st2{fill:none;stroke:#158704;stroke-width:2;stroke-miterlimit:10;}
	.st3{fill:none;stroke:#158704;stroke-width:2;stroke-linecap:round;stroke-miterlimit:10;}
</style>
<g id="Слой_1">
</g>
<g id="Слой_2">
	<polyline class="st0" points="64.9,16.9 64.9,61.3 8.8,61.3 8.8,16.9 	"/>
	<polygon class="st0" points="60.1,15.4 49.1,15.4 49.1,23.3 60.1,23.7 	"/>
	<circle class="st1" cx="54.6" cy="10.9" r="1.4"/>
	<path class="st2" d="M64.9,11.9l-3.7-4.1l-6.5-2.6l-6.4,2.7l-4.1,4v11.4h2.6c5.7,0,11.4,0.4,17.1,1.1l1.1,0.1V11.9z"/>
	<path class="st2" d="M64.6,24.5c-24.5-2.7-37.8-1.3-55.4,7.4"/>
	<path class="st0" d="M43.9,18.6C31.6,17,21.1,18.4,8.8,22.3"/>
	<line class="st0" x1="17.7" y1="15.7" x2="17.7" y2="27.5"/>
	<line class="st0" x1="25.4" y1="15.4" x2="25.4" y2="25"/>
	<line class="st0" x1="33" y1="15.6" x2="33" y2="23.7"/>
	<line class="st0" x1="39.3" y1="15.5" x2="39.3" y2="22.8"/>
	<path class="st3" d="M42.7,23.3c-12.1,4.9-23.8,14-33.5,26.5"/>
	<path class="st3" d="M52.1,23.8c-11,6.9-26.2,22.6-31.4,36.7"/>
	<path class="st3" d="M59,24.5c-9.4,9-18.3,23.9-22.1,35.9"/>
	<path class="st3" d="M64.6,25.9c-6.2,10.7-11,24.4-12.4,35.3"/>
</g>
</svg>
