<svg xmlns="http://www.w3.org/2000/svg" width="41" height="32" viewBox="0 0 41 32">
    <path fill="#158704" fill-rule="evenodd" stroke="#158704" stroke-width="2" d="M39.853 16.658c-.085.223-.21.431-.39.611L25.977 30.5a1.748 1.748 0 0 1-2.45 0 1.673 1.673 0 0 1 0-2.403l10.658-10.46H2.66A1.65 1.65 0 0 1 1 15.994c0-.904.743-1.64 1.66-1.64h31.516L23.526 3.904a1.675 1.675 0 0 1 0-2.405 1.756 1.756 0 0 1 2.451 0L39.463 14.73c.177.175.303.379.388.598.093.203.149.428.149.666 0 .238-.056.46-.147.664z"/>
</svg>
