<svg xmlns="http://www.w3.org/2000/svg" width="39" height="39" viewBox="0 0 39 39">
    <g fill="none" fill-rule="evenodd">
        <circle cx="19.5" cy="19.5" r="19.5" fill="#158704"/>
        <path fill="#FFF" stroke="#FFF" stroke-width="2" d="M26.947 19.741a.63.63 0 0 1-.14.224l-4.84 4.851a.623.623 0 0 1-.88-.88l3.825-3.836H13.596a.599.599 0 0 1-.596-.602c0-.332.267-.601.596-.601h11.313l-3.822-3.833a.623.623 0 0 1 .88-.881l4.84 4.851a.62.62 0 0 1 .14.22.597.597 0 0 1 0 .487z"/>
    </g>
</svg>
