<svg xmlns="http://www.w3.org/2000/svg" width="43" height="32" viewBox="0 0 43 32">
    <path fill="#158704" fill-rule="evenodd" stroke="#158704" stroke-width="2" d="M2.147 16.658c.085.223.21.431.39.611L16.023 30.5a1.748 1.748 0 0 0 2.45 0 1.673 1.673 0 0 0 0-2.403L7.815 17.636H39.34A1.65 1.65 0 0 0 41 15.994a1.65 1.65 0 0 0-1.66-1.64H7.824l10.65-10.451a1.675 1.675 0 0 0 0-2.405 1.756 1.756 0 0 0-2.451 0L2.537 14.73c-.177.175-.303.379-.387.598-.094.203-.15.428-.15.666 0 .238.056.46.147.664z"/>
</svg>
