<?xml version="1.0" encoding="utf-8"?>
<!-- Generator: Adobe Illustrator 20.1.0, SVG Export Plug-In . SVG Version: 6.00 Build 0)  -->
<svg version="1.1" id="Слой_1" xmlns="http://www.w3.org/2000/svg" xmlns:xlink="http://www.w3.org/1999/xlink" x="0px" y="0px"
	 viewBox="0 0 492 222" style="enable-background:new 0 0 492 222;" xml:space="preserve">
<style type="text/css">
	.st0{fill:#FBFAF3;}
	.st1{fill:none;}
	.st2{fill:url(#SVGID_1_);}
	.st3{fill:url(#SVGID_2_);}
</style>
<path class="st0" d="M394.6,0H97.4C43.9,0,0,43.9,0,97.4v0c0,53.3,43.4,97,96.6,97.4c6.2,7.4,9.4,15.6,11.1,24.4l0.7-1.2
	c4.3-7.2,7.3-15,9.1-23.2h277c53.6,0,97.4-43.9,97.4-97.4v0C492,43.9,448.1,0,394.6,0z"/>
<g>
	<path class="st1" d="M394.6,1.3H201.9c0.5,1,1,2,1.5,3c29.9,60.3,71.2,109.8,114,131.6c54.5,27.7,67.7,34.5,129.3,45.1
		c27.2-17.3,45.3-47.8,45.3-82.2v0C492,45.2,448.1,1.3,394.6,1.3z"/>
	<linearGradient id="SVGID_1_" gradientUnits="userSpaceOnUse" x1="-29.8486" y1="109.5512" x2="476.0286" y2="109.5512">
		<stop  offset="0" style="stop-color:#FCF7E9"/>
		<stop  offset="0.9113" style="stop-color:#FDF8EB"/>
	</linearGradient>
	<path class="st2" d="M203,3.5c-0.5-1-1-2-1.5-3H97.3C43.8,0.5,0,44.4,0,98v0c0,53.3,43.3,97,96.4,97.4c6.2,7.4,10.4,13.8,12,22.7
		l-0.2,0.5c4.2-7.2,7.3-15,9.1-23.2h276.5c19.1,0,37-5.6,52-15.2c-61.5-10.7-74.7-17.4-129.1-45.1C274.1,113.3,232.9,63.8,203,3.5z"
		/>
</g>
<linearGradient id="SVGID_2_" gradientUnits="userSpaceOnUse" x1="111.7647" y1="42.6114" x2="111.7647" y2="219.8267">
	<stop  offset="0" style="stop-color:#FDF6E2"/>
	<stop  offset="0.9113" style="stop-color:#FDF0DB"/>
</linearGradient>
<path class="st3" d="M164.6,125c-23.2-53.4-38-76.9-80-81.8C52.5,39.4,19.6,53.5,1.5,81.8c-1,5.4-1.5,11-1.5,16.7v0
	c0,53.1,43.4,96.5,96.6,97c6.2,7.4,9.4,15.5,11.1,24.3l0.7-1.2c4.3-7.2,7.3-15,9.1-23.1l105.9-0.1
	C211.3,187.6,189.8,183.1,164.6,125z"/>
</svg>
