<?xml version="1.0" encoding="utf-8"?>
<!-- Generator: Adobe Illustrator 20.1.0, SVG Export Plug-In . SVG Version: 6.00 Build 0)  -->
<svg version="1.1" id="Слой_1" xmlns="http://www.w3.org/2000/svg" xmlns:xlink="http://www.w3.org/1999/xlink" x="0px" y="0px"
	 viewBox="0 0 467.3 213.3" style="enable-background:new 0 0 467.3 213.3;" xml:space="preserve">
<style type="text/css">
	.st0{fill:#FBFAF3;}
	.st1{fill:none;}
	.st2{fill:url(#SVGID_1_);}
	.st3{fill:url(#SVGID_2_);}
</style>
<title>Монтажная область 2</title>
<path class="st0" d="M0.1,94.5L0.1,94.5c0,51.9,41.6,94.5,92.5,94.5h263.1c1.7,7.9,4.6,15.5,8.6,22.5l0.7,1.2
	c1.6-8.5,4.6-16.5,10.5-23.7c50.5-0.4,91.8-42.8,91.8-94.5l0,0c0-51.9-41.7-94.5-92.5-94.5H92.5C41.7,0,0,42.6,0.1,94.5z"/>
<g>
	<path class="st1" d="M0,95.9L0,95.9C-0.1,128,16.1,158,43,175.6c58.5-10.3,71-16.9,122.8-43.8c40.7-21.2,79.9-69.2,108.3-127.7
		l1.4-2.9h-183C41.7,1.3,0,43.9,0,95.9z"/>
	
		<linearGradient id="SVGID_1_" gradientUnits="userSpaceOnUse" x1="-1615.1" y1="726.015" x2="-1134.62" y2="726.015" gradientTransform="matrix(-1 0 0 1 -1119.4 -620)">
		<stop  offset="0" style="stop-color:#FCF7E9"/>
		<stop  offset="0.91" style="stop-color:#FDF8EB"/>
	</linearGradient>
	<path class="st2" d="M166.6,130.9c-51.7,26.9-64.2,33.4-122.6,43.8c14.7,9.6,31.8,14.8,49.4,14.8h262.6c1.7,7.9,4.6,15.5,8.6,22.6
		l-0.2-0.5c1.5-8.6,5.5-14.9,11.4-22.1c50.4-0.4,91.6-42.9,91.6-94.7l0,0c0-52.1-41.6-94.8-92.4-94.8h-99l-1.4,2.9
		C246.1,61.5,207,109.7,166.6,130.9z"/>
</g>
<linearGradient id="SVGID_2_" gradientUnits="userSpaceOnUse" x1="-1480.5857" y1="661.3074" x2="-1480.5857" y2="833.27" gradientTransform="matrix(-1 0 0 1 -1119.4 -620)">
	<stop  offset="0" style="stop-color:#FDF6E2"/>
	<stop  offset="0.91" style="stop-color:#FDF0DB"/>
</linearGradient>
<path class="st3" d="M255.1,189.6l100.6,0.1c1.7,7.9,4.6,15.4,8.6,22.4l0.7,1.2c1.6-8.5,4.6-16.4,10.5-23.6
	c50.5-0.5,91.8-42.6,91.8-94.1l0,0c0-5.4-0.4-10.9-1.4-16.2c-16.8-26.7-47.6-41.3-78.9-37.5c-39.9,4.8-54,27.5-76,79.4
	C287,177.7,266.6,182,255.1,189.6z"/>
</svg>
