<svg id="Слой_1" data-name="Слой 1" xmlns="http://www.w3.org/2000/svg" xmlns:xlink="http://www.w3.org/1999/xlink" viewBox="0 0 469.64 222">
  <defs>
    <style>
      .cls-1 {
        fill: #fbfaf3;
      }

      .cls-2 {
        fill: none;
      }

      .cls-3 {
        fill: url(#Безымянный_градиент);
      }

      .cls-4 {
        fill: url(#Безымянный_градиент_2);
      }
    </style>
    <linearGradient id="Безымянный_градиент" data-name="Безымянный градиент" x1="-27.07" y1="110.35" x2="455.61" y2="110.35" gradientTransform="matrix(1, 0, 0, -1, 0, 221.89)" gradientUnits="userSpaceOnUse">
      <stop offset="0" stop-color="#fcf7e9"/>
      <stop offset="0.91" stop-color="#fdf8eb"/>
    </linearGradient>
    <linearGradient id="Безымянный_градиент_2" data-name="Безымянный градиент 2" x1="106.21" y1="177.73" x2="106.21" y2="0.52" gradientTransform="matrix(1, 0, 0, -1, 0, 221.89)" gradientUnits="userSpaceOnUse">
      <stop offset="0" stop-color="#fdf6e2"/>
      <stop offset="0.91" stop-color="#fdf0db"/>
    </linearGradient>
  </defs>
  <title>Монтажная область 3</title>
  <path class="cls-1" d="M376.7,6.8H93.13C42.09,6.8.2,49.56.2,101.67h0c0,51.91,41.41,94.48,92.17,94.87,5.92,7.21,9,15.19,10.59,23.77l.67-1.17a76.31,76.31,0,0,0,8.68-22.6h264.3c51.14,0,92.93-42.76,92.93-94.87h0C469.64,49.56,427.75,6.8,376.7,6.8Z"/>
  <g>
    <path class="cls-2" d="M376.7,2.4H192.84l1.43,3C222.8,65.7,262.21,115.2,303,137c52,27.7,64.6,34.5,123.37,45.1,26-17.3,43.22-47.8,43.22-82.2h0C469.64,46.3,427.75,2.4,376.7,2.4Z"/>
    <path class="cls-3" d="M195.1,9.72,193.67,6.8H94.25C43.2,6.8,1.41,49.65,1.41,102h0c0,52,41.31,94.69,92,95.08,5.92,7.22,8,10.54,9.49,19.23l1.41-11.5c4-7,1.82-.13,3.54-8.14l269.31.4a90.39,90.39,0,0,0,49.62-14.84c-58.68-10.44-71.27-17-123.18-44C262.94,116.9,223.63,68.59,195.1,9.72Z"/>
  </g>
  <path class="cls-4" d="M156.35,126.57c-22-53.4-36-76.9-75.83-81.8A80.46,80.46,0,0,0,1.76,83.37a96.72,96.72,0,0,0-1.42,16.7h0c0,53.1,41.14,96.5,91.56,97,5.88,7.4,8.91,15.5,10.52,24.3l.66-1.2a80.43,80.43,0,0,0,8.63-23.1l100.37-.1C200.61,189.17,180.23,184.67,156.35,126.57Z"/>
</svg>
