<?xml version="1.0" encoding="utf-8"?>
<!-- Generator: Adobe Illustrator 20.1.0, SVG Export Plug-In . SVG Version: 6.00 Build 0)  -->
<svg version="1.1" id="Слой_1" xmlns="http://www.w3.org/2000/svg" xmlns:xlink="http://www.w3.org/1999/xlink" x="0px" y="0px"
	 viewBox="0 0 1920 1080" style="enable-background:new 0 0 1920 1080;" xml:space="preserve">
<style type="text/css">
	.st0{fill:none;}
	.st1{fill:url(#SVGID_1_);}
	.st2{fill:#686B43;}
	.st3{fill:url(#SVGID_2_);}
	.st4{fill:url(#SVGID_3_);}
	.st5{fill:url(#SVGID_4_);}
	.st6{fill:url(#SVGID_5_);}
	.st7{fill:url(#SVGID_6_);}
	.st8{fill:url(#SVGID_7_);}
	.st9{fill:url(#SVGID_8_);}
	.st10{fill:url(#SVGID_9_);}
	.st11{fill:url(#SVGID_10_);}
	.st12{fill:url(#SVGID_11_);}
	.st13{fill:url(#SVGID_12_);}
	.st14{fill:url(#SVGID_13_);}
	.st15{fill:url(#SVGID_14_);}
	.st16{fill:url(#SVGID_15_);}
	.st17{fill:url(#SVGID_16_);}
	.st18{fill:url(#SVGID_17_);}
	.st19{fill:url(#SVGID_18_);}
	.st20{fill:url(#SVGID_19_);}
	.st21{fill:url(#SVGID_20_);}
	.st22{fill:url(#SVGID_21_);}
	.st23{fill:url(#SVGID_22_);}
	.st24{fill:url(#SVGID_23_);}
	.st25{fill:url(#SVGID_24_);}
	.st26{fill:url(#SVGID_25_);}
	.st27{fill:#EAEAAC;}
	.st28{fill:#E8D995;}
	.st29{fill:#A0DD94;}
	.st30{opacity:0.3;fill:url(#SVGID_26_);}
	.st31{opacity:0.3;fill:url(#SVGID_27_);}
	.st32{opacity:0.3;fill:url(#SVGID_28_);}
	.st33{fill:#B6E598;}
	.st34{opacity:0.3;fill:url(#SVGID_29_);}
	.st35{fill:#A5DB89;}
	.st36{fill:#BAEFA0;}
	.st37{fill:#7EB274;}
	.st38{fill:#46C3C6;}
	.st39{fill:#4BB4B7;}
	.st40{fill:#FCFAAE;}
	.st41{fill:url(#SVGID_30_);}
	.st42{fill:#158704;stroke:#DEFFDC;stroke-width:4;stroke-miterlimit:10;}
	.st43{fill:#93D36A;}
	.st44{fill:#FFF0B3;}
	.st45{fill:#F2B630;}
	.st46{fill:#568C4B;}
	.st47{opacity:0.5;fill:url(#SVGID_31_);}
</style>
<pattern  width="185.5" height="155.6" patternUnits="userSpaceOnUse" id="Деревья" viewBox="10 -181.6 185.5 155.6" style="overflow:visible;">
	<g>
		<rect x="10" y="-181.6" class="st0" width="185.5" height="155.6"/>
		<g>
			<g>
				
					<linearGradient id="SVGID_1_" gradientUnits="userSpaceOnUse" x1="15060.4863" y1="-17087.5078" x2="15060.4863" y2="-17062.1465" gradientTransform="matrix(-1 0 0 -1 15258.8877 -17249.2344)">
					<stop  offset="0" style="stop-color:#83AE78"/>
					<stop  offset="1" style="stop-color:#5B9F37"/>
				</linearGradient>
				<path class="st1" d="M185.5-173.7c0-7.4,5.4-13.3,12.2-13.3c6.8,0,12.1,3.8,13.5,11.1c1.4,7.1-5.5,13.5-11.9,14.2v-6.2l0,0
					l4.4-4.4l-0.6-0.6l-3.9,3.9v-8.1c0-0.4-0.4-0.8-0.8-0.8c-0.4,0-0.8,0.4-0.8,0.8v2.8l-1.9-3.6l-0.7,0.4l2.6,5v8.6l-3.3-6.2
					l-0.7,0.4l4,7.6v0.6C191-161.9,185.5-166.5,185.5-173.7z"/>
				<path class="st2" d="M193.6-169.9l0.7-0.4l3.3,6.2v-8.6l-2.6-5l0.7-0.4l1.9,3.6v-2.8c0-0.4,0.4-0.8,0.8-0.8
					c0.4,0,0.8,0.4,0.8,0.8v8.1l3.9-3.9l0.6,0.6l-4.4,4.4l0,0v6.2v5.4c0,0.4-0.4,0.8-0.8,0.8c-0.4,0-0.8-0.4-0.8-0.8v-5.3v-0.6
					L193.6-169.9z"/>
			</g>
			<g>
				
					<linearGradient id="SVGID_2_" gradientUnits="userSpaceOnUse" x1="1410.6442" y1="-17085.0137" x2="1410.6442" y2="-17049.2754" gradientTransform="matrix(1 0 0 -1 -1243.3699 -17249.2344)">
					<stop  offset="0" style="stop-color:#83AE78"/>
					<stop  offset="1" style="stop-color:#5B9F37"/>
				</linearGradient>
				<path class="st3" d="M185.5-181.1c0-10.4-7.6-18.8-17.1-18.8s-17,5.4-19,15.6c-1.9,9.9,7.7,19,16.8,20v-8.7l0,0l-6.2-6.2
					l0.8-0.8l5.4,5.4V-186c0-0.6,0.5-1.1,1.1-1.1c0.6,0,1.1,0.5,1.1,1.1v3.9l2.7-5l1,0.5l-3.7,7v12l4.6-8.7l1,0.5l-5.6,10.7v0.8
					C177.7-164.5,185.5-170.9,185.5-181.1z"/>
				<path class="st2" d="M174-175.7l-1-0.5l-4.6,8.7v-12l3.7-7l-1-0.5l-2.7,5v-3.9c0-0.6-0.5-1.1-1.1-1.1c-0.6,0-1.1,0.5-1.1,1.1
					v11.5l-5.4-5.4l-0.8,0.8l6.2,6.2l0,0v8.7v7.6c0,0.6,0.5,1.1,1.1,1.1c0.6,0,1.1-0.5,1.1-1.1v-7.5v-0.8L174-175.7z"/>
			</g>
		</g>
		<g>
			<g>
				
					<linearGradient id="SVGID_3_" gradientUnits="userSpaceOnUse" x1="15130.293" y1="-17107.8496" x2="15130.293" y2="-17067.6641" gradientTransform="matrix(-1 0 0 -1 15258.8877 -17249.2344)">
					<stop  offset="0" style="stop-color:#83AE78"/>
					<stop  offset="1" style="stop-color:#5B9F37"/>
				</linearGradient>
				<path class="st4" d="M108.1-160.4c0-11.7,8.5-21.2,19.3-21.2s19.2,6.1,21.4,17.6c2.2,11.2-8.7,21.4-18.9,22.5v-9.8l0,0l7-7
					l-0.9-0.9l-6.1,6.1v-12.9c0-0.7-0.6-1.2-1.2-1.2c-0.7,0-1.2,0.6-1.2,1.2v4.4l-3-5.7l-1.2,0.6l4.2,7.9v13.6l-5.2-9.8l-1.2,0.6
					l6.3,12v0.9C116.9-141.6,108.1-148.9,108.1-160.4z"/>
				<path class="st2" d="M121-154.3l1.2-0.6l5.2,9.8v-13.6l-4.2-7.9l1.2-0.6l3,5.7v-4.4c0-0.7,0.6-1.2,1.2-1.2
					c0.7,0,1.2,0.6,1.2,1.2v12.9l6.1-6.1l0.9,0.9l-7,7l0,0v9.8v8.5c0,0.7-0.6,1.2-1.2,1.2c-0.7,0-1.2-0.6-1.2-1.2v-8.4v-0.9
					L121-154.3z"/>
			</g>
			<g>
				
					<linearGradient id="SVGID_4_" gradientUnits="userSpaceOnUse" x1="15153.2266" y1="-17113.4453" x2="15153.2266" y2="-17088.084" gradientTransform="matrix(-1 0 0 -1 15258.8877 -17249.2344)">
					<stop  offset="0" style="stop-color:#83AE78"/>
					<stop  offset="1" style="stop-color:#5B9F37"/>
				</linearGradient>
				<path class="st5" d="M92.7-147.8c0-7.4,5.4-13.3,12.2-13.3c6.8,0,12.1,3.8,13.5,11.1c1.4,7.1-5.5,13.5-11.9,14.2v-6.2l0,0
					l4.4-4.4l-0.6-0.6l-3.9,3.9v-8.1c0-0.4-0.4-0.8-0.8-0.8c-0.4,0-0.8,0.4-0.8,0.8v2.8l-1.9-3.6l-0.7,0.4l2.6,5v8.6l-3.3-6.2
					l-0.7,0.4l4,7.6v0.6C98.3-136,92.7-140.5,92.7-147.8z"/>
				<path class="st2" d="M100.9-144l0.7-0.4l3.3,6.2v-8.6l-2.6-5l0.7-0.4l1.9,3.6v-2.8c0-0.4,0.4-0.8,0.8-0.8c0.4,0,0.8,0.4,0.8,0.8
					v8.1l3.9-3.9l0.6,0.6l-4.4,4.4l0,0v6.2v5.4c0,0.4-0.4,0.8-0.8,0.8c-0.4,0-0.8-0.4-0.8-0.8v-5.3v-0.6L100.9-144z"/>
			</g>
			<g>
				
					<linearGradient id="SVGID_5_" gradientUnits="userSpaceOnUse" x1="1317.9037" y1="-17110.9512" x2="1317.9037" y2="-17075.2148" gradientTransform="matrix(1 0 0 -1 -1243.3699 -17249.2344)">
					<stop  offset="0" style="stop-color:#83AE78"/>
					<stop  offset="1" style="stop-color:#5B9F37"/>
				</linearGradient>
				<path class="st6" d="M92.7-155.2c0-10.4-7.6-18.8-17.1-18.8s-17,5.4-19,15.6c-1.9,9.9,7.7,19,16.8,20v-8.7l0,0l-6.2-6.2l0.8-0.8
					l5.4,5.4v-11.5c0-0.6,0.5-1.1,1.1-1.1c0.6,0,1.1,0.5,1.1,1.1v3.9l2.7-5l1,0.5l-3.7,7v12l4.6-8.7l1,0.5l-5.6,10.7v0.8
					C84.9-138.5,92.7-145,92.7-155.2z"/>
				<path class="st2" d="M81.2-149.8l-1-0.5l-4.6,8.7v-12l3.7-7l-1-0.5l-2.7,5v-3.9c0-0.6-0.5-1.1-1.1-1.1c-0.6,0-1.1,0.5-1.1,1.1
					v11.5l-5.4-5.4l-0.8,0.8l6.2,6.2l0,0v8.7v7.6c0,0.6,0.5,1.1,1.1,1.1c0.6,0,1.1-0.5,1.1-1.1v-7.5v-0.8L81.2-149.8z"/>
			</g>
		</g>
		<g>
			<g>
				
					<linearGradient id="SVGID_6_" gradientUnits="userSpaceOnUse" x1="15223.0342" y1="-17081.9121" x2="15223.0342" y2="-17041.7266" gradientTransform="matrix(-1 0 0 -1 15258.8877 -17249.2344)">
					<stop  offset="0" style="stop-color:#83AE78"/>
					<stop  offset="1" style="stop-color:#5B9F37"/>
				</linearGradient>
				<path class="st7" d="M15.4-186.4c0-11.7,8.5-21.2,19.3-21.2s19.2,6.1,21.4,17.6c2.2,11.2-8.7,21.4-18.9,22.5v-9.8l0,0l7-7
					l-0.9-0.9l-6.1,6.1v-12.9c0-0.7-0.6-1.2-1.2-1.2c-0.7,0-1.2,0.6-1.2,1.2v4.4l-3-5.7l-1.2,0.6l4.2,7.9v13.6l-5.2-9.8l-1.2,0.6
					l6.3,12v0.9C24.1-167.6,15.4-174.8,15.4-186.4z"/>
				<path class="st2" d="M28.3-180.3l1.2-0.6l5.2,9.8v-13.6l-4.2-7.9l1.2-0.6l3,5.7v-4.4c0-0.7,0.6-1.2,1.2-1.2
					c0.7,0,1.2,0.6,1.2,1.2v12.9l6.1-6.1l0.9,0.9l-7,7l0,0v9.8v8.5c0,0.7-0.6,1.2-1.2,1.2c-0.7,0-1.2-0.6-1.2-1.2v-8.4v-0.9
					L28.3-180.3z"/>
			</g>
			<g>
				
					<linearGradient id="SVGID_7_" gradientUnits="userSpaceOnUse" x1="15245.9678" y1="-17087.5078" x2="15245.9678" y2="-17062.1465" gradientTransform="matrix(-1 0 0 -1 15258.8877 -17249.2344)">
					<stop  offset="0" style="stop-color:#83AE78"/>
					<stop  offset="1" style="stop-color:#5B9F37"/>
				</linearGradient>
				<path class="st8" d="M0-173.7c0-7.4,5.4-13.3,12.2-13.3s12.1,3.8,13.5,11.1c1.4,7.1-5.5,13.5-11.9,14.2v-6.2l0,0l4.4-4.4
					l-0.6-0.6l-3.9,3.9v-8.1c0-0.4-0.4-0.8-0.8-0.8c-0.4,0-0.8,0.4-0.8,0.8v2.8l-1.9-3.6l-0.7,0.4l2.6,5v8.6l-3.3-6.2l-0.7,0.4
					l4,7.6v0.6C5.5-161.9,0-166.5,0-173.7z"/>
				<path class="st2" d="M8.2-169.9l0.7-0.4l3.3,6.2v-8.6l-2.6-5l0.7-0.4l1.9,3.6v-2.8c0-0.4,0.4-0.8,0.8-0.8c0.4,0,0.8,0.4,0.8,0.8
					v8.1l3.9-3.9l0.6,0.6l-4.4,4.4l0,0v6.2v5.4c0,0.4-0.4,0.8-0.8,0.8c-0.4,0-0.8-0.4-0.8-0.8v-5.3v-0.6L8.2-169.9z"/>
			</g>
		</g>
		<g>
			<g>
				
					<linearGradient id="SVGID_8_" gradientUnits="userSpaceOnUse" x1="15060.4863" y1="-17139.3828" x2="15060.4863" y2="-17114.0234" gradientTransform="matrix(-1 0 0 -1 15258.8877 -17249.2344)">
					<stop  offset="0" style="stop-color:#83AE78"/>
					<stop  offset="1" style="stop-color:#5B9F37"/>
				</linearGradient>
				<path class="st9" d="M185.5-121.9c0-7.4,5.4-13.3,12.2-13.3c6.8,0,12.1,3.8,13.5,11.1c1.4,7.1-5.5,13.5-11.9,14.2v-6.2l0,0
					l4.4-4.4l-0.6-0.6l-3.9,3.9v-8.1c0-0.4-0.4-0.8-0.8-0.8c-0.4,0-0.8,0.4-0.8,0.8v2.8l-1.9-3.6l-0.7,0.4l2.6,5v8.6l-3.3-6.2
					l-0.7,0.4l4,7.6v0.6C191-110,185.5-114.6,185.5-121.9z"/>
				<path class="st2" d="M193.6-118l0.7-0.4l3.3,6.2v-8.6l-2.6-5l0.7-0.4l1.9,3.6v-2.8c0-0.4,0.4-0.8,0.8-0.8c0.4,0,0.8,0.4,0.8,0.8
					v8.1l3.9-3.9l0.6,0.6l-4.4,4.4l0,0v6.2v5.4c0,0.4-0.4,0.8-0.8,0.8c-0.4,0-0.8-0.4-0.8-0.8v-5.3v-0.6L193.6-118z"/>
			</g>
			<g>
				
					<linearGradient id="SVGID_9_" gradientUnits="userSpaceOnUse" x1="1410.6442" y1="-17136.8887" x2="1410.6442" y2="-17101.1523" gradientTransform="matrix(1 0 0 -1 -1243.3699 -17249.2344)">
					<stop  offset="0" style="stop-color:#83AE78"/>
					<stop  offset="1" style="stop-color:#5B9F37"/>
				</linearGradient>
				<path class="st10" d="M185.5-129.3c0-10.4-7.6-18.8-17.1-18.8s-17,5.4-19,15.6c-1.9,9.9,7.7,19,16.8,20v-8.7l0,0l-6.2-6.2
					l0.8-0.8l5.4,5.4v-11.5c0-0.6,0.5-1.1,1.1-1.1c0.6,0,1.1,0.5,1.1,1.1v3.9l2.7-5l1,0.5l-3.7,7v12l4.6-8.7l1,0.5l-5.6,10.7v0.8
					C177.7-112.6,185.5-119,185.5-129.3z"/>
				<path class="st2" d="M174-123.9l-1-0.5l-4.6,8.7v-12l3.7-7l-1-0.5l-2.7,5v-3.9c0-0.6-0.5-1.1-1.1-1.1c-0.6,0-1.1,0.5-1.1,1.1
					v11.5l-5.4-5.4l-0.8,0.8l6.2,6.2l0,0v8.7v7.6c0,0.6,0.5,1.1,1.1,1.1c0.6,0,1.1-0.5,1.1-1.1v-7.5v-0.8L174-123.9z"/>
			</g>
		</g>
		<g>
			<g>
				
					<linearGradient id="SVGID_10_" gradientUnits="userSpaceOnUse" x1="15130.293" y1="-17159.7266" x2="15130.293" y2="-17119.541" gradientTransform="matrix(-1 0 0 -1 15258.8877 -17249.2344)">
					<stop  offset="0" style="stop-color:#83AE78"/>
					<stop  offset="1" style="stop-color:#5B9F37"/>
				</linearGradient>
				<path class="st11" d="M108.1-108.5c0-11.7,8.5-21.2,19.3-21.2s19.2,6.1,21.4,17.6c2.2,11.2-8.7,21.4-18.9,22.5v-9.8l0,0l7-7
					l-0.9-0.9l-6.1,6.1V-114c0-0.7-0.6-1.2-1.2-1.2c-0.7,0-1.2,0.6-1.2,1.2v4.4l-3-5.7l-1.2,0.6l4.2,7.9v13.6l-5.2-9.8l-1.2,0.6
					l6.3,12v0.9C116.9-89.8,108.1-97,108.1-108.5z"/>
				<path class="st2" d="M121-102.5l1.2-0.6l5.2,9.8v-13.6l-4.2-7.9l1.2-0.6l3,5.7v-4.4c0-0.7,0.6-1.2,1.2-1.2
					c0.7,0,1.2,0.6,1.2,1.2v12.9l6.1-6.1l0.9,0.9l-7,7l0,0v9.8v8.5c0,0.7-0.6,1.2-1.2,1.2c-0.7,0-1.2-0.6-1.2-1.2v-8.4v-0.9
					L121-102.5z"/>
			</g>
			<g>
				
					<linearGradient id="SVGID_11_" gradientUnits="userSpaceOnUse" x1="15153.2266" y1="-17165.3223" x2="15153.2266" y2="-17139.9609" gradientTransform="matrix(-1 0 0 -1 15258.8877 -17249.2344)">
					<stop  offset="0" style="stop-color:#83AE78"/>
					<stop  offset="1" style="stop-color:#5B9F37"/>
				</linearGradient>
				<path class="st12" d="M92.7-95.9c0-7.4,5.4-13.3,12.2-13.3c6.8,0,12.1,3.8,13.5,11.1c1.4,7.1-5.5,13.5-11.9,14.2v-6.2l0,0
					l4.4-4.4l-0.6-0.6l-3.9,3.9v-8.1c0-0.4-0.4-0.8-0.8-0.8c-0.4,0-0.8,0.4-0.8,0.8v2.8l-1.9-3.6l-0.7,0.4l2.6,5v8.6l-3.3-6.2
					l-0.7,0.4l4,7.6v0.6C98.3-84.1,92.7-88.7,92.7-95.9z"/>
				<path class="st2" d="M100.9-92.1l0.7-0.4l3.3,6.2v-8.6l-2.6-5l0.7-0.4l1.9,3.6v-2.8c0-0.4,0.4-0.8,0.8-0.8
					c0.4,0,0.8,0.4,0.8,0.8v8.1l3.9-3.9l0.6,0.6l-4.4,4.4l0,0v6.2v5.4c0,0.4-0.4,0.8-0.8,0.8c-0.4,0-0.8-0.4-0.8-0.8v-5.3v-0.6
					L100.9-92.1z"/>
			</g>
			<g>
				
					<linearGradient id="SVGID_12_" gradientUnits="userSpaceOnUse" x1="1317.9037" y1="-17162.8281" x2="1317.9037" y2="-17127.0918" gradientTransform="matrix(1 0 0 -1 -1243.3699 -17249.2344)">
					<stop  offset="0" style="stop-color:#83AE78"/>
					<stop  offset="1" style="stop-color:#5B9F37"/>
				</linearGradient>
				<path class="st13" d="M92.7-103.3c0-10.4-7.6-18.8-17.1-18.8s-17,5.4-19,15.6c-1.9,9.9,7.7,19,16.8,20v-8.7l0,0l-6.2-6.2
					l0.8-0.8l5.4,5.4v-11.5c0-0.6,0.5-1.1,1.1-1.1c0.6,0,1.1,0.5,1.1,1.1v3.9l2.7-5l1,0.5l-3.7,7v12l4.6-8.7l1,0.5l-5.6,10.7v0.8
					C84.9-86.6,92.7-93.1,92.7-103.3z"/>
				<path class="st2" d="M81.2-97.9l-1-0.5l-4.6,8.7v-12l3.7-7l-1-0.5l-2.7,5v-3.9c0-0.6-0.5-1.1-1.1-1.1c-0.6,0-1.1,0.5-1.1,1.1
					v11.5l-5.4-5.4l-0.8,0.8l6.2,6.2l0,0v8.7v7.6c0,0.6,0.5,1.1,1.1,1.1c0.6,0,1.1-0.5,1.1-1.1v-7.5v-0.8L81.2-97.9z"/>
			</g>
		</g>
		<g>
			<g>
				
					<linearGradient id="SVGID_13_" gradientUnits="userSpaceOnUse" x1="15223.0342" y1="-17133.7891" x2="15223.0342" y2="-17093.6035" gradientTransform="matrix(-1 0 0 -1 15258.8877 -17249.2344)">
					<stop  offset="0" style="stop-color:#83AE78"/>
					<stop  offset="1" style="stop-color:#5B9F37"/>
				</linearGradient>
				<path class="st14" d="M15.4-134.5c0-11.7,8.5-21.2,19.3-21.2s19.2,6.1,21.4,17.6c2.2,11.2-8.7,21.4-18.9,22.5v-9.8l0,0l7-7
					l-0.9-0.9l-6.1,6.1V-140c0-0.7-0.6-1.2-1.2-1.2c-0.7,0-1.2,0.6-1.2,1.2v4.4l-3-5.7l-1.2,0.6l4.2,7.9v13.6l-5.2-9.8l-1.2,0.6
					l6.3,12v0.9C24.1-115.7,15.4-123,15.4-134.5z"/>
				<path class="st2" d="M28.3-128.4l1.2-0.6l5.2,9.8v-13.6l-4.2-7.9l1.2-0.6l3,5.7v-4.4c0-0.7,0.6-1.2,1.2-1.2
					c0.7,0,1.2,0.6,1.2,1.2v12.9l6.1-6.1l0.9,0.9l-7,7l0,0v9.8v8.5c0,0.7-0.6,1.2-1.2,1.2c-0.7,0-1.2-0.6-1.2-1.2v-8.4v-0.9
					L28.3-128.4z"/>
			</g>
			<g>
				
					<linearGradient id="SVGID_14_" gradientUnits="userSpaceOnUse" x1="15245.9678" y1="-17139.3828" x2="15245.9678" y2="-17114.0234" gradientTransform="matrix(-1 0 0 -1 15258.8877 -17249.2344)">
					<stop  offset="0" style="stop-color:#83AE78"/>
					<stop  offset="1" style="stop-color:#5B9F37"/>
				</linearGradient>
				<path class="st15" d="M0-121.9c0-7.4,5.4-13.3,12.2-13.3s12.1,3.8,13.5,11.1c1.4,7.1-5.5,13.5-11.9,14.2v-6.2l0,0l4.4-4.4
					l-0.6-0.6l-3.9,3.9v-8.1c0-0.4-0.4-0.8-0.8-0.8c-0.4,0-0.8,0.4-0.8,0.8v2.8l-1.9-3.6l-0.7,0.4l2.6,5v8.6l-3.3-6.2L8.2-118l4,7.6
					v0.6C5.5-110,0-114.6,0-121.9z"/>
				<path class="st2" d="M8.2-118l0.7-0.4l3.3,6.2v-8.6l-2.6-5l0.7-0.4l1.9,3.6v-2.8c0-0.4,0.4-0.8,0.8-0.8c0.4,0,0.8,0.4,0.8,0.8
					v8.1l3.9-3.9l0.6,0.6l-4.4,4.4l0,0v6.2v5.4c0,0.4-0.4,0.8-0.8,0.8c-0.4,0-0.8-0.4-0.8-0.8v-5.3v-0.6L8.2-118z"/>
			</g>
		</g>
		<g>
			<g>
				
					<linearGradient id="SVGID_15_" gradientUnits="userSpaceOnUse" x1="15060.4863" y1="-17191.2598" x2="15060.4863" y2="-17165.9004" gradientTransform="matrix(-1 0 0 -1 15258.8877 -17249.2344)">
					<stop  offset="0" style="stop-color:#83AE78"/>
					<stop  offset="1" style="stop-color:#5B9F37"/>
				</linearGradient>
				<path class="st16" d="M185.5-70c0-7.4,5.4-13.3,12.2-13.3c6.8,0,12.1,3.8,13.5,11.1c1.4,7.1-5.5,13.5-11.9,14.2v-6.2l0,0
					l4.4-4.4l-0.6-0.6l-3.9,3.9v-8.1c0-0.4-0.4-0.8-0.8-0.8c-0.4,0-0.8,0.4-0.8,0.8v2.8l-1.9-3.6l-0.7,0.4l2.6,5v8.6l-3.3-6.2
					l-0.7,0.4l4,7.6v0.6C191-58.1,185.5-62.7,185.5-70z"/>
				<path class="st2" d="M193.6-66.1l0.7-0.4l3.3,6.2v-8.6l-2.6-5l0.7-0.4l1.9,3.6v-2.8c0-0.4,0.4-0.8,0.8-0.8
					c0.4,0,0.8,0.4,0.8,0.8v8.1l3.9-3.9l0.6,0.6l-4.4,4.4l0,0v6.2v5.4c0,0.4-0.4,0.8-0.8,0.8c-0.4,0-0.8-0.4-0.8-0.8V-58v-0.6
					L193.6-66.1z"/>
			</g>
			<g>
				
					<linearGradient id="SVGID_16_" gradientUnits="userSpaceOnUse" x1="1410.6442" y1="-17188.7656" x2="1410.6442" y2="-17153.0293" gradientTransform="matrix(1 0 0 -1 -1243.3699 -17249.2344)">
					<stop  offset="0" style="stop-color:#83AE78"/>
					<stop  offset="1" style="stop-color:#5B9F37"/>
				</linearGradient>
				<path class="st17" d="M185.5-77.4c0-10.4-7.6-18.8-17.1-18.8s-17,5.4-19,15.6c-1.9,9.9,7.7,19,16.8,20v-8.7l0,0l-6.2-6.2
					l0.8-0.8l5.4,5.4v-11.5c0-0.6,0.5-1.1,1.1-1.1c0.6,0,1.1,0.5,1.1,1.1v3.9l2.7-5l1,0.5l-3.7,7v12l4.6-8.7l1,0.5l-5.6,10.7v0.8
					C177.7-60.7,185.5-67.2,185.5-77.4z"/>
				<path class="st2" d="M174-72l-1-0.5l-4.6,8.7v-12l3.7-7l-1-0.5l-2.7,5v-3.9c0-0.6-0.5-1.1-1.1-1.1c-0.6,0-1.1,0.5-1.1,1.1v11.5
					l-5.4-5.4l-0.8,0.8l6.2,6.2l0,0v8.7v7.6c0,0.6,0.5,1.1,1.1,1.1c0.6,0,1.1-0.5,1.1-1.1v-7.5v-0.8L174-72z"/>
			</g>
		</g>
		<g>
			<g>
				
					<linearGradient id="SVGID_17_" gradientUnits="userSpaceOnUse" x1="15130.293" y1="-17211.6035" x2="15130.293" y2="-17171.418" gradientTransform="matrix(-1 0 0 -1 15258.8877 -17249.2344)">
					<stop  offset="0" style="stop-color:#83AE78"/>
					<stop  offset="1" style="stop-color:#5B9F37"/>
				</linearGradient>
				<path class="st18" d="M108.1-56.7c0-11.7,8.5-21.2,19.3-21.2s19.2,6.1,21.4,17.6c2.2,11.2-8.7,21.4-18.9,22.5v-9.8l0,0l7-7
					l-0.9-0.9l-6.1,6.1v-12.9c0-0.7-0.6-1.2-1.2-1.2c-0.7,0-1.2,0.6-1.2,1.2v4.4l-3-5.7l-1.2,0.6l4.2,7.9v13.6l-5.2-9.8l-1.2,0.6
					l6.3,12v0.9C116.9-37.9,108.1-45.2,108.1-56.7z"/>
				<path class="st2" d="M121-50.6l1.2-0.6l5.2,9.8v-13.6l-4.2-7.9l1.2-0.6l3,5.7v-4.4c0-0.7,0.6-1.2,1.2-1.2c0.7,0,1.2,0.6,1.2,1.2
					v12.9l6.1-6.1l0.9,0.9l-7,7l0,0v9.8v8.5c0,0.7-0.6,1.2-1.2,1.2c-0.7,0-1.2-0.6-1.2-1.2v-8.4v-0.9L121-50.6z"/>
			</g>
			<g>
				
					<linearGradient id="SVGID_18_" gradientUnits="userSpaceOnUse" x1="15153.2266" y1="-17217.1992" x2="15153.2266" y2="-17191.8379" gradientTransform="matrix(-1 0 0 -1 15258.8877 -17249.2344)">
					<stop  offset="0" style="stop-color:#83AE78"/>
					<stop  offset="1" style="stop-color:#5B9F37"/>
				</linearGradient>
				<path class="st19" d="M92.7-44c0-7.4,5.4-13.3,12.2-13.3c6.8,0,12.1,3.8,13.5,11.1c1.4,7.1-5.5,13.5-11.9,14.2v-6.2l0,0l4.4-4.4
					l-0.6-0.6l-3.9,3.9v-8.1c0-0.4-0.4-0.8-0.8-0.8c-0.4,0-0.8,0.4-0.8,0.8v2.8l-1.9-3.6l-0.7,0.4l2.6,5v8.6l-3.3-6.2l-0.7,0.4
					l4,7.6v0.6C98.3-32.2,92.7-36.8,92.7-44z"/>
				<path class="st2" d="M100.9-40.2l0.7-0.4l3.3,6.2v-8.6l-2.6-5l0.7-0.4l1.9,3.6v-2.8c0-0.4,0.4-0.8,0.8-0.8
					c0.4,0,0.8,0.4,0.8,0.8v8.1l3.9-3.9l0.6,0.6l-4.4,4.4l0,0v6.2v5.4c0,0.4-0.4,0.8-0.8,0.8c-0.4,0-0.8-0.4-0.8-0.8V-32v-0.6
					L100.9-40.2z"/>
			</g>
			<g>
				
					<linearGradient id="SVGID_19_" gradientUnits="userSpaceOnUse" x1="1317.9037" y1="-17214.7051" x2="1317.9037" y2="-17178.9688" gradientTransform="matrix(1 0 0 -1 -1243.3699 -17249.2344)">
					<stop  offset="0" style="stop-color:#83AE78"/>
					<stop  offset="1" style="stop-color:#5B9F37"/>
				</linearGradient>
				<path class="st20" d="M92.7-51.5c0-10.4-7.6-18.8-17.1-18.8s-17,5.4-19,15.6c-1.9,9.9,7.7,19,16.8,20v-8.7l0,0l-6.2-6.2l0.8-0.8
					l5.4,5.4v-11.5c0-0.6,0.5-1.1,1.1-1.1c0.6,0,1.1,0.5,1.1,1.1v3.9l2.7-5l1,0.5l-3.7,7v12l4.6-8.7l1,0.5l-5.6,10.7v0.8
					C84.9-34.8,92.7-41.2,92.7-51.5z"/>
				<path class="st2" d="M81.2-46l-1-0.5l-4.6,8.7v-12l3.7-7l-1-0.5l-2.7,5v-3.9c0-0.6-0.5-1.1-1.1-1.1c-0.6,0-1.1,0.5-1.1,1.1v11.5
					L68-50.3l-0.8,0.8l6.2,6.2l0,0v8.7v7.6c0,0.6,0.5,1.1,1.1,1.1c0.6,0,1.1-0.5,1.1-1.1v-7.5v-0.8L81.2-46z"/>
			</g>
		</g>
		<g>
			<g>
				
					<linearGradient id="SVGID_20_" gradientUnits="userSpaceOnUse" x1="15223.0342" y1="-17185.666" x2="15223.0342" y2="-17145.4805" gradientTransform="matrix(-1 0 0 -1 15258.8877 -17249.2344)">
					<stop  offset="0" style="stop-color:#83AE78"/>
					<stop  offset="1" style="stop-color:#5B9F37"/>
				</linearGradient>
				<path class="st21" d="M15.4-82.6c0-11.7,8.5-21.2,19.3-21.2S53.8-97.7,56-86.2c2.2,11.2-8.7,21.4-18.9,22.5v-9.8l0,0l7-7
					l-0.9-0.9l-6.1,6.1v-12.9c0-0.7-0.6-1.2-1.2-1.2c-0.7,0-1.2,0.6-1.2,1.2v4.4l-3-5.7l-1.2,0.6l4.2,7.9v13.6l-5.2-9.8l-1.2,0.6
					l6.3,12v0.9C24.1-63.8,15.4-71.1,15.4-82.6z"/>
				<path class="st2" d="M28.3-76.5l1.2-0.6l5.2,9.8v-13.6l-4.2-7.9l1.2-0.6l3,5.7v-4.4c0-0.7,0.6-1.2,1.2-1.2
					c0.7,0,1.2,0.6,1.2,1.2v12.9l6.1-6.1l0.9,0.9l-7,7l0,0v9.8v8.5c0,0.7-0.6,1.2-1.2,1.2c-0.7,0-1.2-0.6-1.2-1.2v-8.4v-0.9
					L28.3-76.5z"/>
			</g>
			<g>
				
					<linearGradient id="SVGID_21_" gradientUnits="userSpaceOnUse" x1="15245.9678" y1="-17191.2598" x2="15245.9678" y2="-17165.9004" gradientTransform="matrix(-1 0 0 -1 15258.8877 -17249.2344)">
					<stop  offset="0" style="stop-color:#83AE78"/>
					<stop  offset="1" style="stop-color:#5B9F37"/>
				</linearGradient>
				<path class="st22" d="M0-70c0-7.4,5.4-13.3,12.2-13.3s12.1,3.8,13.5,11.1C27-65.2,20.2-58.8,13.7-58v-6.2l0,0l4.4-4.4l-0.6-0.6
					l-3.9,3.9v-8.1c0-0.4-0.4-0.8-0.8-0.8c-0.4,0-0.8,0.4-0.8,0.8v2.8l-1.9-3.6l-0.7,0.4l2.6,5v8.6l-3.3-6.2l-0.7,0.4l4,7.6v0.6
					C5.5-58.1,0-62.7,0-70z"/>
				<path class="st2" d="M8.2-66.1l0.7-0.4l3.3,6.2v-8.6l-2.6-5l0.7-0.4l1.9,3.6v-2.8c0-0.4,0.4-0.8,0.8-0.8c0.4,0,0.8,0.4,0.8,0.8
					v8.1l3.9-3.9l0.6,0.6l-4.4,4.4l0,0v6.2v5.4c0,0.4-0.4,0.8-0.8,0.8c-0.4,0-0.8-0.4-0.8-0.8V-58v-0.6L8.2-66.1z"/>
			</g>
		</g>
		<g>
			<g>
				
					<linearGradient id="SVGID_22_" gradientUnits="userSpaceOnUse" x1="15060.4863" y1="-17243.1367" x2="15060.4863" y2="-17217.7773" gradientTransform="matrix(-1 0 0 -1 15258.8877 -17249.2344)">
					<stop  offset="0" style="stop-color:#83AE78"/>
					<stop  offset="1" style="stop-color:#5B9F37"/>
				</linearGradient>
				<path class="st23" d="M185.5-18.1c0-7.4,5.4-13.3,12.2-13.3c6.8,0,12.1,3.8,13.5,11.1c1.4,7.1-5.5,13.5-11.9,14.2v-6.2l0,0
					l4.4-4.4l-0.6-0.6l-3.9,3.9v-8.1c0-0.4-0.4-0.8-0.8-0.8c-0.4,0-0.8,0.4-0.8,0.8v2.8l-1.9-3.6L195-22l2.6,5v8.6l-3.3-6.2
					l-0.7,0.4l4,7.6v0.6C191-6.3,185.5-10.8,185.5-18.1z"/>
			</g>
			<g>
				
					<linearGradient id="SVGID_23_" gradientUnits="userSpaceOnUse" x1="1410.6442" y1="-17240.6426" x2="1410.6442" y2="-17204.9062" gradientTransform="matrix(1 0 0 -1 -1243.3699 -17249.2344)">
					<stop  offset="0" style="stop-color:#83AE78"/>
					<stop  offset="1" style="stop-color:#5B9F37"/>
				</linearGradient>
				<path class="st24" d="M185.5-25.5c0-10.4-7.6-18.8-17.1-18.8s-17,5.4-19,15.6c-1.9,9.9,7.7,19,16.8,20v-8.7l0,0l-6.2-6.2
					l0.8-0.8l5.4,5.4v-11.5c0-0.6,0.5-1.1,1.1-1.1c0.6,0,1.1,0.5,1.1,1.1v3.9l2.7-5l1,0.5l-3.7,7v12l4.6-8.7l1,0.5l-5.6,10.7v0.8
					C177.7-8.8,185.5-15.3,185.5-25.5z"/>
				<path class="st2" d="M174-20.1l-1-0.5l-4.6,8.7v-12l3.7-7l-1-0.5l-2.7,5v-3.9c0-0.6-0.5-1.1-1.1-1.1c-0.6,0-1.1,0.5-1.1,1.1
					v11.5l-5.4-5.4l-0.8,0.8l6.2,6.2l0,0v8.7v7.6c0,0.6,0.5,1.1,1.1,1.1c0.6,0,1.1-0.5,1.1-1.1v-7.5v-0.8L174-20.1z"/>
			</g>
		</g>
		<g>
			<g>
				
					<linearGradient id="SVGID_24_" gradientUnits="userSpaceOnUse" x1="15223.0342" y1="-17237.543" x2="15223.0342" y2="-17197.3574" gradientTransform="matrix(-1 0 0 -1 15258.8877 -17249.2344)">
					<stop  offset="0" style="stop-color:#83AE78"/>
					<stop  offset="1" style="stop-color:#5B9F37"/>
				</linearGradient>
				<path class="st25" d="M15.4-30.7c0-11.7,8.5-21.2,19.3-21.2S53.8-45.8,56-34.3c2.2,11.2-8.7,21.4-18.9,22.5v-9.8l0,0l7-7
					l-0.9-0.9l-6.1,6.1v-12.9c0-0.7-0.6-1.2-1.2-1.2c-0.7,0-1.2,0.6-1.2,1.2v4.4l-3-5.7l-1.2,0.6l4.2,7.9v13.6l-5.2-9.8l-1.2,0.6
					l6.3,12v0.9C24.1-12,15.4-19.2,15.4-30.7z"/>
				<path class="st2" d="M28.3-24.6l1.2-0.6l5.2,9.8V-29l-4.2-7.9l1.2-0.6l3,5.7v-4.4c0-0.7,0.6-1.2,1.2-1.2c0.7,0,1.2,0.6,1.2,1.2
					v12.9l6.1-6.1l0.9,0.9l-7,7l0,0v9.8v8.5c0,0.7-0.6,1.2-1.2,1.2c-0.7,0-1.2-0.6-1.2-1.2v-8.4v-0.9L28.3-24.6z"/>
			</g>
			<g>
				
					<linearGradient id="SVGID_25_" gradientUnits="userSpaceOnUse" x1="15245.9678" y1="-17243.1367" x2="15245.9678" y2="-17217.7773" gradientTransform="matrix(-1 0 0 -1 15258.8877 -17249.2344)">
					<stop  offset="0" style="stop-color:#83AE78"/>
					<stop  offset="1" style="stop-color:#5B9F37"/>
				</linearGradient>
				<path class="st26" d="M0-18.1c0-7.4,5.4-13.3,12.2-13.3s12.1,3.8,13.5,11.1C27-13.3,20.2-6.9,13.7-6.2v-6.2l0,0l4.4-4.4
					l-0.6-0.6l-3.9,3.9v-8.1c0-0.4-0.4-0.8-0.8-0.8c-0.4,0-0.8,0.4-0.8,0.8v2.8l-1.9-3.6L9.5-22l2.6,5v8.6l-3.3-6.2l-0.7,0.4l4,7.6
					v0.6C5.5-6.3,0-10.8,0-18.1z"/>
			</g>
		</g>
	</g>
</pattern>
<rect x="0" y="0" class="st27" width="1920" height="1080"/>
<path class="st28" d="M323.2,990.2c10-22.9,23.7-46.1,30.5-63.9l101.9-122.8c15.2-18.3,26.1-39.7,32.2-62.8l79-181.7L0,538.8V1080
	h370.4l-26.4-17.8C320.7,1046.3,311.9,1016.1,323.2,990.2z"/>
<path class="st29" d="M1393.7,265.6l-675.3-58.9c-7.5-0.7-14.8,2.1-20.1,7.4l-13.3,13.6c-3.5,3.6-6.1,8-7.5,12.9l-94.4,326.5
	l69,91.3L889.4,747l44.1,61.2l7.6,181.3l25.7,28.6l-1,61.8h295.5l138.3-795.3C1400.9,277.7,1398.7,270.6,1393.7,265.6z"/>
<pattern  id="SVGID_26_" xlink:href="#–Ф–µ—А–µ–≤—М—П" patternTransform="matrix(0.5031 0 0 0.5031 -3369.5142 -3374.2571)">
</pattern>
<path class="st30" d="M1391.5,266.9L716.2,208c-7.5-0.7-14.8,2.1-20.1,7.4L682.9,229c-3.5,3.6-6.1,8-7.5,12.9L581,568.4l69,91.3
	l237.2,88.6l44.1,61.2l7.6,181.3l25.7,28.6l-1,60.5h295.7l138.1-794C1398.7,279,1396.5,271.9,1391.5,266.9z"/>
<path class="st29" d="M0,0v115.8l197.8,27.5l509.7,43.6l714.7,60.3c3.9,0.3,7.9,0.4,11.8,0.2l105.5-4.7c11.1-0.5,22-3,32.2-7.5
	l150.6-66.2c10.2-4.5,20.9-7.6,31.9-9.4l63.8-10.3c15.2-2.4,30.5-3.6,45.9-3.5l56,0.5V0H0z"/>
<path class="st29" d="M78.4,582.2L119,477.8l48.9,24.3l31.2-1.4l124.7-7.7l101.7,8.9l29.7-2.5l34.4,19.7l88.2,19.3l40.8-154.2
	l43.1-138.7c1.8-7.9,0.7-16.2-3.2-23.3l-8-14.6c-1.9-3.6-5.5-5.9-9.6-6.3L0,139.6V627h18L78.4,582.2z"/>
<pattern  id="SVGID_27_" xlink:href="#–Ф–µ—А–µ–≤—М—П" patternTransform="matrix(0.5031 0 0 0.5031 -3369.5142 -3374.2571)">
</pattern>
<path class="st31" d="M0,0v113.4l199.6,27.8l509.7,43.6l714.7,60.3c3.9,0.3,7.9,0.4,11.8,0.2l105.5-4.7c11.1-0.5,22-3,32.2-7.5
	l150.6-66.2c10.2-4.5,20.9-7.6,31.9-9.4l63.8-10.3c15.2-2.4,30.5-3.6,45.9-3.5l54.2,0.5V0H0z"/>
<path class="st29" d="M1886.4,169c-21.3,0-42.5,2.5-63.2,7.5l-34.8,8.4c-13.4,3.2-26.6,7.5-39.3,12.8l-147.4,61
	c-15.5,6.4-32.1,9.9-48.8,10.3l-113.7,2.5c-7.4,0.2-13.9,4.8-16.4,11.8l-14.3,39.2c-0.6,1.6-1,3.2-1.3,4.9l-112.7,632.4
	c-2.3,12.6,0.1,25.7,6.5,36.7c4.4,7.6,12.2,12.7,21,13.7l236.4,28l36.4,0.9c8.3,0.2,16.5-0.4,24.7-1.9l20.2-3.6
	c12.8-2.3,25.9-2.5,38.8-0.7l58.7,8.3l182.8,32.1V169H1886.4z"/>
<pattern  id="SVGID_28_" xlink:href="#–Ф–µ—А–µ–≤—М—П" patternTransform="matrix(0.5031 0 0 0.5031 -3369.5142 -3374.2571)">
</pattern>
<path class="st32" d="M1888.6,170c-21.3,0-42.5,2.5-63.2,7.5l-34.8,8.4c-13.4,3.2-26.6,7.5-39.3,12.8l-147.4,61
	c-15.5,6.4-32.1,9.9-48.8,10.3l-113.7,2.5c-7.4,0.2-13.9,4.8-16.4,11.8l-14.3,39.2c-0.6,1.6-1,3.2-1.3,4.9l-112.7,632.4
	c-2.3,12.6,0.1,25.7,6.5,36.7c4.4,7.6,12.2,12.7,21,13.7l236.4,28l36.4,0.9c8.3,0.2,16.5-0.4,24.7-1.9l20.2-3.6
	c12.8-2.3,25.9-2.5,38.8-0.7l58.7,8.3l180.6,31.7V170H1888.6z"/>
<path class="st33" d="M1367.3,268.5l-527.2-35.8c-6.3-0.5-59.9-14.8-64.3-10.3l-46.5-0.4c-3,3-21,16-22.1,20l-32.7,123.4
	l-69.9,162.6l127.9,40.4l43.7,36.5l84.4,29l64.4,71.7l37,51.4l6.4,152.1l21.6,24l59.3-3.1l119.7-9.8l89.7,39.7l121.3-662.9
	c1-5.8-0.9-11.8-5-16L1367.3,268.5z"/>
<pattern  id="SVGID_29_" xlink:href="#–Ф–µ—А–µ–≤—М—П" patternTransform="matrix(0.5031 0 0 0.5031 -3369.5142 -3374.2571)">
</pattern>
<path class="st34" d="M78.4,585L119,480.7l48.9,24.3l31.2-1.4l124.7-7.7l101.7,8.9l29.7-2.5l34.4,19.7l88.2,19.3L618.7,387
	l43.1-138.7c1.8-7.9,0.7-16.2-3.2-23.3l-8-14.6c-1.9-3.6-5.5-5.9-9.6-6.3L0,142.4v487.4h18L78.4,585z"/>
<path class="st35" d="M1897,210.7c-19.9,0-39.7,2.1-59,6.1l-32.5,6.8c-12.5,2.6-24.8,6.1-36.7,10.4l-137.6,49.7
	c-14.5,5.2-29.9,8.1-45.6,8.4l-106.2,2c-6.9,0.1-13,3.9-15.3,9.6l-13.3,32c-0.5,1.3-0.9,2.6-1.2,4l-105.2,515.6
	c-2.1,10.3,0.1,20.9,6.1,30v0c4.2,6.2,11.4,10.4,19.6,11.2l220.7,22.8l34,0.7c7.7,0.2,15.4-0.4,23-1.5l18.9-2.9
	c12-1.9,24.2-2.1,36.2-0.6l54.8,6.8l162.3,24.9v-736H1897z"/>
<path class="st36" d="M0.7,0v102l208.7,28.1l506.3,41.8l710.1,57.9c3.9,0.3,7.8,0.4,11.7,0.2l104.8-4.5c11-0.5,21.9-2.9,32-7.2
	l149.6-63.5c10.1-4.3,20.8-7.3,31.7-9l63.4-9.9c15.1-2.3,30.3-3.5,45.6-3.3l55.3,0.5V0H0.7z"/>
<path class="st35" d="M75.4,543.5l39.3-86.1l47.3,20l30.2-1.1l120.6-6.4l98.4,7.4l28.8-2.1l33.3,16.2l85.3,16L598,380.1l41.7-114.5
	c1.8-6.5,0.6-13.4-3.1-19.3l-7.7-12.1c-1.9-2.9-5.3-4.9-9.3-5.2L0,178.2v402.3h17L75.4,543.5z"/>
<path class="st33" d="M429.1,232.7l-21.4,105.2l43.5-3.3c15.6-1.1,29.6,3.3,44.7,7l103.9-3.4l21.1-74.8l-11.7-21L429.1,232.7z"/>
<path class="st33" d="M203.2,268.6c-0.3,5.7-1.2,11.4-2.7,16.9l-11.1,40l37.4,2.5c4.2,0,40.7,2.4,44.8,2.7l126.2,7.5l24.8-107.6
	l-217-17.1L203.2,268.6z"/>
<path class="st33" d="M177.1,390.1c-0.3,5.7-1.2,11.3-2.7,16.8l-11.1,64.3l58.8-1.9c4.2,0,75.5-8.1,79.7-7.7l74.6,1.4l20.3-110.4
	l-207.2-12.2L177.1,390.1z"/>
<polygon class="st33" points="113.1,443.3 156.4,462.7 166.1,386.2 194.5,276.4 194.5,213.5 0,201.9 0,495.1 88.6,481.9 "/>
<path class="st33" d="M1637.9,314.9l-48,15.3c-8.4,2.7-17.1,4.1-26,4.3l-95,1.6l-0.4,0.8c-7.6,16.1-13,33.2-16,50.9l-12,71.6
	c-1.7,6.2-2.7,12.5-3.2,18.9l-10.5,50.6l85.9-6.8l123.5,5.9l-5.1-63.6c-0.3-4.3-0.4-8.7-0.2-13L1637.9,314.9z"/>
<path class="st33" d="M1893.2,718.5c-8.2-1-16.6-0.7-24.7,0.8l-24.1,4.5c-21.1,4-42.7,3.9-63.7-0.1l-51.2-9.8
	c-4.6-0.9-9.2-1.2-13.9-0.9l-68.1,4l-4.2,50.2c-3.1,36.9-1,74.1,6.4,110.4l1.3,8c1.1,5.4,5.4,9.7,10.8,10.7l154.4,20.9
	c4.1,0.6,8.3,0.8,12.5,0.8l91.5,9.8V721.7L1893.2,718.5z"/>
<g>
	<rect x="512.9" y="287" class="st29" width="6.2" height="12.4"/>
	<path class="st37" d="M519.1,286.2h-6.2c-0.5,0-0.8,0.4-0.8,0.8v12.4c0,0.5,0.4,0.8,0.8,0.8h6.2c0.5,0,0.8-0.4,0.8-0.8V287
		C520,286.5,519.6,286.2,519.1,286.2z M518.3,298.5h-4.5v-10.7h4.5V298.5z"/>
	<path class="st37" d="M516.6,269.8c-0.3-0.3-0.9-0.3-1.2,0l-15.1,15.1c-0.3,0.3-0.3,0.9,0,1.2l2.4,2.4c0.2,0.2,0.4,0.3,0.6,0.3
		s0.5-0.1,0.6-0.3l12.2-12.1l9,9v11.3c-0.8,0.3-1.4,1-1.6,1.8H507v-7.6c0-0.5-0.4-0.8-0.8-0.8s-0.8,0.4-0.8,0.8v2.1
		c-1.4,0.3-2.4,1.4-2.7,2.8c-1.4,0.3-2.5,1.4-2.8,2.7h-2.4c-0.5,0-0.8,0.4-0.8,0.8c0,0.5,0.4,0.8,0.8,0.8h26.7
		c0.5,0,0.8-0.4,0.8-0.8v-0.3c0-0.5,0.4-0.8,0.8-0.8s0.8,0.4,0.8,0.8v0.3c0,0.5,0.4,0.8,0.8,0.8h0.8c0.5,0,0.8-0.4,0.8-0.8
		c0-0.5-0.4-0.8-0.8-0.8h-0.1c-0.2-0.8-0.8-1.5-1.6-1.8v-9.7l1.4,1.4c0.2,0.2,0.4,0.3,0.6,0.3s0.5-0.1,0.6-0.3l2.4-2.4
		c0.3-0.3,0.3-0.8,0-1.2L516.6,269.8z M505.3,298.5h-3.7c0.3-0.7,1-1.1,1.8-1.1c0.5,0,0.8-0.4,0.8-0.8c0-0.8,0.5-1.5,1.1-1.8V298.5z
		 M528.8,286.7l-12.2-12.1c-0.2-0.2-0.4-0.3-0.6-0.3s-0.4,0.1-0.6,0.3l-12.2,12.1l-1.2-1.2l13.9-13.9l13.9,13.9L528.8,286.7z"/>
</g>
<g>
	<rect x="487.4" y="411.4" class="st29" width="6.2" height="12.4"/>
	<path class="st37" d="M493.6,410.5h-6.2c-0.5,0-0.8,0.4-0.8,0.8v12.4c0,0.5,0.4,0.8,0.8,0.8h6.2c0.5,0,0.8-0.4,0.8-0.8v-12.4
		C494.5,410.9,494.1,410.5,493.6,410.5z M492.8,422.9h-4.5v-10.7h4.5V422.9z"/>
	<path class="st37" d="M491.1,394.2c-0.3-0.3-0.9-0.3-1.2,0l-15.1,15.1c-0.3,0.3-0.3,0.9,0,1.2l2.4,2.4c0.2,0.2,0.4,0.3,0.6,0.3
		s0.5-0.1,0.6-0.3l12.2-12.1l9,9v11.3c-0.8,0.3-1.4,1-1.6,1.8h-16.4v-7.6c0-0.5-0.4-0.8-0.8-0.8c-0.5,0-0.8,0.4-0.8,0.8v2.1
		c-1.4,0.3-2.4,1.4-2.7,2.8c-1.4,0.3-2.5,1.4-2.8,2.7H472c-0.5,0-0.8,0.4-0.8,0.8c0,0.5,0.4,0.8,0.8,0.8h26.7c0.5,0,0.8-0.4,0.8-0.8
		v-0.3c0-0.5,0.4-0.8,0.8-0.8s0.8,0.4,0.8,0.8v0.3c0,0.5,0.4,0.8,0.8,0.8h0.8c0.5,0,0.8-0.4,0.8-0.8c0-0.5-0.4-0.8-0.8-0.8h-0.1
		c-0.2-0.8-0.8-1.5-1.6-1.8v-9.7l1.4,1.4c0.2,0.2,0.4,0.3,0.6,0.3s0.5-0.1,0.6-0.3l2.4-2.4c0.3-0.3,0.3-0.8,0-1.2L491.1,394.2z
		 M479.8,422.9h-3.7c0.3-0.7,1-1.1,1.8-1.1c0.5,0,0.8-0.4,0.8-0.8c0-0.8,0.5-1.5,1.1-1.8V422.9z M503.3,411.1L491.1,399
		c-0.2-0.2-0.4-0.3-0.6-0.3s-0.4,0.1-0.6,0.3l-12.2,12.1l-1.2-1.2l13.9-13.9l13.9,13.9L503.3,411.1z"/>
</g>
<g>
	<rect x="1365.9" y="184.2" class="st29" width="6.2" height="12.4"/>
	<path class="st37" d="M1372.1,183.3h-6.2c-0.5,0-0.8,0.4-0.8,0.8v12.4c0,0.5,0.4,0.8,0.8,0.8h6.2c0.5,0,0.8-0.4,0.8-0.8v-12.4
		C1373,183.7,1372.6,183.3,1372.1,183.3z M1371.3,195.7h-4.5V185h4.5V195.7z"/>
	<path class="st37" d="M1369.6,167c-0.3-0.3-0.9-0.3-1.2,0l-15.1,15.1c-0.3,0.3-0.3,0.9,0,1.2l2.4,2.4c0.2,0.2,0.4,0.3,0.6,0.3
		s0.5-0.1,0.6-0.3l12.2-12.1l9,9v11.3c-0.8,0.3-1.4,1-1.6,1.8H1360v-7.6c0-0.5-0.4-0.8-0.8-0.8s-0.8,0.4-0.8,0.8v2.1
		c-1.4,0.3-2.4,1.4-2.7,2.8c-1.4,0.3-2.5,1.4-2.8,2.7h-2.4c-0.5,0-0.8,0.4-0.8,0.8s0.4,0.8,0.8,0.8h26.7c0.5,0,0.8-0.4,0.8-0.8v-0.3
		c0-0.5,0.4-0.8,0.8-0.8c0.5,0,0.8,0.4,0.8,0.8v0.3c0,0.5,0.4,0.8,0.8,0.8h0.8c0.5,0,0.8-0.4,0.8-0.8s-0.4-0.8-0.8-0.8h-0.1
		c-0.2-0.8-0.8-1.5-1.6-1.8v-9.7l1.4,1.4c0.2,0.2,0.4,0.3,0.6,0.3s0.5-0.1,0.6-0.3l2.4-2.4c0.3-0.3,0.3-0.8,0-1.2L1369.6,167z
		 M1358.3,195.7h-3.7c0.3-0.7,1-1.1,1.8-1.1c0.5,0,0.8-0.4,0.8-0.8c0-0.8,0.5-1.5,1.1-1.8V195.7z M1381.8,183.9l-12.2-12.1
		c-0.2-0.2-0.4-0.3-0.6-0.3s-0.4,0.1-0.6,0.3l-12.2,12.1l-1.2-1.2l13.9-13.9l13.9,13.9L1381.8,183.9z"/>
</g>
<g>
	<rect x="1155.6" y="167.7" class="st29" width="6.2" height="12.4"/>
	<path class="st37" d="M1161.8,166.9h-6.2c-0.5,0-0.8,0.4-0.8,0.8v12.4c0,0.5,0.4,0.8,0.8,0.8h6.2c0.5,0,0.8-0.4,0.8-0.8v-12.4
		C1162.7,167.2,1162.3,166.9,1161.8,166.9z M1161,179.2h-4.5v-10.7h4.5V179.2z"/>
	<path class="st37" d="M1159.3,150.5c-0.3-0.3-0.9-0.3-1.2,0l-15.1,15.1c-0.3,0.3-0.3,0.9,0,1.2l2.4,2.4c0.2,0.2,0.4,0.3,0.6,0.3
		s0.5-0.1,0.6-0.3l12.2-12.1l9,9v11.3c-0.8,0.3-1.4,1-1.6,1.8h-16.4v-7.6c0-0.5-0.4-0.8-0.8-0.8c-0.5,0-0.8,0.4-0.8,0.8v2.1
		c-1.4,0.3-2.4,1.4-2.7,2.8c-1.4,0.3-2.5,1.4-2.8,2.7h-2.4c-0.5,0-0.8,0.4-0.8,0.8s0.4,0.8,0.8,0.8h26.7c0.5,0,0.8-0.4,0.8-0.8v-0.3
		c0-0.5,0.4-0.8,0.8-0.8c0.5,0,0.8,0.4,0.8,0.8v0.3c0,0.5,0.4,0.8,0.8,0.8h0.8c0.5,0,0.8-0.4,0.8-0.8s-0.4-0.8-0.8-0.8h-0.1
		c-0.2-0.8-0.8-1.5-1.6-1.8v-9.7l1.4,1.4c0.2,0.2,0.4,0.3,0.6,0.3s0.5-0.1,0.6-0.3l2.4-2.4c0.3-0.3,0.3-0.8,0-1.2L1159.3,150.5z
		 M1148,179.2h-3.7c0.3-0.7,1-1.1,1.8-1.1c0.5,0,0.8-0.4,0.8-0.8c0-0.8,0.5-1.5,1.1-1.8V179.2z M1171.5,167.4l-12.2-12.1
		c-0.2-0.2-0.4-0.3-0.6-0.3c-0.2,0-0.4,0.1-0.6,0.3l-12.2,12.1l-1.2-1.2l13.9-13.9l13.9,13.9L1171.5,167.4z"/>
</g>
<g>
	<rect x="952.5" y="152.4" class="st29" width="6.2" height="12.4"/>
	<path class="st37" d="M958.7,151.5h-6.2c-0.5,0-0.8,0.4-0.8,0.8v12.4c0,0.5,0.4,0.8,0.8,0.8h6.2c0.5,0,0.8-0.4,0.8-0.8v-12.4
		C959.5,151.9,959.1,151.5,958.7,151.5z M957.8,163.9h-4.5v-10.7h4.5V163.9z"/>
	<path class="st37" d="M956.2,135.2c-0.3-0.3-0.9-0.3-1.2,0l-15.1,15.1c-0.3,0.3-0.3,0.9,0,1.2l2.4,2.4c0.2,0.2,0.4,0.3,0.6,0.3
		c0.2,0,0.5-0.1,0.6-0.3l12.2-12.1l9,9v11.3c-0.8,0.3-1.4,1-1.6,1.8h-16.4v-7.6c0-0.5-0.4-0.8-0.8-0.8c-0.5,0-0.8,0.4-0.8,0.8v2.1
		c-1.4,0.3-2.4,1.4-2.7,2.8c-1.4,0.3-2.5,1.4-2.8,2.7H937c-0.5,0-0.8,0.4-0.8,0.8s0.4,0.8,0.8,0.8h26.7c0.5,0,0.8-0.4,0.8-0.8v-0.3
		c0-0.5,0.4-0.8,0.8-0.8c0.5,0,0.8,0.4,0.8,0.8v0.3c0,0.5,0.4,0.8,0.8,0.8h0.8c0.5,0,0.8-0.4,0.8-0.8s-0.4-0.8-0.8-0.8h-0.1
		c-0.2-0.8-0.8-1.5-1.6-1.8v-9.7l1.4,1.4c0.2,0.2,0.4,0.3,0.6,0.3c0.2,0,0.5-0.1,0.6-0.3l2.4-2.4c0.3-0.3,0.3-0.8,0-1.2L956.2,135.2
		z M944.9,163.9h-3.7c0.3-0.7,1-1.1,1.8-1.1c0.5,0,0.8-0.4,0.8-0.8c0-0.8,0.5-1.5,1.1-1.8V163.9z M968.3,152.1L956.2,140
		c-0.2-0.2-0.4-0.3-0.6-0.3c-0.2,0-0.4,0.1-0.6,0.3l-12.2,12.1l-1.2-1.2l13.9-13.9l13.9,13.9L968.3,152.1z"/>
</g>
<g>
	<rect x="734.3" y="137" class="st29" width="6.2" height="12.4"/>
	<path class="st37" d="M740.5,136.2h-6.2c-0.5,0-0.8,0.4-0.8,0.8v12.4c0,0.5,0.4,0.8,0.8,0.8h6.2c0.5,0,0.8-0.4,0.8-0.8V137
		C741.4,136.6,741,136.2,740.5,136.2z M739.7,148.6h-4.5v-10.7h4.5V148.6z"/>
	<path class="st37" d="M738,119.8c-0.3-0.3-0.9-0.3-1.2,0L721.7,135c-0.3,0.3-0.3,0.9,0,1.2l2.4,2.4c0.2,0.2,0.4,0.3,0.6,0.3
		s0.5-0.1,0.6-0.3l12.2-12.1l9,9v11.3c-0.8,0.3-1.4,1-1.6,1.8h-16.4V141c0-0.5-0.4-0.8-0.8-0.8c-0.5,0-0.8,0.4-0.8,0.8v2.1
		c-1.4,0.3-2.4,1.4-2.7,2.8c-1.4,0.3-2.5,1.4-2.8,2.7h-2.4c-0.5,0-0.8,0.4-0.8,0.8c0,0.5,0.4,0.8,0.8,0.8h26.7
		c0.5,0,0.8-0.4,0.8-0.8v-0.3c0-0.5,0.4-0.8,0.8-0.8s0.8,0.4,0.8,0.8v0.3c0,0.5,0.4,0.8,0.8,0.8h0.8c0.5,0,0.8-0.4,0.8-0.8
		c0-0.5-0.4-0.8-0.8-0.8h-0.1c-0.2-0.8-0.8-1.5-1.6-1.8v-9.7l1.4,1.4c0.2,0.2,0.4,0.3,0.6,0.3s0.5-0.1,0.6-0.3l2.4-2.4
		c0.3-0.3,0.3-0.8,0-1.2L738,119.8z M726.7,148.6H723c0.3-0.7,1-1.1,1.8-1.1c0.5,0,0.8-0.4,0.8-0.8c0-0.8,0.5-1.5,1.1-1.8V148.6z
		 M750.2,136.8L738,124.6c-0.2-0.2-0.4-0.3-0.6-0.3s-0.4,0.1-0.6,0.3l-12.2,12.1l-1.2-1.2l13.9-13.9l13.9,13.9L750.2,136.8z"/>
</g>
<path class="st38" d="M979.9,1021.3c1.7-7.8-2.3-15.6-9.6-18.8l-15-6.6c-8.6-3.8-14.1-12.2-14.1-21.6V823.5c0-11.7-3.5-23.1-10-32.9
	l-21.4-31.8c-8.7-12.9-21.5-22.6-36.3-27.5L686,669.6c-21.7-7.2-39.8-22.4-50.6-42.6l-32.4-60.7c-4.3-8.1-16.1-7.7-19.8,0.8
	l-135.1,308c-0.5,1.1-1,2.2-1.6,3.2l-42.1,71.8c-4.6,7.8-4.3,17.5,0.8,24.9l37.2,55.3c2.9,4.3,6.5,8,10.7,10.9l34.8,24.7
	c6.5,4.6,14.4,6.6,22.2,5.7l87.1-9.9c0.7-0.1,1.3-0.1,2,0l71.7,4.9c21.7,1.5,42.9-6.6,58-22.2l58-59.6c3.6-3.7,9.4-4.4,13.8-1.7
	c4.4,2.8,6.3,8.3,4.5,13.2l-28.4,75.5c-1,2.8-0.9,5.6,0.1,8.1h190.2c0.2-0.6,0.4-1.2,0.6-1.9L979.9,1021.3z"/>
<path class="st38" d="M266.3,1027.4l-15-15.3c-5.1-5.2-1.4-13.9,5.9-13.9h1.8c11.1,0,21.9-3.7,30.6-10.5l40.2-31.3
	c12.2-9.5,22.4-21.3,30.1-34.7l27.3-47.5c0.9-1.6,1.9-3.2,3-4.7l73.6-107c3.6-5.2,6.8-10.7,9.7-16.3l104.4-207.6L507.7,523
	c-11.9-2.6-23-7.9-32.4-15.6l-8.1-6.6c-8.3-6.8-19.7-8.3-29.5-4.1l-0.1,0c-7.9,3.4-16.5,4.4-25,3l-51.2-8.7
	c-23.4-4-47.2-4.7-70.7-2.2l-108.4,11.6c-9.2,1-18.5-1.2-26.3-6.3l-27.7-18.1c-5.7-3.7-13.3-1.1-15.5,5.3l-28.7,84
	c-3.7,10.9-10.7,20.4-19.9,27.3l-31,23C23.6,622.8,12,626.8,0,627v453h270.5l4.5-24.1C276.9,1045.5,273.7,1034.9,266.3,1027.4z"/>
<path class="st39" d="M242,1042.8c-1.4-2.1-2.8-3.9-4.2-5.3l-20.5-15.7c-36-18.3-72.8-0.7-74.4-38.8c-0.1-2.3,1.3-4.4,3.5-5.2
	l54.4-19.1c10.1-3.6,21-4,31.4-1.3c9.5,2.5,21.2,5.9,31.2,9c15.9,4.8,33.2-1,42.8-14.5c2-2.8,3.9-5.8,5.7-8.8l19.7-24.1
	c17.3-21.2,9.8-52.8-15.1-64.2c-17.1-7.8-34.3-17.9-44.7-30.3c-9.7-11.5-0.8-29,14.1-28l37.8,8.3c26.7,5.8,54.6,2.6,79.1-9.5
	c4.2-2.1,7.2-3.9,7.8-5.1l67.1-133.5c12-24-1.7-52.8-27.9-58.6l-9.4-2.1c-5-1.1-26.1-15.8-46.5-30.6
	c-30.6-22.3-70.7-26.9-105.5-12.1c-6.2,2.6-15,2.1-23.9,0.7c-16.3-2.6-31.9,26-31.9,26c-28.7,20.9-69.3,9.7-83.2-23
	c-0.2-0.4-0.3-0.8-0.5-1.2c-6.6-15.7-26.7-20.5-39.7-9.3c-6.7,5.8-37.7,86.4-37.7,86.4c-3.2,9.5-9.3,17.8-17.3,23.7l-26.9,20
	c-8,5.9-17.5,9.3-27.3,9.8V1080h238.9C248.4,1070,249.9,1054.5,242,1042.8z"/>
<polygon class="st35" points="726.7,250.4 694.5,435.7 893.2,469.3 861.4,623.4 854.9,708.3 905.3,713 941,739.2 962.8,773.1 
	980.2,896.2 1047.6,896.2 1080.7,725.5 1281.4,759.6 1367.3,280.6 745.6,233.7 "/>
<path class="st40" d="M599.1,553.3l26.4,55.2c19.7,33.6,32.8,48.3,68.9,61.4l123.1,40c2.2,0.7,4.4,1.3,6.6,1.7l30.5,5.9l6.1-83.7
	L598,543.6L599.1,553.3z"/>
<linearGradient id="SVGID_30_" gradientUnits="userSpaceOnUse" x1="757.6572" y1="585.8568" x2="708.1085" y2="671.6775">
	<stop  offset="0" style="stop-color:#FFFFA9"/>
	<stop  offset="1" style="stop-color:#FFDF92;stop-opacity:0.5"/>
</linearGradient>
<path class="st41" d="M614,566.1l21,43.8c15.6,26.7,26,38.3,54.7,48.7l97.6,31.8c1.7,0.6,3.5,1,5.3,1.4l57.9,11.5l1.8-62.7
	l-239.1-82L614,566.1z"/>
<polygon class="st42" points="1124.2,584.2 1186.1,588.9 1192.9,582.6 1199.5,493.2 1131.6,488 "/>
<polygon class="st42" points="1058.9,579.5 1124.2,584.2 1131.6,488 1065.9,482.8 "/>
<polygon class="st42" points="1000,477.8 1065.9,482.8 1073.3,384.2 1007.6,378.8 "/>
<polygon class="st42" points="1065.9,482.8 1131.6,488 1139.5,389.7 1073.3,384.2 "/>
<polygon class="st42" points="1139.5,389.7 1131.6,488 1199.5,493.2 1206.7,404.9 1197.9,394.4 "/>
<polygon class="st42" points="908.8,555.6 912.6,567.8 991.9,573.9 1000,477.8 926.2,471.3 "/>
<polygon class="st42" points="991.9,573.9 1058.9,579.5 1065.9,482.8 1000.1,477.8 "/>
<polygon class="st42" points="945.9,378.8 926.2,471.3 1000,477.8 1007.6,378.8 949.9,374.3 "/>
<polygon class="st42" points="898.5,601.5 889.4,648 1005.9,658.4 1009.3,608 902.8,599.5 "/>
<polygon class="st42" points="889.4,648 874.7,709.5 905.3,713.3 941.2,738.8 1023.8,684.5 1005.9,658.4 "/>
<polygon class="st42" points="941.2,738.8 963.3,773.5 965.8,793.8 1043.1,798.7 1056.1,731.7 1023.8,684.5 "/>
<polygon class="st42" points="980.7,896.4 1047.6,895.7 1065.8,800.2 965.8,793.8 "/>
<polygon class="st42" points="1238.6,407.2 1235.1,460.5 1320.7,464.8 1335.5,405.5 1243.7,398.1 "/>
<polygon class="st42" points="1228.9,527.9 1308.1,532.7 1320.7,464.8 1235.1,460.5 "/>
<polygon class="st42" points="1224,598.5 1299.7,604.1 1308.1,532.7 1228.9,527.9 "/>
<polygon class="st42" points="1217.9,671.9 1291,677.4 1299.7,604.1 1224,598.5 "/>
<polygon class="st42" points="1221.8,624.1 1198,623 1187.7,742.9 1282.1,758.9 1291,677.4 1217.9,671.9 "/>
<polygon class="st42" points="1116,731.1 1187.7,742.9 1198,623 1126.1,617.5 "/>
<polygon class="st42" points="1030.1,652.9 1080.4,725.1 1116,731.1 1126.1,617.5 1032.7,609.8 "/>
<polygon class="st42" points="693.9,435.9 771.9,449.1 777.5,359.7 706.8,363 "/>
<polygon class="st42" points="771.9,449.1 833.5,458.8 840.1,365.3 777.5,359.7 "/>
<polygon class="st42" points="840.1,365.3 833.5,458.8 893.9,469.1 913.6,378 910.1,370.5 "/>
<polygon class="st43" points="727.1,250.7 711.5,340.4 777.9,327.1 850.4,332.9 857.3,242 745.9,233.2 "/>
<polygon class="st43" points="850.4,332.9 1345.1,374.3 1358.7,280 857.3,242 "/>
<g>
	<path class="st44" d="M796.8,669.2c-1.6-1.6-4.3-1.6-5.9,0l-2.7,2.7c-0.8,0.8-1.8,1.2-2.9,1.2v1h17.3v-1c-1.1,0-2.2-0.4-2.9-1.2
		L796.8,669.2z"/>
	<path class="st45" d="M803.2,672.2h-4.5c-0.2,0-0.5-0.1-0.6-0.2l-2-2c-0.3-0.3-0.7-0.6-1.1-0.7c-0.6-0.2-1.1,0-1.4,0.6
		c-0.2,0.6,0.1,1.1,0.6,1.4c0.1,0,0.3,0.1,0.4,0.2l2,2c0.6,0.5,1.3,0.8,2,0.8h4.5c0.6,0,1.1-0.4,1.1-1
		C804.2,672.6,803.8,672.2,803.2,672.2z"/>
	<path class="st46" d="M787.5,640.1c-7.5,5-10.4,13.5-7.4,21.5c0.1,0.4,0.5,0.7,0.9,0.7c0,0,0.1,0,0.1,0c0.3,0,0.7-0.2,0.9-0.5
		l1.1-1.8c0.4-0.7,1.1-1.2,1.8-1.5c0.5-0.2,0.8-0.8,0.6-1.4c-0.2-0.5-0.8-0.8-1.4-0.6c-1.1,0.5-2,1.2-2.7,2.2
		c-1.5-6.5,1.2-12.9,7.3-17c0.5-0.3,0.6-1,0.3-1.5C788.6,639.9,788,639.8,787.5,640.1z"/>
	<path class="st46" d="M795.6,642.5c-0.2-0.6-0.8-0.8-1.3-0.6c-0.6,0.2-0.8,0.8-0.6,1.3l3.6,10l-0.5-0.1c-2.4-0.7-5,0.3-6.5,2.4
		l-0.2,0.3c-0.9-3.2-1.3-6.3-1-9.1c0-0.6-0.4-1.1-0.9-1.1c-0.6,0-1.1,0.4-1.1,0.9c-0.4,3.6,0.2,7.7,1.7,11.9
		c0.1,0.4,0.5,0.7,0.8,0.7c0,0,0.1,0,0.1,0c0.3,0,0.7-0.2,0.9-0.5l1.4-2c0.9-1.4,2.6-2,4.2-1.5l2.2,0.6c0.1,0.1,0.3,0.1,0.6,0.1
		c0.5-0.1,0.8-0.5,0.9-1c0-0.1,0-0.3-0.1-0.4C799.7,654,795.6,642.5,795.6,642.5z"/>
	<path class="st46" d="M807.7,637.3c-4.3-1.7-9.2-1.7-14-0.2l-0.2-0.7c-0.2-0.6-0.8-0.8-1.3-0.6c-0.6,0.2-0.8,0.8-0.6,1.3l0.6,1.6
		c0.1,0.2,0.3,0.5,0.6,0.6c0.2,0.1,0.5,0.1,0.8,0c4.7-1.7,9.5-1.8,13.6-0.2c3.5,1.4,6.3,3.9,8,7.3c-2.4-0.7-5,0.2-6.5,2.3l-0.2,0.3
		c-1.5-3.4-3.4-6.3-5.6-8.4c-0.4-0.4-1.1-0.4-1.5,0c-0.4,0.4-0.4,1.1,0,1.5c2,1.9,3.7,4.5,5.1,7.6l-0.4-0.1
		c-1.2-0.3-2.5-0.3-3.6,0.2c-0.6,0.2-0.8,0.8-0.6,1.4c0.2,0.6,0.8,0.8,1.4,0.6c0.8-0.3,1.6-0.3,2.4-0.1l2.4,0.7c0.1,0,0.2,0,0.3,0
		c0.3,0,0.7-0.2,0.9-0.5l1.4-1.9c1-1.4,2.7-2,4.3-1.5l2,0.6c0.4,0.1,0.8,0,1.1-0.3c0.3-0.3,0.3-0.7,0.2-1.1
		C816,642.9,812.4,639.2,807.7,637.3z"/>
	<path class="st46" d="M814.7,672.1h-8.3l-4.9-13.5c-0.2-0.6-0.8-0.8-1.3-0.6c-0.6,0.2-0.8,0.8-0.6,1.3l4.6,12.8h-1.7
		c-0.8,0-1.6-0.3-2.2-0.9l-2.7-2.7c-2-2-5.3-2-7.4,0l-2.7,2.7c-0.6,0.6-1.4,0.9-2.2,0.9h-3.5c-0.6,0-1,0.5-1,1s0.5,1,1,1h3.5
		c1.4,0,2.7-0.6,3.7-1.5l2.7-2.7c1.2-1.2,3.2-1.2,4.4,0l2.7,2.7c1,1,2.3,1.5,3.7,1.5h12.1c0.6,0,1-0.5,1-1S815.2,672.1,814.7,672.1z
		"/>
</g>
<path class="st39" d="M627.3,723.5c-71.7,0-13.1,75.2-147,199c-36.7,33.9,151.5,142.5,210.5,67.9C735.2,934.2,873.5,911,873.5,861
	C873.5,811.1,698.9,723.5,627.3,723.5z"/>
<pattern  id="SVGID_31_" xlink:href="#–Ф–µ—А–µ–≤—М—П" patternTransform="matrix(0.5031 0 0 0.5031 -3369.5142 -3374.2571)">
</pattern>
<path class="st47" d="M374.4,973.1c-16,0-40.3,20.8-40.3,42.9c0,22.1,51,55.1,67,56c58.9,3.1,34.6-30.7,17.7-56
	C406.7,997.6,390.5,973.1,374.4,973.1z"/>
<g>
	<path class="st46" d="M789.8,271.8h-6c-0.5,0-1,0.4-1,1v6.5c0,0.5,0.4,1,1,1h6c0.5,0,1-0.4,1-1v-6.6
		C790.7,272.2,790.3,271.8,789.8,271.8z M788.8,278.3h-4.1v-4.6h4.1V278.3z"/>
	<path class="st46" d="M780.8,271.8h-6c-0.5,0-1,0.4-1,1v6.5c0,0.5,0.4,1,1,1h6c0.5,0,1-0.4,1-1v-6.6
		C781.8,272.2,781.4,271.8,780.8,271.8z M779.9,278.3h-4.1v-4.6h4.1V278.3z"/>
	<path class="st46" d="M802.6,261.7h-12.1c-0.4-2.3-2.4-4-4.8-4s-4.4,1.7-4.8,4h-9.9c-0.5,0-1,0.4-1,1v4.9c0,0.5,0.4,1,1,1h0.5v23.9
		h-1.9c-0.5,0-1,0.4-1,1s0.4,1,1,1h2.9h4.5h14.9h1.3h3h0.1h4.8c0.5,0,1-0.4,1-1v-24.9h0.5c0.5,0,1-0.4,1-1v-4.9
		C803.5,262.1,803.1,261.7,802.6,261.7z M783.4,292.4L783.4,292.4h-5.6v-8.6h5.6V292.4z M790.9,292.4h-5.6v-8.6h5.6V292.4z
		 M795.2,292.4h-2.1h-0.3v-9.5c0-0.5-0.4-1-1-1h-14.9c-0.5,0-1,0.4-1,1v9.5h-2.6v-23.9h21.9V292.4z M797.5,266.6h-25.6v-3h9.8
		c0.5,0,1-0.4,1-1c0-1.6,1.4-3,3-3s3,1.4,3,3c0,0.5,0.4,1,1,1h7.9V266.6z"/>
</g>
<g>
	<rect x="1534" y="423.9" class="st29" width="6.2" height="12.4"/>
	<path class="st37" d="M1540.2,423.1h-6.2c-0.5,0-0.8,0.4-0.8,0.8v12.4c0,0.5,0.4,0.8,0.8,0.8h6.2c0.5,0,0.8-0.4,0.8-0.8v-12.4
		C1541.1,423.5,1540.7,423.1,1540.2,423.1z M1539.4,435.5h-4.5v-10.7h4.5V435.5z"/>
	<path class="st37" d="M1537.7,406.7c-0.3-0.3-0.9-0.3-1.2,0l-15.1,15.1c-0.3,0.3-0.3,0.9,0,1.2l2.4,2.4c0.2,0.2,0.4,0.3,0.6,0.3
		s0.5-0.1,0.6-0.3l12.2-12.1l9,9v11.3c-0.8,0.3-1.4,1-1.6,1.8h-16.4v-7.6c0-0.5-0.4-0.8-0.8-0.8c-0.5,0-0.8,0.4-0.8,0.8v2.1
		c-1.4,0.3-2.4,1.4-2.7,2.8c-1.4,0.3-2.5,1.4-2.8,2.7h-2.4c-0.5,0-0.8,0.4-0.8,0.8s0.4,0.8,0.8,0.8h26.7c0.5,0,0.8-0.4,0.8-0.8V436
		c0-0.5,0.4-0.8,0.8-0.8c0.5,0,0.8,0.4,0.8,0.8v0.3c0,0.5,0.4,0.8,0.8,0.8h0.8c0.5,0,0.8-0.4,0.8-0.8s-0.4-0.8-0.8-0.8h-0.1
		c-0.2-0.8-0.8-1.5-1.6-1.8V424l1.4,1.4c0.2,0.2,0.4,0.3,0.6,0.3c0.2,0,0.5-0.1,0.6-0.3l2.4-2.4c0.3-0.3,0.3-0.8,0-1.2L1537.7,406.7
		z M1526.4,435.5h-3.7c0.3-0.7,1-1.1,1.8-1.1c0.5,0,0.8-0.4,0.8-0.8c0-0.8,0.5-1.5,1.1-1.8V435.5z M1549.9,423.7l-12.2-12.1
		c-0.2-0.2-0.4-0.3-0.6-0.3c-0.2,0-0.4,0.1-0.6,0.3l-12.2,12.1l-1.2-1.2l13.9-13.9l13.9,13.9L1549.9,423.7z"/>
</g>
<g>
	<path class="st46" d="M957.9,278.5l-21.5,0.1l0-0.7l0.2,0c0.3,0,0.5-0.2,0.5-0.5l0-2c0-0.3-0.2-0.5-0.5-0.5l-3.6,0
		c-0.3,0-0.5,0.2-0.5,0.5l0,2c0,0.3,0.2,0.5,0.5,0.5l0.2,0l0,0.7l-8.9,0.1c-0.2,0-0.4,0.2-0.5,0.4l-1.5,10.3c0,0.1,0,0.3,0.1,0.4
		s0.2,0.2,0.4,0.2l1.5,0l0.1,10.5c0,0.3,0.2,0.5,0.5,0.5l32.6-0.2c0.3,0,0.5-0.2,0.5-0.5l-0.1-10.5l1.5,0c0.1,0,0.3-0.1,0.4-0.2
		c0.1-0.1,0.1-0.3,0.1-0.4l-1.6-10.3C958.4,278.6,958.2,278.5,957.9,278.5z M936.1,275.9l0,1l-2.6,0l0-1L936.1,275.9z M935.4,281
		l-1.1,0l0-3l1.1,0L935.4,281z M925.5,300l-0.1-10l8.1-0.1l-0.5,0.7c-0.2,0.2-0.1,0.5,0.1,0.7c0.2,0.2,0.5,0.1,0.7-0.1l0.4-0.5
		l0.1,9.3L925.5,300z M935.2,299.9l-0.1-10.5l6-7.4l6.1,7.3l0.1,10.5L935.2,299.9z M948.3,299.8l-0.1-9.3l0.4,0.5
		c0.1,0.1,0.2,0.2,0.4,0.2c0.1,0,0.2,0,0.3-0.1c0.2-0.2,0.2-0.5,0.1-0.7l-0.5-0.6l8.1-0.1l0.1,10L948.3,299.8z M957.5,288.7
		l-9.4,0.1l-6.6-7.8c-0.1-0.1-0.2-0.2-0.4-0.2c-0.1,0-0.3,0.1-0.4,0.2l-6.5,7.9l-9.4,0.1l-1.5,0l1.3-9.3l8.5-0.1l0,1.9
		c0,0.3,0.2,0.5,0.5,0.5l2.1,0c0.3,0,0.5-0.2,0.5-0.5l0-1.9l21.1-0.1l1.4,9.3L957.5,288.7z"/>
	<path class="st46" d="M932.2,292.6l-4.7,0c-0.3,0-0.5,0.2-0.5,0.5l0,3.1c0,0.3,0.2,0.5,0.5,0.5l4.7,0c0.3,0,0.5-0.2,0.5-0.5l0-3.1
		C932.7,292.8,932.5,292.6,932.2,292.6z M928,293.6l1.4,0l0,0.6l-1.4,0L928,293.6z M928,295.7l0-0.6l1.4,0l0,0.6L928,295.7z
		 M930.3,293.5l1.4,0l0,0.6l-1.4,0L930.3,293.5z M930.4,295.7l0-0.6l1.4,0l0,0.6L930.4,295.7z"/>
	<path class="st46" d="M955,292.4l-4.7,0c-0.3,0-0.5,0.2-0.5,0.5l0,3.1c0,0.3,0.2,0.5,0.5,0.5l4.7,0c0.3,0,0.5-0.2,0.5-0.5l0-3.1
		C955.5,292.6,955.3,292.4,955,292.4z M950.8,293.4l1.4,0l0,0.6l-1.4,0L950.8,293.4z M950.8,295.5l0-0.6l1.4,0l0,0.6L950.8,295.5z
		 M953.1,293.4l1.4,0l0,0.6l-1.4,0L953.1,293.4z M953.1,295.5l0-0.6l1.4,0l0,0.6L953.1,295.5z"/>
	<path class="st46" d="M940.1,292.3l-3.6,0c-0.3,0-0.5,0.2-0.5,0.5l0,3.1c0,0.3,0.2,0.5,0.5,0.5l3.6,0c0.3,0,0.5-0.2,0.5-0.5l0-3.1
		C940.6,292.6,940.4,292.3,940.1,292.3z M937,293.3l0.8,0l0,0.6l-0.8,0L937,293.3z M937,295.5l0-0.6l0,0l0.8,0l0,0.6L937,295.5z
		 M938.8,293.3l0.8,0l0,0.6l-0.8,0L938.8,293.3z M938.8,295.5l0-0.6l0.8,0l0,0.6L938.8,295.5z"/>
	<path class="st46" d="M945.9,292.3l-3.6,0c-0.3,0-0.5,0.2-0.5,0.5l0,3.1c0,0.3,0.2,0.5,0.5,0.5l3.6,0c0.3,0,0.5-0.2,0.5-0.5l0-3.1
		C946.4,292.5,946.1,292.3,945.9,292.3z M942.7,293.3l0.8,0l0,0.6l-0.8,0L942.7,293.3z M942.8,295.4l0-0.6l0.8,0l0,0.6L942.8,295.4z
		 M944.6,293.3l0.8,0l0,0.6l-0.8,0L944.6,293.3z M944.6,295.4l0-0.6l0.8,0l0,0.6L944.6,295.4z"/>
	<path class="st46" d="M930.5,281.2l-1.8,0c-0.2,0-0.5,0.2-0.5,0.4l-0.4,3.5c0,0.1,0,0.3,0.1,0.4c0.1,0.1,0.2,0.2,0.4,0.2l2.3,0
		c0.3,0,0.5-0.2,0.5-0.5l0-3.5C931,281.4,930.8,281.2,930.5,281.2z M928.8,284.7l0.3-2.5l0.9,0l0,2.5L928.8,284.7z"/>
	<path class="st46" d="M953.6,281l-1.8,0c-0.3,0-0.5,0.2-0.5,0.5l0,3.5c0,0.3,0.2,0.5,0.5,0.5l2.3,0c0.1,0,0.3-0.1,0.4-0.2
		c0.1-0.1,0.1-0.2,0.1-0.4l-0.5-3.5C954.1,281.2,953.9,281,953.6,281z M952.3,284.6l0-2.5l0.9,0l0.3,2.5L952.3,284.6z"/>
	<path class="st46" d="M941.2,285.5c-1,0-1.8,0.8-1.8,1.8c0,1,0.8,1.8,1.8,1.8c1,0,1.8-0.8,1.8-1.8
		C943,286.3,942.2,285.5,941.2,285.5z M941.2,288.1c-0.5,0-0.8-0.4-0.8-0.8c0-0.5,0.4-0.8,0.8-0.8c0.5,0,0.8,0.4,0.8,0.8
		C942,287.7,941.7,288.1,941.2,288.1z"/>
</g>
<g>
	<path class="st46" d="M1120.9,289.3l-21.5,0.1l0-0.7l0.2,0c0.3,0,0.5-0.2,0.5-0.5l0-2c0-0.3-0.2-0.5-0.5-0.5l-3.6,0
		c-0.3,0-0.5,0.2-0.5,0.5l0,2c0,0.3,0.2,0.5,0.5,0.5l0.2,0l0,0.7l-8.9,0.1c-0.2,0-0.4,0.2-0.5,0.4l-1.5,10.3c0,0.1,0,0.3,0.1,0.4
		c0.1,0.1,0.2,0.2,0.4,0.2l1.5,0l0.1,10.5c0,0.3,0.2,0.5,0.5,0.5l32.6-0.2c0.3,0,0.5-0.2,0.5-0.5l-0.1-10.5l1.5,0
		c0.1,0,0.3-0.1,0.4-0.2c0.1-0.1,0.1-0.3,0.1-0.4l-1.6-10.3C1121.3,289.4,1121.1,289.3,1120.9,289.3z M1099.1,286.7l0,1l-2.6,0l0-1
		L1099.1,286.7z M1098.4,291.8l-1.1,0l0-3l1.1,0L1098.4,291.8z M1088.4,310.8l-0.1-10l8.1-0.1l-0.5,0.7c-0.2,0.2-0.1,0.5,0.1,0.7
		c0.2,0.2,0.5,0.1,0.7-0.1l0.4-0.5l0.1,9.3L1088.4,310.8z M1098.2,310.7l-0.1-10.5l6-7.4l6.1,7.3l0.1,10.5L1098.2,310.7z
		 M1111.3,310.6l-0.1-9.3l0.4,0.5c0.1,0.1,0.2,0.2,0.4,0.2c0.1,0,0.2,0,0.3-0.1c0.2-0.2,0.2-0.5,0.1-0.7l-0.5-0.6l8.1-0.1l0.1,10
		L1111.3,310.6z M1120.4,299.5l-9.4,0.1l-6.6-7.8c-0.1-0.1-0.2-0.2-0.4-0.2c-0.1,0-0.3,0.1-0.4,0.2l-6.5,7.9l-9.4,0.1l-1.5,0
		l1.3-9.3l8.5-0.1l0,1.9c0,0.3,0.2,0.5,0.5,0.5l2.1,0c0.3,0,0.5-0.2,0.5-0.5l0-1.9l21.1-0.1l1.4,9.3L1120.4,299.5z"/>
	<path class="st46" d="M1095.2,303.3l-4.7,0c-0.3,0-0.5,0.2-0.5,0.5l0,3.1c0,0.3,0.2,0.5,0.5,0.5l4.7,0c0.3,0,0.5-0.2,0.5-0.5l0-3.1
		C1095.6,303.6,1095.4,303.3,1095.2,303.3z M1090.9,304.4l1.4,0l0,0.6l-1.4,0L1090.9,304.4z M1090.9,306.5l0-0.6l1.4,0l0,0.6
		L1090.9,306.5z M1093.3,304.3l1.4,0l0,0.6l-1.4,0L1093.3,304.3z M1093.3,306.5l0-0.6l1.4,0l0,0.6L1093.3,306.5z"/>
	<path class="st46" d="M1117.9,303.2l-4.7,0c-0.3,0-0.5,0.2-0.5,0.5l0,3.1c0,0.3,0.2,0.5,0.5,0.5l4.7,0c0.3,0,0.5-0.2,0.5-0.5l0-3.1
		C1118.4,303.4,1118.2,303.2,1117.9,303.2z M1113.7,304.2l1.4,0l0,0.6l-1.4,0L1113.7,304.2z M1113.7,306.3l0-0.6l1.4,0l0,0.6
		L1113.7,306.3z M1116.1,304.2l1.4,0l0,0.6l-1.4,0L1116.1,304.2z M1116.1,306.3l0-0.6l1.4,0l0,0.6L1116.1,306.3z"/>
	<path class="st46" d="M1103.1,303.1l-3.6,0c-0.3,0-0.5,0.2-0.5,0.5l0,3.1c0,0.3,0.2,0.5,0.5,0.5l3.6,0c0.3,0,0.5-0.2,0.5-0.5l0-3.1
		C1103.6,303.3,1103.3,303.1,1103.1,303.1z M1100,304.1l0.8,0l0,0.6l-0.8,0L1100,304.1z M1100,306.3l0-0.6l0,0l0.8,0l0,0.6
		L1100,306.3z M1101.8,304.1l0.8,0l0,0.6l-0.8,0L1101.8,304.1z M1101.8,306.2l0-0.6l0.8,0l0,0.6L1101.8,306.2z"/>
	<path class="st46" d="M1108.8,303.1l-3.6,0c-0.3,0-0.5,0.2-0.5,0.5l0,3.1c0,0.3,0.2,0.5,0.5,0.5l3.6,0c0.3,0,0.5-0.2,0.5-0.5l0-3.1
		C1109.3,303.3,1109.1,303.1,1108.8,303.1z M1105.7,304.1l0.8,0l0,0.6l-0.8,0L1105.7,304.1z M1105.7,306.2l0-0.6l0.8,0l0,0.6
		L1105.7,306.2z M1107.5,304.1l0.8,0l0,0.6l-0.8,0L1107.5,304.1z M1107.5,306.2l0-0.6l0.8,0l0,0.6L1107.5,306.2z"/>
	<path class="st46" d="M1093.4,292l-1.8,0c-0.2,0-0.5,0.2-0.5,0.4l-0.4,3.5c0,0.1,0,0.3,0.1,0.4s0.2,0.2,0.4,0.2l2.3,0
		c0.3,0,0.5-0.2,0.5-0.5l0-3.5C1093.9,292.2,1093.7,292,1093.4,292z M1091.8,295.5l0.3-2.5l0.9,0l0,2.5L1091.8,295.5z"/>
	<path class="st46" d="M1116.6,291.8l-1.8,0c-0.3,0-0.5,0.2-0.5,0.5l0,3.5c0,0.3,0.2,0.5,0.5,0.5l2.3,0c0.1,0,0.3-0.1,0.4-0.2
		s0.1-0.2,0.1-0.4l-0.5-3.5C1117,292,1116.8,291.8,1116.6,291.8z M1115.3,295.4l0-2.5l0.9,0l0.3,2.5L1115.3,295.4z"/>
	<path class="st46" d="M1104.1,296.2c-1,0-1.8,0.8-1.8,1.8s0.8,1.8,1.8,1.8c1,0,1.8-0.8,1.8-1.8
		C1105.9,297,1105.1,296.2,1104.1,296.2z M1104.1,298.9c-0.5,0-0.8-0.4-0.8-0.8c0-0.5,0.4-0.8,0.8-0.8c0.5,0,0.8,0.4,0.8,0.8
		C1105,298.5,1104.6,298.9,1104.1,298.9z"/>
</g>
<g>
	<path class="st46" d="M1285.4,299.1l-21.5,0.1l0-0.7l0.2,0c0.3,0,0.5-0.2,0.5-0.5l0-2c0-0.3-0.2-0.5-0.5-0.5l-3.6,0
		c-0.3,0-0.5,0.2-0.5,0.5l0,2c0,0.3,0.2,0.5,0.5,0.5l0.2,0l0,0.7l-8.9,0.1c-0.2,0-0.4,0.2-0.5,0.4l-1.5,10.3c0,0.1,0,0.3,0.1,0.4
		s0.2,0.2,0.4,0.2l1.5,0l0.1,10.5c0,0.3,0.2,0.5,0.5,0.5l32.6-0.2c0.3,0,0.5-0.2,0.5-0.5l-0.1-10.5l1.5,0c0.1,0,0.3-0.1,0.4-0.2
		s0.1-0.3,0.1-0.4l-1.6-10.3C1285.9,299.3,1285.7,299.1,1285.4,299.1z M1263.6,296.6l0,1l-2.6,0l0-1L1263.6,296.6z M1262.9,301.7
		l-1.1,0l0-3l1.1,0L1262.9,301.7z M1253,320.6l-0.1-10l8.1-0.1l-0.5,0.7c-0.2,0.2-0.1,0.5,0.1,0.7c0.2,0.2,0.5,0.1,0.7-0.1l0.4-0.5
		l0.1,9.3L1253,320.6z M1262.7,320.6l-0.1-10.5l6-7.4l6.1,7.3l0.1,10.5L1262.7,320.6z M1275.8,320.5l-0.1-9.3l0.4,0.5
		c0.1,0.1,0.2,0.2,0.4,0.2c0.1,0,0.2,0,0.3-0.1c0.2-0.2,0.2-0.5,0.1-0.7l-0.5-0.6l8.1-0.1l0.1,10L1275.8,320.5z M1285,309.4
		l-9.4,0.1l-6.6-7.8c-0.1-0.1-0.2-0.2-0.4-0.2c-0.1,0-0.3,0.1-0.4,0.2l-6.5,7.9l-9.4,0.1l-1.5,0l1.3-9.3l8.5-0.1l0,1.9
		c0,0.3,0.2,0.5,0.5,0.5l2.1,0c0.3,0,0.5-0.2,0.5-0.5l0-1.9l21.1-0.1l1.4,9.3L1285,309.4z"/>
	<path class="st46" d="M1259.7,313.2l-4.7,0c-0.3,0-0.5,0.2-0.5,0.5l0,3.1c0,0.3,0.2,0.5,0.5,0.5l4.7,0c0.3,0,0.5-0.2,0.5-0.5l0-3.1
		C1260.2,313.4,1260,313.2,1259.7,313.2z M1255.5,314.2l1.4,0l0,0.6l-1.4,0L1255.5,314.2z M1255.5,316.4l0-0.6l1.4,0l0,0.6
		L1255.5,316.4z M1257.8,314.2l1.4,0l0,0.6l-1.4,0L1257.8,314.2z M1257.8,316.3l0-0.6l1.4,0l0,0.6L1257.8,316.3z"/>
	<path class="st46" d="M1282.5,313.1l-4.7,0c-0.3,0-0.5,0.2-0.5,0.5l0,3.1c0,0.3,0.2,0.5,0.5,0.5l4.7,0c0.3,0,0.5-0.2,0.5-0.5l0-3.1
		C1283,313.3,1282.8,313.1,1282.5,313.1z M1278.2,314.1l1.4,0l0,0.6l-1.4,0L1278.2,314.1z M1278.3,316.2l0-0.6l1.4,0l0,0.6
		L1278.3,316.2z M1280.6,314.1l1.4,0l0,0.6l-1.4,0L1280.6,314.1z M1280.6,316.2l0-0.6l1.4,0l0,0.6L1280.6,316.2z"/>
	<path class="st46" d="M1267.6,313l-3.6,0c-0.3,0-0.5,0.2-0.5,0.5l0,3.1c0,0.3,0.2,0.5,0.5,0.5l3.6,0c0.3,0,0.5-0.2,0.5-0.5l0-3.1
		C1268.1,313.2,1267.9,313,1267.6,313z M1264.5,314l0.8,0l0,0.6l-0.8,0L1264.5,314z M1264.5,316.1l0-0.6l0,0l0.8,0l0,0.6
		L1264.5,316.1z M1266.3,314l0.8,0l0,0.6l-0.8,0L1266.3,314z M1266.3,316.1l0-0.6l0.8,0l0,0.6L1266.3,316.1z"/>
	<path class="st46" d="M1273.4,313l-3.6,0c-0.3,0-0.5,0.2-0.5,0.5l0,3.1c0,0.3,0.2,0.5,0.5,0.5l3.6,0c0.3,0,0.5-0.2,0.5-0.5l0-3.1
		C1273.8,313.2,1273.6,313,1273.4,313z M1270.2,314l0.8,0l0,0.6l-0.8,0L1270.2,314z M1270.2,316.1l0-0.6l0.8,0l0,0.6L1270.2,316.1z
		 M1272,314l0.8,0l0,0.6l-0.8,0L1272,314z M1272.1,316.1l0-0.6l0.8,0l0,0.6L1272.1,316.1z"/>
	<path class="st46" d="M1258,301.9l-1.8,0c-0.2,0-0.5,0.2-0.5,0.4l-0.4,3.5c0,0.1,0,0.3,0.1,0.4c0.1,0.1,0.2,0.2,0.4,0.2l2.3,0
		c0.3,0,0.5-0.2,0.5-0.5l0-3.5C1258.5,302.1,1258.3,301.9,1258,301.9z M1256.3,305.4l0.3-2.5l0.9,0l0,2.5L1256.3,305.4z"/>
	<path class="st46" d="M1281.1,301.7l-1.8,0c-0.3,0-0.5,0.2-0.5,0.5l0,3.5c0,0.3,0.2,0.5,0.5,0.5l2.3,0c0.1,0,0.3-0.1,0.4-0.2
		c0.1-0.1,0.1-0.2,0.1-0.4l-0.5-3.5C1281.6,301.9,1281.4,301.7,1281.1,301.7z M1279.8,305.2l0-2.5l0.9,0l0.3,2.5L1279.8,305.2z"/>
	<path class="st46" d="M1268.7,306.1c-1,0-1.8,0.8-1.8,1.8c0,1,0.8,1.8,1.8,1.8c1,0,1.8-0.8,1.8-1.8S1269.7,306.1,1268.7,306.1z
		 M1268.7,308.7c-0.5,0-0.8-0.4-0.8-0.8c0-0.5,0.4-0.8,0.8-0.8c0.5,0,0.8,0.4,0.8,0.8C1269.5,308.4,1269.1,308.7,1268.7,308.7z"/>
</g>
<path class="st33" d="M1733,276.3c-9.7,2.6-19.2,6.1-28.3,10.4l-56.1,26.5l-9.8,131.7c-0.5,7-0.4,14,0.5,21l7.4,62h225.2V256.3
	l-73,2.3L1733,276.3z"/>
<g>
	<rect x="1759.4" y="383.5" class="st29" width="6.2" height="12.4"/>
	<path class="st37" d="M1765.6,382.6h-6.2c-0.5,0-0.8,0.4-0.8,0.8v12.4c0,0.5,0.4,0.8,0.8,0.8h6.2c0.5,0,0.8-0.4,0.8-0.8v-12.4
		C1766.4,383,1766.1,382.6,1765.6,382.6z M1764.8,395h-4.5v-10.7h4.5V395z"/>
	<path class="st37" d="M1763.1,366.3c-0.3-0.3-0.9-0.3-1.2,0l-15.1,15.1c-0.3,0.3-0.3,0.9,0,1.2l2.4,2.4c0.2,0.2,0.4,0.3,0.6,0.3
		s0.5-0.1,0.6-0.3l12.2-12.1l9,9v11.3c-0.8,0.3-1.4,1-1.6,1.8h-16.4v-7.6c0-0.5-0.4-0.8-0.8-0.8s-0.8,0.4-0.8,0.8v2.1
		c-1.4,0.3-2.4,1.4-2.7,2.8c-1.4,0.3-2.5,1.4-2.8,2.7h-2.4c-0.5,0-0.8,0.4-0.8,0.8s0.4,0.8,0.8,0.8h26.7c0.5,0,0.8-0.4,0.8-0.8v-0.3
		c0-0.5,0.4-0.8,0.8-0.8c0.5,0,0.8,0.4,0.8,0.8v0.3c0,0.5,0.4,0.8,0.8,0.8h0.8c0.5,0,0.8-0.4,0.8-0.8s-0.4-0.8-0.8-0.8h-0.1
		c-0.2-0.8-0.8-1.5-1.6-1.8v-9.7l1.4,1.4c0.2,0.2,0.4,0.3,0.6,0.3s0.5-0.1,0.6-0.3l2.4-2.4c0.3-0.3,0.3-0.8,0-1.2L1763.1,366.3z
		 M1751.8,395h-3.7c0.3-0.7,1-1.1,1.8-1.1c0.5,0,0.8-0.4,0.8-0.8c0-0.8,0.5-1.5,1.1-1.8V395z M1775.3,383.2l-12.2-12.1
		c-0.2-0.2-0.4-0.3-0.6-0.3s-0.4,0.1-0.6,0.3l-12.2,12.1l-1.2-1.2l13.9-13.9l13.9,13.9L1775.3,383.2z"/>
</g>
<path class="st33" d="M1535.9,532.4c-12-2.3-24.4-2.9-36.5-1.5l-72.3,7.9l-23.5,163.7l40.4-7.8c12.5-2.4,25.3-3.2,38.1-2.4
	l155.8,10.2V538.7l-58.6-3.6L1535.9,532.4z"/>
<g>
	<rect x="1521.3" y="606.2" class="st29" width="6.2" height="12.4"/>
	<path class="st37" d="M1527.5,605.3h-6.2c-0.5,0-0.8,0.4-0.8,0.8v12.4c0,0.5,0.4,0.8,0.8,0.8h6.2c0.5,0,0.8-0.4,0.8-0.8v-12.4
		C1528.4,605.7,1528,605.3,1527.5,605.3z M1526.7,617.7h-4.5V607h4.5V617.7z"/>
	<path class="st37" d="M1525,589c-0.3-0.3-0.9-0.3-1.2,0l-15.1,15.1c-0.3,0.3-0.3,0.9,0,1.2l2.4,2.4c0.2,0.2,0.4,0.3,0.6,0.3
		s0.5-0.1,0.6-0.3l12.2-12.1l9,9v11.3c-0.8,0.3-1.4,1-1.6,1.8h-16.4v-7.6c0-0.5-0.4-0.8-0.8-0.8s-0.8,0.4-0.8,0.8v2.1
		c-1.4,0.3-2.4,1.4-2.7,2.8c-1.4,0.3-2.5,1.4-2.8,2.7h-2.4c-0.5,0-0.8,0.4-0.8,0.8s0.4,0.8,0.8,0.8h26.7c0.5,0,0.8-0.4,0.8-0.8v-0.3
		c0-0.5,0.4-0.8,0.8-0.8c0.5,0,0.8,0.4,0.8,0.8v0.3c0,0.5,0.4,0.8,0.8,0.8h0.8c0.5,0,0.8-0.4,0.8-0.8s-0.4-0.8-0.8-0.8h-0.1
		c-0.2-0.8-0.8-1.5-1.6-1.8v-9.7l1.4,1.4c0.2,0.2,0.4,0.3,0.6,0.3s0.5-0.1,0.6-0.3l2.4-2.4c0.3-0.3,0.3-0.8,0-1.2L1525,589z
		 M1513.7,617.7h-3.7c0.3-0.7,1-1.1,1.8-1.1c0.5,0,0.8-0.4,0.8-0.8c0-0.8,0.5-1.5,1.1-1.8V617.7z M1537.2,605.9l-12.2-12.1
		c-0.2-0.2-0.4-0.3-0.6-0.3c-0.2,0-0.4,0.1-0.6,0.3l-12.2,12.1l-1.2-1.2l13.9-13.9l13.9,13.9L1537.2,605.9z"/>
</g>
<path class="st33" d="M1772.6,533.5l-125.2,5.7v163.1h66.5c3.1,0,6.2,0.2,9.2,0.7l80.6,12.9c11.2,1.8,22.7,0.9,33.5-2.5l34.6-11.1
	V539.3l-76-5.4C1788.1,533.3,1780.3,533.2,1772.6,533.5z"/>
<g>
	<rect x="1765.1" y="616.1" class="st29" width="6.2" height="12.4"/>
	<path class="st37" d="M1771.3,615.2h-6.2c-0.5,0-0.8,0.4-0.8,0.8v12.4c0,0.5,0.4,0.8,0.8,0.8h6.2c0.5,0,0.8-0.4,0.8-0.8v-12.4
		C1772.1,615.6,1771.7,615.2,1771.3,615.2z M1770.4,627.6h-4.5v-10.7h4.5V627.6z"/>
	<path class="st37" d="M1768.8,598.9c-0.3-0.3-0.9-0.3-1.2,0l-15.1,15.1c-0.3,0.3-0.3,0.9,0,1.2l2.4,2.4c0.2,0.2,0.4,0.3,0.6,0.3
		c0.2,0,0.5-0.1,0.6-0.3l12.2-12.1l9,9v11.3c-0.8,0.3-1.4,1-1.6,1.8h-16.4V620c0-0.5-0.4-0.8-0.8-0.8s-0.8,0.4-0.8,0.8v2.1
		c-1.4,0.3-2.4,1.4-2.7,2.8c-1.4,0.3-2.5,1.4-2.8,2.7h-2.4c-0.5,0-0.8,0.4-0.8,0.8c0,0.5,0.4,0.8,0.8,0.8h26.7
		c0.5,0,0.8-0.4,0.8-0.8v-0.3c0-0.5,0.4-0.8,0.8-0.8c0.5,0,0.8,0.4,0.8,0.8v0.3c0,0.5,0.4,0.8,0.8,0.8h0.8c0.5,0,0.8-0.4,0.8-0.8
		c0-0.5-0.4-0.8-0.8-0.8h-0.1c-0.2-0.8-0.8-1.5-1.6-1.8v-9.7l1.4,1.4c0.2,0.2,0.4,0.3,0.6,0.3s0.5-0.1,0.6-0.3l2.4-2.4
		c0.3-0.3,0.3-0.8,0-1.2L1768.8,598.9z M1757.5,627.6h-3.7c0.3-0.7,1-1.1,1.8-1.1c0.5,0,0.8-0.4,0.8-0.8c0-0.8,0.5-1.5,1.1-1.8
		V627.6z M1780.9,615.8l-12.2-12.1c-0.2-0.2-0.4-0.3-0.6-0.3s-0.4,0.1-0.6,0.3l-12.2,12.1l-1.2-1.2l13.9-13.9l13.9,13.9
		L1780.9,615.8z"/>
</g>
<polygon class="st33" points="1880.8,256.3 1880.8,527.9 1920,527.9 1920,257.2 "/>
<polygon class="st33" points="1880.8,539.3 1880.8,702.4 1920,711.2 1920,537.3 "/>
<path class="st33" d="M1632.5,711.6l-149.4-8.4c-9.3-0.5-18.6-0.1-27.9,1.2l-49.2,7.1c-1.5,0.2-2.7,1.3-3.1,2.8l-31.5,124.9
	c-2.7,10.7-1.5,22.1,3.3,32.1l0,0c3.5,7.1,10.5,11.8,18.5,12.2l238.3,12.5c2.4,0.1,4.3-2.1,3.8-4.5l0,0
	c-8.8-38.5-10.9-78.2-6.3-117.4l6.9-58.3C1636.2,713.6,1634.6,711.8,1632.5,711.6z"/>
<g>
	<rect x="1503.2" y="795.9" class="st29" width="6.2" height="12.4"/>
	<path class="st37" d="M1509.4,795.1h-6.2c-0.5,0-0.8,0.4-0.8,0.8v12.4c0,0.5,0.4,0.8,0.8,0.8h6.2c0.5,0,0.8-0.4,0.8-0.8v-12.4
		C1510.2,795.4,1509.8,795.1,1509.4,795.1z M1508.5,807.5h-4.5v-10.7h4.5V807.5z"/>
	<path class="st37" d="M1506.8,778.7c-0.3-0.3-0.9-0.3-1.2,0l-15.1,15.1c-0.3,0.3-0.3,0.9,0,1.2l2.4,2.4c0.2,0.2,0.4,0.3,0.6,0.3
		c0.2,0,0.5-0.1,0.6-0.3l12.2-12.1l9,9v11.3c-0.8,0.3-1.4,1-1.6,1.8h-16.4v-7.6c0-0.5-0.4-0.8-0.8-0.8s-0.8,0.4-0.8,0.8v2.1
		c-1.4,0.3-2.4,1.4-2.7,2.8c-1.4,0.3-2.5,1.4-2.8,2.7h-2.4c-0.5,0-0.8,0.4-0.8,0.8c0,0.5,0.4,0.8,0.8,0.8h26.7
		c0.5,0,0.8-0.4,0.8-0.8V808c0-0.5,0.4-0.8,0.8-0.8c0.5,0,0.8,0.4,0.8,0.8v0.3c0,0.5,0.4,0.8,0.8,0.8h0.8c0.5,0,0.8-0.4,0.8-0.8
		c0-0.5-0.4-0.8-0.8-0.8h-0.1c-0.2-0.8-0.8-1.5-1.6-1.8V796l1.4,1.4c0.2,0.2,0.4,0.3,0.6,0.3s0.5-0.1,0.6-0.3l2.4-2.4
		c0.3-0.3,0.3-0.8,0-1.2L1506.8,778.7z M1495.6,807.5h-3.7c0.3-0.7,1-1.1,1.8-1.1c0.5,0,0.8-0.4,0.8-0.8c0-0.8,0.5-1.5,1.1-1.8
		V807.5z M1519,795.6l-12.2-12.1c-0.2-0.2-0.4-0.3-0.6-0.3s-0.4,0.1-0.6,0.3l-12.2,12.1l-1.2-1.2l13.9-13.9l13.9,13.9L1519,795.6z"
		/>
</g>
<g>
	<rect x="1825.2" y="805.8" class="st29" width="6.2" height="12.4"/>
	<path class="st37" d="M1831.3,805h-6.2c-0.5,0-0.8,0.4-0.8,0.8v12.4c0,0.5,0.4,0.8,0.8,0.8h6.2c0.5,0,0.8-0.4,0.8-0.8v-12.4
		C1832.2,805.3,1831.8,805,1831.3,805z M1830.5,817.4h-4.5v-10.7h4.5V817.4z"/>
	<path class="st37" d="M1828.8,788.6c-0.3-0.3-0.9-0.3-1.2,0l-15.1,15.1c-0.3,0.3-0.3,0.9,0,1.2l2.4,2.4c0.2,0.2,0.4,0.3,0.6,0.3
		s0.5-0.1,0.6-0.3l12.2-12.1l9,9v11.3c-0.8,0.3-1.4,1-1.6,1.8h-16.4v-7.6c0-0.5-0.4-0.8-0.8-0.8s-0.8,0.4-0.8,0.8v2.1
		c-1.4,0.3-2.4,1.4-2.7,2.8c-1.4,0.3-2.5,1.4-2.8,2.7h-2.4c-0.5,0-0.8,0.4-0.8,0.8s0.4,0.8,0.8,0.8h26.7c0.5,0,0.8-0.4,0.8-0.8v-0.3
		c0-0.5,0.4-0.8,0.8-0.8c0.5,0,0.8,0.4,0.8,0.8v0.3c0,0.5,0.4,0.8,0.8,0.8h0.8c0.5,0,0.8-0.4,0.8-0.8s-0.4-0.8-0.8-0.8h-0.1
		c-0.2-0.8-0.8-1.5-1.6-1.8v-9.7l1.4,1.4c0.2,0.2,0.4,0.3,0.6,0.3s0.5-0.1,0.6-0.3l2.4-2.4c0.3-0.3,0.3-0.8,0-1.2L1828.8,788.6z
		 M1817.6,817.4h-3.7c0.3-0.7,1-1.1,1.8-1.1c0.5,0,0.8-0.4,0.8-0.8c0-0.8,0.5-1.5,1.1-1.8V817.4z M1841,805.5l-12.2-12.1
		c-0.2-0.2-0.4-0.3-0.6-0.3s-0.4,0.1-0.6,0.3l-12.2,12.1l-1.2-1.2l13.9-13.9l13.9,13.9L1841,805.5z"/>
</g>
<path class="st33" d="M498.8,354.3l-39.7-5.3c-7.9-1-15.9-1.1-23.8-0.1l-31.9,4L384,464.4l43.4,2.2c9.5,0.5,18.9,2.2,28,5.2
	l25.5,8.4c2.4,0.4,4.9,0.7,7.4,0.8l69.4,4.2l37.8-129.1l-47.7-2.3C542,354.5,504.5,354.8,498.8,354.3z"/>
<g>
	<rect x="485.2" y="410.1" class="st29" width="6.2" height="12.4"/>
	<path class="st37" d="M491.4,409.3h-6.2c-0.5,0-0.8,0.4-0.8,0.8v12.4c0,0.5,0.4,0.8,0.8,0.8h6.2c0.5,0,0.8-0.4,0.8-0.8v-12.4
		C492.3,409.6,491.9,409.3,491.4,409.3z M490.6,421.7h-4.5V411h4.5V421.7z"/>
	<path class="st37" d="M488.9,392.9c-0.3-0.3-0.9-0.3-1.2,0L472.6,408c-0.3,0.3-0.3,0.9,0,1.2l2.4,2.4c0.2,0.2,0.4,0.3,0.6,0.3
		s0.5-0.1,0.6-0.3l12.2-12.1l9,9v11.3c-0.8,0.3-1.4,1-1.6,1.8h-16.4v-7.6c0-0.5-0.4-0.8-0.8-0.8c-0.5,0-0.8,0.4-0.8,0.8v2.1
		c-1.4,0.3-2.4,1.4-2.7,2.8c-1.4,0.3-2.5,1.4-2.8,2.7h-2.4c-0.5,0-0.8,0.4-0.8,0.8s0.4,0.8,0.8,0.8h26.7c0.5,0,0.8-0.4,0.8-0.8v-0.3
		c0-0.5,0.4-0.8,0.8-0.8s0.8,0.4,0.8,0.8v0.3c0,0.5,0.4,0.8,0.8,0.8h0.8c0.5,0,0.8-0.4,0.8-0.8s-0.4-0.8-0.8-0.8h-0.1
		c-0.2-0.8-0.8-1.5-1.6-1.8v-9.7l1.4,1.4c0.2,0.2,0.4,0.3,0.6,0.3c0.2,0,0.5-0.1,0.6-0.3l2.4-2.4c0.3-0.3,0.3-0.8,0-1.2L488.9,392.9
		z M477.6,421.7h-3.7c0.3-0.7,1-1.1,1.8-1.1c0.5,0,0.8-0.4,0.8-0.8c0-0.8,0.5-1.5,1.1-1.8V421.7z M501.1,409.8l-12.2-12.1
		c-0.2-0.2-0.4-0.3-0.6-0.3s-0.4,0.1-0.6,0.3l-12.2,12.1l-1.2-1.2l13.9-13.9l13.9,13.9L501.1,409.8z"/>
</g>
<g>
	<rect x="295.3" y="272.9" class="st29" width="6.2" height="12.4"/>
	<path class="st37" d="M301.4,272h-6.2c-0.5,0-0.8,0.4-0.8,0.8v12.4c0,0.5,0.4,0.8,0.8,0.8h6.2c0.5,0,0.8-0.4,0.8-0.8v-12.4
		C302.3,272.4,301.9,272,301.4,272z M300.6,284.4h-4.5v-10.7h4.5V284.4z"/>
	<path class="st37" d="M298.9,255.7c-0.3-0.3-0.9-0.3-1.2,0l-15.1,15.1c-0.3,0.3-0.3,0.9,0,1.2l2.4,2.4c0.2,0.2,0.4,0.3,0.6,0.3
		s0.5-0.1,0.6-0.3l12.2-12.1l9,9v11.3c-0.8,0.3-1.4,1-1.6,1.8h-16.4v-7.6c0-0.5-0.4-0.8-0.8-0.8s-0.8,0.4-0.8,0.8v2.1
		c-1.4,0.3-2.4,1.4-2.7,2.8c-1.4,0.3-2.5,1.4-2.8,2.7h-2.4c-0.5,0-0.8,0.4-0.8,0.8c0,0.5,0.4,0.8,0.8,0.8h26.7
		c0.5,0,0.8-0.4,0.8-0.8V285c0-0.5,0.4-0.8,0.8-0.8s0.8,0.4,0.8,0.8v0.3c0,0.5,0.4,0.8,0.8,0.8h0.8c0.5,0,0.8-0.4,0.8-0.8
		c0-0.5-0.4-0.8-0.8-0.8h-0.1c-0.2-0.8-0.8-1.5-1.6-1.8v-9.7l1.4,1.4c0.2,0.2,0.4,0.3,0.6,0.3s0.5-0.1,0.6-0.3l2.4-2.4
		c0.3-0.3,0.3-0.8,0-1.2L298.9,255.7z M287.7,284.4h-3.7c0.3-0.7,1-1.1,1.8-1.1c0.5,0,0.8-0.4,0.8-0.8c0-0.8,0.5-1.5,1.1-1.8V284.4z
		 M311.1,272.6l-12.2-12.1c-0.2-0.2-0.4-0.3-0.6-0.3s-0.4,0.1-0.6,0.3l-12.2,12.1l-1.2-1.2l13.9-13.9l13.9,13.9L311.1,272.6z"/>
</g>
<g>
	<rect x="277.6" y="404.4" class="st29" width="6.2" height="12.4"/>
	<path class="st37" d="M283.8,403.5h-6.2c-0.5,0-0.8,0.4-0.8,0.8v12.4c0,0.5,0.4,0.8,0.8,0.8h6.2c0.5,0,0.8-0.4,0.8-0.8v-12.4
		C284.6,403.9,284.2,403.5,283.8,403.5z M282.9,415.9h-4.5v-10.7h4.5V415.9z"/>
	<path class="st37" d="M281.3,387.2c-0.3-0.3-0.9-0.3-1.2,0l-15.1,15.1c-0.3,0.3-0.3,0.9,0,1.2l2.4,2.4c0.2,0.2,0.4,0.3,0.6,0.3
		s0.5-0.1,0.6-0.3l12.2-12.1l9,9v11.3c-0.8,0.3-1.4,1-1.6,1.8h-16.4v-7.6c0-0.5-0.4-0.8-0.8-0.8s-0.8,0.4-0.8,0.8v2.1
		c-1.4,0.3-2.4,1.4-2.7,2.8c-1.4,0.3-2.5,1.4-2.8,2.7h-2.4c-0.5,0-0.8,0.4-0.8,0.8s0.4,0.8,0.8,0.8h26.7c0.5,0,0.8-0.4,0.8-0.8v-0.3
		c0-0.5,0.4-0.8,0.8-0.8s0.8,0.4,0.8,0.8v0.3c0,0.5,0.4,0.8,0.8,0.8h0.8c0.5,0,0.8-0.4,0.8-0.8s-0.4-0.8-0.8-0.8H293
		c-0.2-0.8-0.8-1.5-1.6-1.8v-9.7l1.4,1.4c0.2,0.2,0.4,0.3,0.6,0.3s0.5-0.1,0.6-0.3l2.4-2.4c0.3-0.3,0.3-0.8,0-1.2L281.3,387.2z
		 M270,415.9h-3.7c0.3-0.7,1-1.1,1.8-1.1c0.5,0,0.8-0.4,0.8-0.8c0-0.8,0.5-1.5,1.1-1.8V415.9z M293.4,404.1L281.3,392
		c-0.2-0.2-0.4-0.3-0.6-0.3c-0.2,0-0.4,0.1-0.6,0.3l-12.2,12.1l-1.2-1.2l13.9-13.9l13.9,13.9L293.4,404.1z"/>
</g>
<g>
	<rect x="62" y="325" class="st29" width="6.2" height="12.4"/>
	<path class="st37" d="M68.2,324.1H62c-0.5,0-0.8,0.4-0.8,0.8v12.4c0,0.5,0.4,0.8,0.8,0.8h6.2c0.5,0,0.8-0.4,0.8-0.8V325
		C69,324.5,68.7,324.1,68.2,324.1z M67.4,336.5h-4.5v-10.7h4.5V336.5z"/>
	<path class="st37" d="M65.7,307.8c-0.3-0.3-0.9-0.3-1.2,0l-15.1,15.1c-0.3,0.3-0.3,0.9,0,1.2l2.4,2.4c0.2,0.2,0.4,0.3,0.6,0.3
		s0.5-0.1,0.6-0.3l12.2-12.1l9,9v11.3c-0.8,0.3-1.4,1-1.6,1.8H56.1v-7.6c0-0.5-0.4-0.8-0.8-0.8c-0.5,0-0.8,0.4-0.8,0.8v2.1
		c-1.4,0.3-2.4,1.4-2.7,2.8c-1.4,0.3-2.5,1.4-2.8,2.7h-2.4c-0.5,0-0.8,0.4-0.8,0.8c0,0.5,0.4,0.8,0.8,0.8h26.7
		c0.5,0,0.8-0.4,0.8-0.8v-0.3c0-0.5,0.4-0.8,0.8-0.8s0.8,0.4,0.8,0.8v0.3c0,0.5,0.4,0.8,0.8,0.8h0.8c0.5,0,0.8-0.4,0.8-0.8
		c0-0.5-0.4-0.8-0.8-0.8h-0.1c-0.2-0.8-0.8-1.5-1.6-1.8V325l1.4,1.4c0.2,0.2,0.4,0.3,0.6,0.3c0.2,0,0.5-0.1,0.6-0.3l2.4-2.4
		c0.3-0.3,0.3-0.8,0-1.2L65.7,307.8z M54.4,336.5h-3.7c0.3-0.7,1-1.1,1.8-1.1c0.5,0,0.8-0.4,0.8-0.8c0-0.8,0.5-1.5,1.1-1.8V336.5z
		 M77.9,324.7l-12.2-12.1c-0.2-0.2-0.4-0.3-0.6-0.3s-0.4,0.1-0.6,0.3l-12.2,12.1l-1.2-1.2l13.9-13.9L79,323.5L77.9,324.7z"/>
</g>
</svg>
