<svg xmlns="http://www.w3.org/2000/svg" xmlns:xlink="http://www.w3.org/1999/xlink" width="46" height="32" viewBox="0 0 46 32">
    <defs>
        <path id="a" d="M0 0h45.872v31.815H0z"/>
    </defs>
    <g fill="none" fill-rule="evenodd">
        <mask id="b" fill="#fff">
            <use xlink:href="#a"/>
        </mask>
        <path fill="#568C4B" d="M42.8 16.232l-11.475.078-7.996-9.585a.598.598 0 0 0-.923.006l-7.866 9.693-11.475.078-1.777.012 1.6-11.37 10.394-.07.016 2.3a.599.599 0 0 0 .602.597l2.593-.017a.6.6 0 0 0 .594-.605l-.015-2.301 25.753-.175 1.752 11.347-1.777.012zm-.508 13.46l-10.693.073-.076-11.347.543.652a.596.596 0 0 0 .843.075.602.602 0 0 0 .075-.846l-.663-.795 9.889-.067.082 12.255zM22.876 8.052l7.44 8.92.086 12.8-14.759.1-.086-12.8 7.32-9.02zM3.671 17.699l9.89-.067-.653.804a.6.6 0 0 0 .086.845c.256.21.633.17.842-.086l.534-.66.077 11.347-10.694.072-.082-12.255zM15.86 3.055l.025 3.702-1.396.01-.024-3.703 1.396-.01zM13.552.569l3.192-.022.008 1.201-3.192.022L13.551.57zm32.314 16.155L43.928 4.178a.598.598 0 0 0-.595-.509l-26.27.178-.005-.9.3-.002a.6.6 0 0 0 .593-.604l-.016-2.402a.6.6 0 0 0-.602-.596l-4.388.03a.599.599 0 0 0-.595.604l.016 2.401a.6.6 0 0 0 .603.597l.299-.002.006.9-10.912.074a.599.599 0 0 0-.588.516L.006 17.035a.601.601 0 0 0 .597.684l1.87-.013.087 12.856a.6.6 0 0 0 .603.596l39.736-.27a.6.6 0 0 0 .594-.604l-.086-12.855 1.871-.013a.598.598 0 0 0 .587-.692z" mask="url(#b)"/>
        <path fill="#568C4B" d="M10.106 24.786l-.005-.695 1.694-.011.005.694-1.694.012zm-2.894-.675l1.694-.012.005.695-1.694.011-.005-.694zm1.681-1.897l.005.695-1.694.011-.005-.695 1.694-.01zm2.894.675l-1.694.012-.004-.695 1.693-.011.005.694zM12.372 21l-5.778.04a.596.596 0 0 0-.594.598l.025 3.77a.598.598 0 0 0 .602.592l5.78-.04a.597.597 0 0 0 .593-.598l-.026-3.77a.597.597 0 0 0-.602-.592zM35.894 21.214l.005.695-1.694.011-.005-.694 1.694-.012zm2.894.675l-1.694.012-.005-.695 1.694-.011.005.694zm-1.681 1.897l-.005-.695 1.694-.011.005.695-1.694.01zm-2.894-.675l1.694-.012.004.695-1.694.011-.004-.694zM33.628 25l5.778-.04a.596.596 0 0 0 .594-.598l-.025-3.77a.598.598 0 0 0-.602-.592l-5.78.04a.597.597 0 0 0-.593.598l.026 3.77a.597.597 0 0 0 .602.592zM19.353 21.212l.006.696-1.076.006-.004-.695 1.074-.007zm2.354.68l-1.074.008-.005-.696 1.074-.007.005.696zm-1.06 1.896l-.006-.696 1.075-.006.005.695-1.074.007zm-2.354-.68l1.074-.008.005.696-1.075.007-.004-.696zM17.669 25l4.698-.03c.351-.002.635-.27.633-.6l-.027-3.778c-.003-.33-.29-.594-.642-.592l-4.698.03c-.352.002-.635.27-.633.6l.027 3.778c.003.33.29.594.642.592zM25.354 21.212l.005.696-1.075.006-.005-.695 1.075-.007zm2.354.68l-1.075.008-.005-.696 1.075-.007.005.696zm-1.061 1.896l-.005-.696 1.074-.006.006.695-1.075.007zm-2.354-.68l1.074-.008.006.696-1.076.007-.004-.696zM23 20.63l.027 3.778c.002.33.29.594.642.592l4.698-.03c.352-.002.636-.27.633-.6l-.027-3.778c-.002-.33-.29-.594-.641-.592l-4.699.03c-.352.002-.636.27-.633.6zM9.787 11.68l-1.5.01.382-3.373 1.097-.008.021 3.37zM10.362 7l-2.233.016c-.304.003-.559.248-.596.574l-.529 4.678a.687.687 0 0 0 .15.514c.114.14.28.22.454.218l2.792-.02c.333-.003.602-.297.6-.657l-.03-4.675c-.002-.36-.274-.65-.608-.648zM36.225 10.69l-.021-3.372 1.09-.009.42 3.37-1.49.01zm2.186-4.125c-.04-.325-.297-.568-.598-.565l-2.217.016c-.331.003-.598.297-.596.657l.029 4.679c.002.36.273.65.604.648l2.771-.02a.58.58 0 0 0 .45-.226.695.695 0 0 0 .14-.515l-.583-4.674zM22.994 13.09a.91.91 0 1 1 .01 1.82.91.91 0 0 1-.01-1.82m.02 2.91A2.002 2.002 0 0 0 25 13.987 2.002 2.002 0 0 0 22.987 12 2.002 2.002 0 0 0 21 14.013 2.003 2.003 0 0 0 23.013 16"/>
    </g>
</svg>
