<svg xmlns="http://www.w3.org/2000/svg" xmlns:xlink="http://www.w3.org/1999/xlink" width="34" height="34" viewBox="0 0 34 34">
    <defs>
        <path id="a" d="M0 .379h8.682v19.339H0z"/>
        <path id="c" d="M.312.267h22.465V14.93H.312z"/>
        <path id="e" d="M.186.282h30.405V14H.186z"/>
    </defs>
    <g fill="none" fill-rule="evenodd">
        <path fill="#FFF0B3" d="M6 32.163c.962 0 1.894-.362 2.555-.976l2.375-2.204c1.413-1.31 3.727-1.31 5.14 0l2.375 2.204c.691.642 1.593.976 2.555.976V33H6v-.837z"/>
        <path fill="#F2B630" d="M20.094 34h-3.828a2.627 2.627 0 0 1-1.724-.657l-1.665-1.56a.764.764 0 0 0-.322-.192c-.438-.164-.672-.63-.497-1.067.176-.438.673-.63 1.14-.466.351.137.643.301.935.575l1.666 1.56c.117.11.292.192.497.192h3.828c.496 0 .876.356.876.821 0 .466-.438.794-.906.794"/>
        <g transform="translate(0 4)">
            <mask id="b" fill="#fff">
                <use xlink:href="#a"/>
            </mask>
            <path fill="#568C4B" d="M1.793 19.718h-.088c-.325-.03-.62-.27-.74-.6C-1.544 12.163.938 4.85 7.29.532a.893.893 0 0 1 1.242.24c.266.42.177.96-.237 1.26C3.094 5.568.818 11.053 2.09 16.69a5.156 5.156 0 0 1 2.334-1.888c.444-.18.976.06 1.153.51.177.449-.06.988-.503 1.168-.65.27-1.211.72-1.566 1.319l-.945 1.53c-.207.239-.473.389-.769.389" mask="url(#b)"/>
        </g>
        <path fill="#568C4B" d="M8.605 21h-.128c-.353-.03-.674-.27-.77-.601-1.41-3.638-1.955-7.215-1.603-10.341.064-.48.545-.842 1.058-.812.513.06.898.511.866.992-.289 2.375.032 5.05.898 7.846l.192-.27c1.315-1.804 3.72-2.616 5.964-2.045l.417.12-3.367-8.687c-.192-.48.064-.992.577-1.142.514-.18 1.059.06 1.219.541 0 0 3.847 9.95 4.008 10.31.032.121.064.241.064.361a.921.921 0 0 1-.802.842c-.256.03-.449 0-.577-.06l-2.052-.541c-1.443-.39-3.014.15-3.847 1.323l-1.315 1.773c-.193.24-.481.391-.802.391"/>
        <g transform="translate(11)">
            <mask id="d" fill="#fff">
                <use xlink:href="#c"/>
            </mask>
            <path fill="#568C4B" d="M22.718 10.883c-1.527-4.35-4.58-7.665-8.604-9.277C10.502.146 6.332.115 2.22 1.453L2.015.875C1.839.39 1.339.145.899.328A.899.899 0 0 0 .37 1.484l.5 1.43c.088.212.234.425.47.517.205.091.44.122.675.03 3.964-1.49 8.017-1.551 11.482-.152 2.996 1.217 5.345 3.407 6.813 6.418-2.055-.608-4.258.213-5.462 2.038l-.206.304c-1.233-2.98-2.878-5.505-4.757-7.391-.352-.335-.91-.335-1.233.03-.324.365-.324.943.03 1.278 1.702 1.673 3.141 3.954 4.286 6.63l-.322-.09a4.671 4.671 0 0 0-3.084.152c-.47.182-.676.7-.529 1.186.177.487.676.7 1.146.548a3.2 3.2 0 0 1 1.997-.092l2.026.578c.088.03.147.03.235.03a.91.91 0 0 0 .734-.395l1.145-1.703c.823-1.217 2.261-1.734 3.642-1.308l1.674.547a.92.92 0 0 0 .91-.243.936.936 0 0 0 .176-.943" mask="url(#d)"/>
        </g>
        <g transform="translate(1 20)">
            <mask id="f" fill="#fff">
                <use xlink:href="#e"/>
            </mask>
            <path fill="#568C4B" d="M29.688 12.245h-7.165L18.25.866A.888.888 0 0 0 17.105.34c-.482.175-.723.673-.542 1.111l4.034 10.794h-1.445c-.723 0-1.415-.264-1.927-.79l-2.378-2.31a4.618 4.618 0 0 0-6.412 0l-2.378 2.31a2.776 2.776 0 0 1-1.927.79H1.09c-.513 0-.904.38-.904.877 0 .498.391.878.903.878H4.1a4.706 4.706 0 0 0 3.222-1.287l2.378-2.311c1.054-1.024 2.8-1.024 3.853 0l2.379 2.31A4.595 4.595 0 0 0 19.15 14h10.537c.512 0 .903-.38.903-.878 0-.497-.391-.877-.903-.877" mask="url(#f)"/>
        </g>
    </g>
</svg>
