<svg xmlns="http://www.w3.org/2000/svg" xmlns:xlink="http://www.w3.org/1999/xlink" width="32" height="34" viewBox="0 0 32 34">
    <defs>
        <path id="a" d="M0 0h32v34H0z"/>
    </defs>
    <g fill="none" fill-rule="evenodd">
        <mask id="b" fill="#fff">
            <use xlink:href="#a"/>
        </mask>
        <path fill="#568C4B" d="M15.68 19.172h3.622v-4.374H15.68v4.374zM14.83 21h5.32c.482 0 .85-.39.85-.899V13.9c0-.51-.368-.899-.85-.899h-5.32c-.481 0-.849.39-.849.899v6.172c0 .51.396.929.85.929zm-7.132-1.828h3.623v-4.374H7.698v4.374zM6.848 21h5.322c.481 0 .849-.39.849-.899V13.9c0-.51-.368-.899-.85-.899H6.85c-.481 0-.849.39-.849.899v6.172c0 .51.368.929.849.929z" mask="url(#b)"/>
        <path fill="#568C4B" d="M2.994 5.446h8.98a.862.862 0 0 0 .872-.883c0-1.53 1.25-2.797 2.762-2.797 1.511 0 2.76 1.266 2.76 2.797 0 .5.378.883.873.883h7.237v2.797H2.994V5.446zm21.42 26.788h-2.238v-8.86c0-.501-.378-.884-.872-.884H7.615a.862.862 0 0 0-.872.883v8.86H4.359V10.01h20.055v22.225zm-9.097 0h5.115v-7.978h-5.115v7.978zm-1.744 0H8.487v-7.978h5.115v7.978h-.029zM7.615 34h22.147a.862.862 0 0 0 .872-.883V10.009h.494A.862.862 0 0 0 32 9.126V4.563c0-.5-.378-.883-.872-.883H20.026C19.618 1.59 17.787 0 15.608 0c-2.18 0-4.011 1.59-4.418 3.68H2.122a.862.862 0 0 0-.872.883v4.563c0 .5.378.883.872.883h.494v22.225H.872a.862.862 0 0 0-.872.883c0 .5.378.883.872.883h6.743z" mask="url(#b)"/>
    </g>
</svg>
