<svg xmlns="http://www.w3.org/2000/svg" width="68" height="73" viewBox="0 0 68 73">
    <defs>
        <linearGradient id="a" x1="50%" x2="50%" y1="0%" y2="100%">
            <stop offset="0%" stop-color="#FFF"/>
            <stop offset="100%" stop-color="#FBF9F0"/>
        </linearGradient>
    </defs>
    <g fill="none" fill-rule="evenodd">
        <text fill="#158704" font-family="Futura-Bold, Futura" font-size="24" font-weight="bold" transform="translate(-243)">
            <tspan x="0" y="49">РАСПОЛОЖЕНИЕ</tspan>
        </text>
        <path fill="url(#a)" d="M31.68 72.998c19.892-.187 29.47-16.379 35.363-33.307C72.937 22.763 50.467 5.835 30.575.683 10.683-4.469 0 20.587 0 39.691c0 19.105 11.788 33.494 31.68 33.307z" transform="rotate(180 34 36.5)"/>
        <path fill="#379258" fill-rule="nonzero" d="M30 49a5 5 0 0 0-10 0h10z"/>
        <path fill="#379258" fill-rule="nonzero" d="M39 49a5 5 0 0 0-10 0h10z"/>
        <path fill="#5EBF64" fill-rule="nonzero" d="M51 49a5 5 0 0 0-10 0h10z"/>
        <path fill="#379258" fill-rule="nonzero" d="M43 49c0-2.21-1.567-4-3.5-4S36 46.79 36 49h7z"/>
        <path fill="#5EBF64" fill-rule="nonzero" d="M32 49c0-2.21-1.567-4-3.5-4S25 46.79 25 49h7z"/>
        <path stroke="#9E5939" stroke-linecap="square" stroke-width="2" d="M48.5 39v9"/>
        <path fill="#379258" fill-rule="nonzero" d="M48 40c2.761 0 5-1.56 5-10.656S50.761 9 48 9s-5 11.248-5 20.344C43 38.439 45.239 40 48 40z"/>
        <path stroke="#9E5839" stroke-linecap="square" stroke-width="2" d="M22.5 48V25"/>
        <path fill="#C78366" fill-rule="nonzero" d="M23 27h9.941L36 30l-3.059 3H23zM22 33h-9.941L9 36l3.059 3H22z"/>
    </g>
</svg>
