<svg xmlns="http://www.w3.org/2000/svg" xmlns:xlink="http://www.w3.org/1999/xlink" width="158" height="160" viewBox="0 0 158 160">
    <defs>
        <path id="a" d="M0 0h166v176H0z"/>
        <linearGradient id="c" x1="-11.158%" x2="111.693%" y1="50.091%" y2="50.091%">
            <stop offset="0%" stop-color="#C3E800"/>
            <stop offset="5.949%" stop-color="#B6CD00"/>
            <stop offset="13.03%" stop-color="#ACB600"/>
            <stop offset="20.32%" stop-color="#A5AA00"/>
            <stop offset="28.09%" stop-color="#A3A500"/>
            <stop offset="66.85%" stop-color="#C7A700"/>
        </linearGradient>
        <linearGradient id="d" x1="113.37%" x2="-12.417%" y1="50.204%" y2="50.204%">
            <stop offset="0%" stop-color="#C3E800"/>
            <stop offset="5.949%" stop-color="#B6CD00"/>
            <stop offset="13.03%" stop-color="#ACB600"/>
            <stop offset="20.32%" stop-color="#A5AA00"/>
            <stop offset="28.09%" stop-color="#A3A500"/>
            <stop offset="66.85%" stop-color="#C7A700"/>
        </linearGradient>
        <linearGradient id="e" x1="112.748%" x2="-12.062%" y1="50.087%" y2="50.087%">
            <stop offset="0%" stop-color="#C3E800"/>
            <stop offset="5.949%" stop-color="#B6CD00"/>
            <stop offset="13.03%" stop-color="#ACB600"/>
            <stop offset="20.32%" stop-color="#A5AA00"/>
            <stop offset="28.09%" stop-color="#A3A500"/>
            <stop offset="66.85%" stop-color="#C7A700"/>
        </linearGradient>
        <linearGradient id="f" x1="49.974%" x2="49.974%" y1=".029%" y2="100.147%">
            <stop offset="0%" stop-color="#F0FAE6"/>
            <stop offset="20.06%" stop-color="#F9F7D1"/>
            <stop offset="41.4%" stop-color="#FFF5C4"/>
            <stop offset="64.18%" stop-color="#FFF5BF"/>
            <stop offset="91.84%" stop-color="#F0B43D"/>
        </linearGradient>
        <linearGradient id="g" x1="96.965%" x2="1.936%" y1="33.979%" y2="65.11%">
            <stop offset="0%" stop-color="#F0FAE6"/>
            <stop offset="20.06%" stop-color="#F9F7D1"/>
            <stop offset="41.4%" stop-color="#FFF5C4"/>
            <stop offset="64.18%" stop-color="#FFF5BF"/>
            <stop offset="91.84%" stop-color="#F0B43D"/>
        </linearGradient>
        <linearGradient id="h" x1="81.471%" x2="20.268%" y1="90.722%" y2="10.098%">
            <stop offset="0%" stop-color="#F0FAE6"/>
            <stop offset="20.06%" stop-color="#F9F7D1"/>
            <stop offset="41.4%" stop-color="#FFF5C4"/>
            <stop offset="64.18%" stop-color="#FFF5BF"/>
            <stop offset="91.84%" stop-color="#F0B43D"/>
        </linearGradient>
        <linearGradient id="i" x1="20.974%" x2="75.643%" y1="93.526%" y2="8.891%">
            <stop offset="0%" stop-color="#F0FAE6"/>
            <stop offset="20.06%" stop-color="#F9F7D1"/>
            <stop offset="41.4%" stop-color="#FFF5C4"/>
            <stop offset="64.18%" stop-color="#FFF5BF"/>
            <stop offset="91.84%" stop-color="#F0B43D"/>
        </linearGradient>
        <linearGradient id="j" x1="1.695%" x2="98.947%" y1="37.32%" y2="61.979%">
            <stop offset="0%" stop-color="#F0FAE6"/>
            <stop offset="20.06%" stop-color="#F9F7D1"/>
            <stop offset="41.4%" stop-color="#FFF5C4"/>
            <stop offset="64.18%" stop-color="#FFF5BF"/>
            <stop offset="91.84%" stop-color="#F0B43D"/>
        </linearGradient>
        <radialGradient id="k" cx="49.671%" cy="49.751%" r="50.332%" fx="49.671%" fy="49.751%" gradientTransform="matrix(.9897 0 0 1 .005 0)">
            <stop offset="0%" stop-color="#C3E800"/>
            <stop offset="2.816%" stop-color="#AAD523"/>
            <stop offset="6.8%" stop-color="#8DC060"/>
            <stop offset="10.88%" stop-color="#75B07F"/>
            <stop offset="15.01%" stop-color="#61A592"/>
            <stop offset="19.2%" stop-color="#539D9F"/>
            <stop offset="23.51%" stop-color="#4A98A5"/>
            <stop offset="28.09%" stop-color="#4697A7"/>
            <stop offset="66.85%" stop-color="#789215"/>
            <stop offset="91.84%" stop-color="#7EAA1A"/>
        </radialGradient>
        <radialGradient id="l" cx="50.232%" cy="50.377%" r="50.168%" fx="50.232%" fy="50.377%">
            <stop offset="0%" stop-color="#C3E800"/>
            <stop offset="5.949%" stop-color="#B6CD00"/>
            <stop offset="13.03%" stop-color="#ACB600"/>
            <stop offset="20.32%" stop-color="#A5AA00"/>
            <stop offset="28.09%" stop-color="#A3A500"/>
            <stop offset="66.85%" stop-color="#C7A700"/>
            <stop offset="91.84%" stop-color="#68995A"/>
        </radialGradient>
        <linearGradient id="m" x1="92.646%" x2="9.871%" y1="18.598%" y2="79.147%">
            <stop offset="0%" stop-color="#F0FAE6"/>
            <stop offset="20.06%" stop-color="#F9F7D1"/>
            <stop offset="41.4%" stop-color="#FFF5C4"/>
            <stop offset="64.18%" stop-color="#FFF5BF"/>
            <stop offset="91.84%" stop-color="#F0B43D"/>
        </linearGradient>
        <linearGradient id="n" x1="92.603%" x2="8.601%" y1="79.313%" y2="22.059%">
            <stop offset="0%" stop-color="#F0FAE6"/>
            <stop offset="20.06%" stop-color="#F9F7D1"/>
            <stop offset="41.4%" stop-color="#FFF5C4"/>
            <stop offset="64.18%" stop-color="#FFF5BF"/>
            <stop offset="91.84%" stop-color="#F0B43D"/>
        </linearGradient>
        <linearGradient id="o" x1="36.127%" x2="62.269%" y1="98.272%" y2="2.087%">
            <stop offset="0%" stop-color="#F0FAE6"/>
            <stop offset="20.06%" stop-color="#F9F7D1"/>
            <stop offset="41.4%" stop-color="#FFF5C4"/>
            <stop offset="64.18%" stop-color="#FFF5BF"/>
            <stop offset="91.84%" stop-color="#F0B43D"/>
        </linearGradient>
        <linearGradient id="p" x1="-.24%" x2="99.584%" y1="52.516%" y2="47.632%">
            <stop offset="0%" stop-color="#F0FAE6"/>
            <stop offset="20.06%" stop-color="#F9F7D1"/>
            <stop offset="41.4%" stop-color="#FFF5C4"/>
            <stop offset="64.18%" stop-color="#FFF5BF"/>
            <stop offset="91.84%" stop-color="#F0B43D"/>
        </linearGradient>
        <linearGradient id="q" x1="30.902%" x2="67.076%" y1="2.455%" y2="96.347%">
            <stop offset="0%" stop-color="#F0FAE6"/>
            <stop offset="20.06%" stop-color="#F9F7D1"/>
            <stop offset="41.4%" stop-color="#FFF5C4"/>
            <stop offset="64.18%" stop-color="#FFF5BF"/>
            <stop offset="91.84%" stop-color="#F0B43D"/>
        </linearGradient>
        <radialGradient id="r" cx="51.307%" cy="49.346%" r="49.812%" fx="51.307%" fy="49.346%">
            <stop offset="0%" stop-color="#C3E800"/>
            <stop offset="2.816%" stop-color="#AAD523"/>
            <stop offset="6.8%" stop-color="#8DC060"/>
            <stop offset="10.88%" stop-color="#75B07F"/>
            <stop offset="15.01%" stop-color="#61A592"/>
            <stop offset="19.2%" stop-color="#539D9F"/>
            <stop offset="23.51%" stop-color="#4A98A5"/>
            <stop offset="28.09%" stop-color="#4697A7"/>
            <stop offset="66.85%" stop-color="#789215"/>
            <stop offset="91.84%" stop-color="#7EAA1A"/>
        </radialGradient>
        <radialGradient id="s" cx="50.435%" cy="50.234%" r="50.167%" fx="50.435%" fy="50.234%">
            <stop offset="0%" stop-color="#C3E800"/>
            <stop offset="5.949%" stop-color="#B6CD00"/>
            <stop offset="13.03%" stop-color="#ACB600"/>
            <stop offset="20.32%" stop-color="#A5AA00"/>
            <stop offset="28.09%" stop-color="#A3A500"/>
            <stop offset="66.85%" stop-color="#C7A700"/>
            <stop offset="91.84%" stop-color="#68995A"/>
        </radialGradient>
        <linearGradient id="t" x1="92.398%" x2="10.014%" y1="18.064%" y2="78.403%">
            <stop offset="0%" stop-color="#F0FAE6"/>
            <stop offset="20.06%" stop-color="#F9F7D1"/>
            <stop offset="41.4%" stop-color="#FFF5C4"/>
            <stop offset="64.18%" stop-color="#FFF5BF"/>
            <stop offset="91.84%" stop-color="#F0B43D"/>
        </linearGradient>
        <linearGradient id="u" x1="92.989%" x2="9.874%" y1="78.566%" y2="22.272%">
            <stop offset="0%" stop-color="#F0FAE6"/>
            <stop offset="20.06%" stop-color="#F9F7D1"/>
            <stop offset="41.4%" stop-color="#FFF5C4"/>
            <stop offset="64.18%" stop-color="#FFF5BF"/>
            <stop offset="91.84%" stop-color="#F0B43D"/>
        </linearGradient>
        <linearGradient id="v" x1="36.571%" x2="63.012%" y1="98.518%" y2="2.033%">
            <stop offset="0%" stop-color="#F0FAE6"/>
            <stop offset="20.06%" stop-color="#F9F7D1"/>
            <stop offset="41.4%" stop-color="#FFF5C4"/>
            <stop offset="64.18%" stop-color="#FFF5BF"/>
            <stop offset="91.84%" stop-color="#F0B43D"/>
        </linearGradient>
        <linearGradient id="w" x1=".208%" x2="99.829%" y1="52.374%" y2="47.479%">
            <stop offset="0%" stop-color="#F0FAE6"/>
            <stop offset="20.06%" stop-color="#F9F7D1"/>
            <stop offset="41.4%" stop-color="#FFF5C4"/>
            <stop offset="64.18%" stop-color="#FFF5BF"/>
            <stop offset="91.84%" stop-color="#F0B43D"/>
        </linearGradient>
        <linearGradient id="x" x1="30.108%" x2="66.716%" y1="1.852%" y2="95.918%">
            <stop offset="0%" stop-color="#F0FAE6"/>
            <stop offset="20.06%" stop-color="#F9F7D1"/>
            <stop offset="41.4%" stop-color="#FFF5C4"/>
            <stop offset="64.18%" stop-color="#FFF5BF"/>
            <stop offset="91.84%" stop-color="#F0B43D"/>
        </linearGradient>
        <radialGradient id="y" cx="51.174%" cy="48.833%" r="50.569%" fx="51.174%" fy="48.833%" gradientTransform="scale(1 .98591) rotate(53.486 .505 .492)">
            <stop offset="0%" stop-color="#C3E800"/>
            <stop offset="2.816%" stop-color="#AAD523"/>
            <stop offset="6.8%" stop-color="#8DC060"/>
            <stop offset="10.88%" stop-color="#75B07F"/>
            <stop offset="15.01%" stop-color="#61A592"/>
            <stop offset="19.2%" stop-color="#539D9F"/>
            <stop offset="23.51%" stop-color="#4A98A5"/>
            <stop offset="28.09%" stop-color="#4697A7"/>
            <stop offset="66.85%" stop-color="#789215"/>
            <stop offset="91.84%" stop-color="#7EAA1A"/>
        </radialGradient>
        <radialGradient id="z" cx="50.877%" cy="49.834%" r="49.425%" fx="50.877%" fy="49.834%">
            <stop offset="0%" stop-color="#C3E800"/>
            <stop offset="5.949%" stop-color="#B6CD00"/>
            <stop offset="13.03%" stop-color="#ACB600"/>
            <stop offset="20.32%" stop-color="#A5AA00"/>
            <stop offset="28.09%" stop-color="#A3A500"/>
            <stop offset="66.85%" stop-color="#C7A700"/>
            <stop offset="91.84%" stop-color="#68995A"/>
        </radialGradient>
        <linearGradient id="A" x1="47.539%" x2="60.756%" y1="52.163%" y2="40.865%">
            <stop offset="0%" stop-color="#C3E800"/>
            <stop offset="15.5%" stop-color="#AECA00"/>
            <stop offset="33.93%" stop-color="#9DB200"/>
            <stop offset="52.93%" stop-color="#92A400"/>
            <stop offset="73.17%" stop-color="#8EA000"/>
        </linearGradient>
        <linearGradient id="B" x1="44.742%" x2="59.622%" y1="54.085%" y2="42.771%">
            <stop offset="0%" stop-color="#34B91D"/>
            <stop offset="16.63%" stop-color="#53AC00"/>
            <stop offset="36.43%" stop-color="#66A100"/>
            <stop offset="56.82%" stop-color="#709A00"/>
            <stop offset="78.54%" stop-color="#729800"/>
        </linearGradient>
        <linearGradient id="C" x1="49.339%" x2="52.717%" y1="50.518%" y2="47.634%">
            <stop offset="0%" stop-color="#C3E800"/>
            <stop offset="15.5%" stop-color="#AECA00"/>
            <stop offset="33.93%" stop-color="#9DB200"/>
            <stop offset="52.93%" stop-color="#92A400"/>
            <stop offset="73.17%" stop-color="#8EA000"/>
        </linearGradient>
        <linearGradient id="D" x1="52.531%" x2="39.34%" y1="52.101%" y2="40.798%">
            <stop offset="0%" stop-color="#C3E800"/>
            <stop offset="15.5%" stop-color="#AECA00"/>
            <stop offset="33.93%" stop-color="#9DB200"/>
            <stop offset="52.93%" stop-color="#92A400"/>
            <stop offset="73.17%" stop-color="#8EA000"/>
        </linearGradient>
        <linearGradient id="E" x1="50.666%" x2="47.285%" y1="50.512%" y2="47.626%">
            <stop offset="0%" stop-color="#C3E800"/>
            <stop offset="15.5%" stop-color="#AECA00"/>
            <stop offset="33.93%" stop-color="#9DB200"/>
            <stop offset="52.93%" stop-color="#92A400"/>
            <stop offset="73.17%" stop-color="#8EA000"/>
        </linearGradient>
        <linearGradient id="F" x1="48.122%" x2="52.285%" y1="50.278%" y2="49.398%">
            <stop offset="0%" stop-color="#C3E800"/>
            <stop offset="15.5%" stop-color="#AECA00"/>
            <stop offset="33.93%" stop-color="#9DB200"/>
            <stop offset="52.93%" stop-color="#92A400"/>
            <stop offset="73.17%" stop-color="#8EA000"/>
        </linearGradient>
        <linearGradient id="G" x1="48.974%" x2="51.132%" y1="50.134%" y2="49.865%">
            <stop offset="0%" stop-color="#34B91D"/>
            <stop offset="16.63%" stop-color="#53AC00"/>
            <stop offset="36.43%" stop-color="#66A100"/>
            <stop offset="56.82%" stop-color="#709A00"/>
            <stop offset="78.54%" stop-color="#729800"/>
        </linearGradient>
        <linearGradient id="H" x1="50.876%" x2="48.676%" y1="49.916%" y2="51.106%">
            <stop offset="0%" stop-color="#34B91D"/>
            <stop offset="16.63%" stop-color="#53AC00"/>
            <stop offset="36.43%" stop-color="#66A100"/>
            <stop offset="56.82%" stop-color="#709A00"/>
            <stop offset="78.54%" stop-color="#729800"/>
        </linearGradient>
    </defs>
    <g fill="none" fill-rule="evenodd" transform="translate(0 -16)">
        <mask id="b" fill="#fff">
            <use xlink:href="#a"/>
        </mask>
        <g mask="url(#b)">
            <g transform="translate(0 16)">
                <path stroke="url(#c)" stroke-width="2" d="M64.5 46.8c0 64.8 3.6 97.6 8.8 116.8"/>
                <path stroke="url(#d)" stroke-width="2" d="M91.6 58c0 51.5-2.4 86-7.6 101.2"/>
                <path stroke="url(#e)" stroke-width="2" d="M112.6 30.1c0 64.8-2.6 112.8-7.9 132"/>
                <g fill-rule="nonzero">
                    <path fill="url(#f)" d="M9.5 6.6c0-3.3 2.6-6.5 5.9-6.5 3.3 0 5.9 3.2 5.9 6.5s-2.6 5.9-5.9 5.9c-3.3 0-5.9-2.6-5.9-5.9z" transform="translate(49 30)"/>
                    <path fill="url(#g)" d="M21.5 6.7c3.1-1.1 7 .4 8.1 3.5 1.1 3.1-1.2 6.6-4.2 7.7-3 1.1-6.5-.6-7.5-3.7-1.2-3.1.5-6.4 3.6-7.5z" transform="translate(49 30)"/>
                    <path fill="url(#h)" d="M25.2 18.1c2 2.6 1.9 6.8-.7 8.8-2.6 2-6.7 1.1-8.7-1.5-2-2.6-1.5-6.3 1.1-8.3 2.6-2.1 6.3-1.6 8.3 1z" transform="translate(49 30)"/>
                    <path fill="url(#i)" d="M15.7 25.3c-1.8 2.7-5.8 3.9-8.5 2.1-2.7-1.8-3.1-6-1.3-8.7 1.8-2.7 5.5-3.5 8.2-1.7 2.7 1.8 3.4 5.6 1.6 8.3z" transform="translate(49 30)"/>
                    <path fill="url(#j)" d="M5.7 18.6C2.5 17.8.1 14.4.9 11.2 1.7 8 5.5 6.3 8.7 7.1c3.2.8 5 4.1 4.2 7.2-.8 3.2-4 5.1-7.2 4.3z" transform="translate(49 30)"/>
                </g>
                <path fill="url(#k)" fill-rule="nonzero" d="M64.5 40.5l1 .4h1l.7.7.9.5.4 1 .7.7-.2 1.1.4.9-.6.9-.1 1.1-.8.6-.5.9-1 .2-.9.6-1-.2-1 .2-.8-.6-1-.2-.6-.9-.8-.6-.1-1.1-.5-.9.3-.9-.1-1.1.7-.7.3-1 .9-.5.7-.7h1.1z"/>
                <circle cx="64.5" cy="45.3" r="3.9" fill="url(#l)" fill-rule="nonzero"/>
                <g fill-rule="nonzero">
                    <path fill="url(#m)" d="M18.6 5.4c2.6-1.9 6.8-1.7 8.7.9 1.9 2.6.9 6.7-1.7 8.6-2.6 1.9-6.3 1.4-8.3-1.2-1.8-2.7-1.3-6.4 1.3-8.3z" transform="translate(96 8)"/>
                    <path fill="url(#n)" d="M25.7 15.1c2.7 1.9 3.8 5.9 2 8.6-1.8 2.7-6 3-8.7 1.2-2.7-1.8-3.4-5.5-1.5-8.2 1.9-2.7 5.5-3.5 8.2-1.6z" transform="translate(96 8)"/>
                    <path fill="url(#o)" d="M18.8 24.9c-.9 3.1-4.3 5.5-7.5 4.6-3.1-.9-4.8-4.7-3.9-7.9.9-3.1 4.2-5 7.3-4.1 3.2 1 5 4.2 4.1 7.4z" transform="translate(96 8)"/>
                    <path fill="url(#p)" d="M7.3 21.5C4 21.7.7 19.2.5 15.9c-.2-3.3 2.9-6.1 6.2-6.2 3.3-.1 6 2.3 6.2 5.6.2 3.3-2.3 6-5.6 6.2z" transform="translate(96 8)"/>
                    <path fill="url(#q)" d="M6.8 9.5c-1.2-3 .1-7 3.1-8.2 3-1.2 6.7.8 7.9 3.8 1.2 3-.3 6.5-3.3 7.7-3.1 1.2-6.5-.2-7.7-3.3z" transform="translate(96 8)"/>
                </g>
                <path fill="url(#r)" fill-rule="nonzero" d="M115.1 20.5l.3 1.1.6.8-.2 1 .2 1-.6.9-.2 1-.9.5-.6.8-1 .2-.9.5-1-.3-1 .1-.8-.7-1-.3-.4-1-.8-.6v-1.1l-.5-.9.5-1v-1l.7-.7.4-1 1-.3.8-.7 1 .1 1-.3.9.5 1 .1.6.8z"/>
                <circle cx="111.2" cy="23.4" r="3.9" fill="url(#s)" fill-rule="nonzero"/>
                <g fill-rule="nonzero">
                    <path fill="url(#t)" d="M13.8 3.4c1.9-1.4 5-1.3 6.4.7 1.4 1.9.7 4.9-1.2 6.3-1.9 1.4-4.6 1-6.1-.9-1.4-2-1-4.7.9-6.1z" transform="translate(80 50)"/>
                    <path fill="url(#u)" d="M19 10.5c2 1.4 2.8 4.3 1.4 6.3S16 19 14 17.7c-2-1.3-2.5-4.1-1.1-6 1.4-2.1 4.1-2.6 6.1-1.2z" transform="translate(80 50)"/>
                    <path fill="url(#v)" d="M13.9 17.6c-.7 2.3-3.2 4-5.5 3.4-2.3-.7-3.5-3.5-2.9-5.8.6-2.3 3.1-3.6 5.4-3 2.4.7 3.7 3.1 3 5.4z" transform="translate(80 50)"/>
                    <path fill="url(#w)" d="M5.5 15.2c-2.4.1-4.9-1.7-5-4.1C.4 8.7 2.6 6.6 5 6.5c2.4-.1 4.4 1.7 4.6 4.1.2 2.4-1.7 4.4-4.1 4.6z" transform="translate(80 50)"/>
                    <path fill="url(#x)" d="M5.2 6.4c-.9-2.2 0-5.1 2.3-6 2.3-.9 4.9.6 5.8 2.8.9 2.2-.2 4.7-2.4 5.6-2.2.9-4.9-.2-5.7-2.4z" transform="translate(80 50)"/>
                </g>
                <path fill="url(#y)" fill-rule="nonzero" d="M94.2 58.6l.2.7.4.6-.1.8.1.7-.4.6-.2.8-.6.4-.5.6-.7.1-.7.4-.7-.3-.7.1-.6-.5-.7-.2-.3-.7-.6-.5v-.8l-.3-.7.3-.7v-.7l.5-.5.3-.7.7-.3.6-.5.8.1.7-.2.6.3.8.1.4.6z"/>
                <circle cx="91.3" cy="60.7" r="2.9" fill="url(#z)" fill-rule="nonzero"/>
                <path fill="url(#A)" fill-rule="nonzero" d="M61.8 110.7c16 28.1 14.8 58.9 14.8 58.9-2.9.7-11.9-26.4-27.9-54.4C32.7 87.2.7 56 .7 56c4.4-2.5 45.1 26.6 61.1 54.7z"/>
                <path fill="url(#B)" fill-rule="nonzero" d="M60.1 132.3c11.1 19 16.1 36.7 16.1 36.7-1-.1-9.3-17.3-20.4-36.3-11.1-19-35.6-36.3-35.6-36.3 1.3-.7 28.8 17 39.9 35.9z"/>
                <path fill="url(#C)" fill-rule="nonzero" d="M68.8 91.5c10.5 39.7 7.6 75 7.6 75-2.3-.5-7.5-36-18-75.7S25.4.7 25.4.7c3.5-1 32.8 51.1 43.4 90.8z"/>
                <path fill="url(#D)" fill-rule="nonzero" d="M116 124.2c-10.9 19.1-10.1 40.2-10.1 40.2 2 .5 8.1-18 19-37.1S157.5 87 157.5 87c-2.9-1.8-30.6 18.1-41.5 37.2z"/>
                <path fill="url(#E)" fill-rule="nonzero" d="M111.4 113.6c-7.9 29.7-5.7 56-5.7 56 1.7-.4 5.6-26.8 13.5-56.5s24.6-67.3 24.6-67.3c-2.6-.7-24.5 38.1-32.4 67.8z"/>
                <path fill="url(#F)" fill-rule="nonzero" d="M90.8 128.3c1 21.7-5.7 39.8-5.7 39.8-2-.5-2.5-19.4-3.5-41.2-1-21.7-10.6-50.1-10.6-50.1 3.4-.1 18.8 29.8 19.8 51.5z"/>
                <path fill="url(#G)" fill-rule="nonzero" d="M85.1 137.7c.3 17.4-6 31.7-6 31.7-1.2-.4.8-15.6.5-33-.3-17.4-5.7-40.5-5.7-40.5 2 0 10.8 24.4 11.2 41.8z"/>
                <path fill="url(#H)" fill-rule="nonzero" d="M95.9 142c1.3 15.2 10.1 26.9 10.1 26.9 1.3-.5-2.4-13.5-3.7-28.7-1.3-15.2-.3-38.5-.3-38.5-2.5.2-7.4 25.1-6.1 40.3z"/>
            </g>
        </g>
    </g>
</svg>
