<svg xmlns="http://www.w3.org/2000/svg" xmlns:xlink="http://www.w3.org/1999/xlink" width="24" height="22" viewBox="0 0 24 22">
    <defs>
        <path id="a" d="M0 0h30v30H0z"/>
        <linearGradient id="c" x1="-7.753%" x2="110.816%" y1="50%" y2="50%">
            <stop offset="0%" stop-color="#00DCFF"/>
            <stop offset="100%" stop-color="#5990FF"/>
        </linearGradient>
        <linearGradient id="d" x1="-7.753%" x2="110.816%" y1="50%" y2="50%">
            <stop offset="0%" stop-color="#00DCFF"/>
            <stop offset="100%" stop-color="#5990FF"/>
        </linearGradient>
    </defs>
    <g fill="none" fill-rule="evenodd" transform="translate(-4 -5)">
        <mask id="b" fill="#fff">
            <use xlink:href="#a"/>
        </mask>
        <g mask="url(#b)">
            <path fill="url(#c)" d="M-1.34 9.424l26.655.266a1.26 1.26 0 0 1 1.248 1.248 1.21 1.21 0 0 1-1.223 1.222l-26.655-.266a1.26 1.26 0 0 1-1.248-1.247A1.21 1.21 0 0 1-1.34 9.424z" transform="rotate(40 7.131 18.787)"/>
            <path fill="url(#d)" d="M1.037 16.488l7.375-.074a1.21 1.21 0 0 1 1.223 1.223 1.26 1.26 0 0 1-1.247 1.247l-7.375.074A1.21 1.21 0 0 1-.21 17.735a1.26 1.26 0 0 1 1.247-1.247z" transform="rotate(-40 13.581 14.691)"/>
            <path fill="url(#d)" d="M15.443 3.368l7.376-.074a1.21 1.21 0 0 1 1.222 1.223 1.26 1.26 0 0 1-1.247 1.247l-7.375.074a1.21 1.21 0 0 1-1.223-1.223 1.26 1.26 0 0 1 1.247-1.247z" transform="rotate(-40 27.987 1.571)"/>
        </g>
    </g>
</svg>
