<svg xmlns="http://www.w3.org/2000/svg" xmlns:xlink="http://www.w3.org/1999/xlink" width="420" height="705" viewBox="0 0 420 705">
    <defs>
        <path id="a" d="M0 0h420v705H0z"/>
        <linearGradient id="c" x1="50%" x2="50%" y1="0%" y2="28.594%">
            <stop offset="0%" stop-color="#EBF6FA"/>
            <stop offset="100%" stop-color="#FFF"/>
        </linearGradient>
        <path id="d" d="M0 0h407v691H0z"/>
        <linearGradient id="f" x1="40.668%" x2="58.266%" y1="53.79%" y2="45.991%">
            <stop offset="28.09%" stop-color="#53AE64"/>
            <stop offset="66.85%" stop-color="#73AA00"/>
        </linearGradient>
        <linearGradient id="g" x1="42.886%" x2="56.12%" y1="54.746%" y2="45.453%">
            <stop offset="28.09%" stop-color="#53AE64"/>
            <stop offset="66.85%" stop-color="#73AA00"/>
        </linearGradient>
        <linearGradient id="h" x1="39.713%" x2="62.158%" y1="45.939%" y2="54.824%">
            <stop offset="28.09%" stop-color="#53AE64"/>
            <stop offset="66.85%" stop-color="#73AA00"/>
        </linearGradient>
        <linearGradient id="i" x1="34.1%" x2="66.823%" y1="59.125%" y2="42.714%">
            <stop offset="28.09%" stop-color="#53AE64"/>
            <stop offset="66.85%" stop-color="#73AA00"/>
        </linearGradient>
        <linearGradient id="j" x1="31.433%" x2="68.735%" y1="59.34%" y2="40.86%">
            <stop offset="28.09%" stop-color="#53AE64"/>
            <stop offset="66.85%" stop-color="#73AA00"/>
        </linearGradient>
        <linearGradient id="k" x1="47.074%" x2="53.376%" y1="53.946%" y2="46.899%">
            <stop offset="28.09%" stop-color="#53AE64"/>
            <stop offset="66.85%" stop-color="#73AA00"/>
        </linearGradient>
        <linearGradient id="l" x1="37.63%" x2="67.091%" y1="112.645%" y2="15.802%">
            <stop offset="0%" stop-color="#561C1D"/>
            <stop offset="100%" stop-color="#003C48"/>
        </linearGradient>
        <linearGradient id="m" x1="49.75%" x2="49.75%" y1=".024%" y2="99.926%">
            <stop offset="0%" stop-color="#351A06"/>
            <stop offset="100%" stop-color="#23393D"/>
        </linearGradient>
        <linearGradient id="n" x1="44.587%" x2="55.47%" y1="5.228%" y2="94.263%">
            <stop offset="0%" stop-color="#561C1D"/>
            <stop offset="100%" stop-color="#003C48"/>
        </linearGradient>
        <linearGradient id="o" x1="42.113%" x2="58.348%" y1="8.502%" y2="91.156%">
            <stop offset="0%" stop-color="#561B00"/>
            <stop offset="100%" stop-color="#002F1B"/>
        </linearGradient>
        <linearGradient id="p" x1="43.566%" x2="56.37%" y1="92.794%" y2="7.572%">
            <stop offset="0%" stop-color="#561C1D"/>
            <stop offset="100%" stop-color="#003C48"/>
        </linearGradient>
        <linearGradient id="q" x1="42.532%" x2="57.563%" y1="78.311%" y2="21.41%">
            <stop offset="0%" stop-color="#351A06"/>
            <stop offset="100%" stop-color="#23393D"/>
        </linearGradient>
        <linearGradient id="r" x1="22.193%" x2="77.468%" y1="67.164%" y2="32.886%">
            <stop offset="0%" stop-color="#561C1D"/>
            <stop offset="100%" stop-color="#003C48"/>
        </linearGradient>
        <linearGradient id="s" x1="21.96%" x2="77.914%" y1="78.039%" y2="26.496%">
            <stop offset="0%" stop-color="#351A06"/>
            <stop offset="100%" stop-color="#23393D"/>
        </linearGradient>
        <linearGradient id="t" x1="10.012%" x2="87.94%" y1="58.381%" y2="43.49%">
            <stop offset="0%" stop-color="#561C1D"/>
            <stop offset="100%" stop-color="#003C48"/>
        </linearGradient>
        <linearGradient id="u" x1="50.646%" x2="49.471%" y1=".34%" y2="100.039%">
            <stop offset="0%" stop-color="#225844"/>
            <stop offset="100%" stop-color="#131853"/>
        </linearGradient>
        <linearGradient id="v" x1="78.022%" x2="16.361%" y1="-2.216%" y2="99.803%">
            <stop offset="0%" stop-color="#225844"/>
            <stop offset="100%" stop-color="#131853"/>
        </linearGradient>
        <linearGradient id="w" x1="48.927%" x2="50.899%" y1=".199%" y2="99.952%">
            <stop offset="0%" stop-color="#225844"/>
            <stop offset="100%" stop-color="#131853"/>
        </linearGradient>
        <linearGradient id="x" x1="-1.36%" x2="99.93%" y1="64.277%" y2="34.252%">
            <stop offset="0%" stop-color="#225844"/>
            <stop offset="100%" stop-color="#131853"/>
        </linearGradient>
        <linearGradient id="y" x1="28.266%" x2="73.236%" y1="101.596%" y2=".09%">
            <stop offset="0%" stop-color="#561C1D"/>
            <stop offset="100%" stop-color="#003C48"/>
        </linearGradient>
        <linearGradient id="z" x1="96.133%" x2="3.518%" y1="73.988%" y2="26.091%">
            <stop offset="28.09%" stop-color="#53AE64"/>
            <stop offset="66.85%" stop-color="#73AA00"/>
        </linearGradient>
        <linearGradient id="A" x1="15.267%" x2="83.637%" y1="75.259%" y2="25.171%">
            <stop offset="28.09%" stop-color="#53AE64"/>
            <stop offset="66.85%" stop-color="#73AA00"/>
        </linearGradient>
        <linearGradient id="B" x1="84.795%" x2="14.269%" y1="97.495%" y2="2.906%">
            <stop offset="28.09%" stop-color="#53AE64"/>
            <stop offset="66.85%" stop-color="#73AA00"/>
        </linearGradient>
        <linearGradient id="C" x1="3.44%" x2="96.747%" y1="96.17%" y2="3.792%">
            <stop offset="28.09%" stop-color="#82C88C"/>
            <stop offset="66.85%" stop-color="#94D05A"/>
        </linearGradient>
        <linearGradient id="D" x1="3.203%" x2="96.698%" y1="84.618%" y2="15.327%">
            <stop offset="28.09%" stop-color="#82C88C"/>
            <stop offset="66.85%" stop-color="#94D05A"/>
        </linearGradient>
        <linearGradient id="E" x1="2.628%" x2="97.336%" y1="86.558%" y2="13.35%">
            <stop offset="28.09%" stop-color="#82C88C"/>
            <stop offset="66.85%" stop-color="#94D05A"/>
        </linearGradient>
        <linearGradient id="F" x1="88.309%" x2="13.05%" y1="13.347%" y2="83.213%">
            <stop offset="0%" stop-color="#FFF"/>
            <stop offset="100%" stop-color="#B0B02A"/>
        </linearGradient>
        <linearGradient id="G" x1="95.065%" x2="5.663%" y1="74.309%" y2="27.279%">
            <stop offset="0%" stop-color="#FFF"/>
            <stop offset="100%" stop-color="#B0B02A"/>
        </linearGradient>
        <linearGradient id="H" x1="41.584%" x2="57.381%" y1="99.066%" y2=".446%">
            <stop offset="0%" stop-color="#FFF"/>
            <stop offset="100%" stop-color="#B0B02A"/>
        </linearGradient>
        <linearGradient id="I" x1=".792%" x2="99.442%" y1="58.101%" y2="42.576%">
            <stop offset="0%" stop-color="#FFF"/>
            <stop offset="100%" stop-color="#B0B02A"/>
        </linearGradient>
        <linearGradient id="J" x1="26.435%" x2="73.649%" y1="4.705%" y2="94.465%">
            <stop offset="0%" stop-color="#FFF"/>
            <stop offset="100%" stop-color="#B0B02A"/>
        </linearGradient>
        <linearGradient id="K" x1="99.771%" x2="-.041%" y1="58.721%" y2="40.684%">
            <stop offset="0%" stop-color="#FFF"/>
            <stop offset="100%" stop-color="#B0B02A"/>
        </linearGradient>
        <linearGradient id="L" x1="57.578%" x2="44.139%" y1="101.353%" y2="2.951%">
            <stop offset="0%" stop-color="#FFF"/>
            <stop offset="100%" stop-color="#B0B02A"/>
        </linearGradient>
        <linearGradient id="M" x1="5.329%" x2="94.863%" y1="71.978%" y2="27.816%">
            <stop offset="0%" stop-color="#FFF"/>
            <stop offset="100%" stop-color="#B0B02A"/>
        </linearGradient>
        <linearGradient id="N" x1="12.764%" x2="87.006%" y1="13.264%" y2="84.715%">
            <stop offset="0%" stop-color="#FFF"/>
            <stop offset="100%" stop-color="#B0B02A"/>
        </linearGradient>
        <linearGradient id="O" x1="71.168%" x2="29.354%" y1="2.545%" y2="94.012%">
            <stop offset="0%" stop-color="#FFF"/>
            <stop offset="100%" stop-color="#B0B02A"/>
        </linearGradient>
        <linearGradient id="P" x1="98.426%" x2="-.394%" y1="58.726%" y2="41.032%">
            <stop offset="0%" stop-color="#FFF"/>
            <stop offset="100%" stop-color="#B0B02A"/>
        </linearGradient>
        <linearGradient id="Q" x1="58.642%" x2="44.631%" y1="100.703%" y2="1.128%">
            <stop offset="0%" stop-color="#FFF"/>
            <stop offset="100%" stop-color="#B0B02A"/>
        </linearGradient>
        <linearGradient id="R" x1="4.934%" x2="94.048%" y1="72.936%" y2="28.309%">
            <stop offset="0%" stop-color="#FFF"/>
            <stop offset="100%" stop-color="#B0B02A"/>
        </linearGradient>
        <linearGradient id="S" x1="13.701%" x2="87.404%" y1="13.353%" y2="85.109%">
            <stop offset="0%" stop-color="#FFF"/>
            <stop offset="100%" stop-color="#B0B02A"/>
        </linearGradient>
        <linearGradient id="T" x1="70.36%" x2="28.689%" y1="4.751%" y2="95.576%">
            <stop offset="0%" stop-color="#FFF"/>
            <stop offset="100%" stop-color="#B0B02A"/>
        </linearGradient>
        <linearGradient id="U" x1="-1.564%" x2="101.33%" y1="57.877%" y2="41.956%">
            <stop offset="28.09%" stop-color="#82C88C"/>
            <stop offset="66.85%" stop-color="#94D05A"/>
        </linearGradient>
        <linearGradient id="V" x1="1.279%" x2="98.72%" y1="54.781%" y2="45.125%">
            <stop offset="28.09%" stop-color="#82C88C"/>
            <stop offset="66.85%" stop-color="#94D05A"/>
        </linearGradient>
        <linearGradient id="W" x1="1.151%" x2="98.935%" y1="54.887%" y2="45.03%">
            <stop offset="28.09%" stop-color="#82C88C"/>
            <stop offset="66.85%" stop-color="#94D05A"/>
        </linearGradient>
        <linearGradient id="X" x1="97.842%" x2="3.389%" y1="33.735%" y2="66.73%">
            <stop offset="0%" stop-color="#FFF"/>
            <stop offset="100%" stop-color="#B0B02A"/>
        </linearGradient>
        <linearGradient id="Y" x1="80.746%" x2="19.211%" y1="90.592%" y2="10.222%">
            <stop offset="0%" stop-color="#FFF"/>
            <stop offset="100%" stop-color="#B0B02A"/>
        </linearGradient>
        <linearGradient id="Z" x1="24.59%" x2="75.389%" y1="94.04%" y2="9.504%">
            <stop offset="0%" stop-color="#FFF"/>
            <stop offset="100%" stop-color="#B0B02A"/>
        </linearGradient>
        <linearGradient id="aa" x1="-.015%" x2="97.553%" y1="38.232%" y2="61.795%">
            <stop offset="0%" stop-color="#FFF"/>
            <stop offset="100%" stop-color="#B0B02A"/>
        </linearGradient>
        <linearGradient id="ab" x1="46.515%" x2="54.763%" y1="1.372%" y2="101.703%">
            <stop offset="0%" stop-color="#FFF"/>
            <stop offset="100%" stop-color="#B0B02A"/>
        </linearGradient>
        <linearGradient id="ac" x1="93.6%" x2="8.804%" y1="78.788%" y2="23.715%">
            <stop offset="0%" stop-color="#FFF"/>
            <stop offset="100%" stop-color="#B0B02A"/>
        </linearGradient>
        <linearGradient id="ad" x1="37.897%" x2="62.16%" y1="99.71%" y2="3.586%">
            <stop offset="0%" stop-color="#FFF"/>
            <stop offset="100%" stop-color="#B0B02A"/>
        </linearGradient>
        <linearGradient id="ae" x1=".127%" x2="100.625%" y1="52.521%" y2="45.874%">
            <stop offset="0%" stop-color="#FFF"/>
            <stop offset="100%" stop-color="#B0B02A"/>
        </linearGradient>
        <linearGradient id="af" x1="30.803%" x2="68.988%" y1="1.453%" y2="94.863%">
            <stop offset="0%" stop-color="#FFF"/>
            <stop offset="100%" stop-color="#B0B02A"/>
        </linearGradient>
        <linearGradient id="ag" x1="90.603%" x2="14.046%" y1="16.002%" y2="82.947%">
            <stop offset="0%" stop-color="#FFF"/>
            <stop offset="100%" stop-color="#B0B02A"/>
        </linearGradient>
        <linearGradient id="ah" x1="90.853%" x2="4.525%" y1="79.424%" y2="21.834%">
            <stop offset="0%" stop-color="#FFF"/>
            <stop offset="100%" stop-color="#B0B02A"/>
        </linearGradient>
        <linearGradient id="ai" x1="37.957%" x2="62.885%" y1="100.25%" y2="3.306%">
            <stop offset="0%" stop-color="#FFF"/>
            <stop offset="100%" stop-color="#B0B02A"/>
        </linearGradient>
        <linearGradient id="aj" x1=".361%" x2="100.787%" y1="54.116%" y2="47.358%">
            <stop offset="0%" stop-color="#FFF"/>
            <stop offset="100%" stop-color="#B0B02A"/>
        </linearGradient>
        <linearGradient id="ak" x1="29.594%" x2="65.993%" y1=".606%" y2="92.892%">
            <stop offset="0%" stop-color="#FFF"/>
            <stop offset="100%" stop-color="#B0B02A"/>
        </linearGradient>
        <linearGradient id="al" x1="90.364%" x2="12.93%" y1="14.503%" y2="81.792%">
            <stop offset="0%" stop-color="#FFF"/>
            <stop offset="100%" stop-color="#B0B02A"/>
        </linearGradient>
        <linearGradient id="am" x1="40.126%" x2="59.891%" y1="54.912%" y2="45.266%">
            <stop offset="28.09%" stop-color="#53AE64"/>
            <stop offset="66.85%" stop-color="#71AF6E"/>
        </linearGradient>
        <linearGradient id="an" x1="44.187%" x2="55.69%" y1="52.458%" y2="47.804%">
            <stop offset="28.09%" stop-color="#53AE64"/>
            <stop offset="66.85%" stop-color="#71AF6E"/>
        </linearGradient>
    </defs>
    <g fill="none" fill-rule="evenodd">
        <mask id="b" fill="#fff">
            <use xlink:href="#a"/>
        </mask>
        <g mask="url(#b)">
            <path fill="url(#c)" d="M410 779c269 0 403.624-4.346 403.871-13.04C814.91 729.493 830 690.885 830 651c0-229.198-185.802-415-415-415S0 421.802 0 651c0 44.645 20.392 86.486 20.097 127.942C20.032 787.981 150 788 410 779z" transform="translate(-410)"/>
            <g>
                <mask id="e" fill="#fff">
                    <use xlink:href="#d"/>
                </mask>
                <g fill-rule="nonzero" mask="url(#e)">
                    <path fill="url(#f)" d="M83.145 260.42C60.633 341.25.988 389 .988 389c-6.73-5.357 26.921-69.414 49.433-150.243 22.512-80.828 21.352-201.72 21.352-201.72 12.764 5.59 33.883 142.322 11.372 223.383z" transform="translate(-40 250)"/>
                    <path fill="url(#g)" d="M39.978 292.1c-14.621 55.438-38.526 95.27-38.526 95.27-1.624-2.33 15.086-48.684 29.707-103.89 14.62-55.205 1.624-137.663 1.624-137.663 3.713 1.63 21.816 91.077 7.195 146.282z" transform="translate(-40 250)"/>
                    <path fill="url(#h)" d="M150.216 242.717c-54.54 88.05-143.89 140.926-143.89 140.926-3.25-5.824 52.914-75.238 107.453-163.287C168.318 132.306 220.536.466 220.536.466c-2.321 46.12-15.782 153.97-70.32 242.251z" transform="translate(-40 250)"/>
                    <path fill="url(#i)" d="M243.498 34.388c-83.328-10.06-150.364 27.37-150.364 27.37 2.328 8.42 74.251 1.403 157.812 11.462 83.562 10.059 194.356 57.312 194.356 57.312-.233-13.802-118.476-86.086-201.804-96.145z" transform="translate(-42 546)"/>
                    <path fill="url(#j)" d="M108.264 64.096C51.47 56.611 5.616 63.395 5.616 63.395c1.397 2.573 50.742 4.678 107.303 12.164 56.794 7.486 127.553 51.23 127.553 51.23 0-3.977-75.414-55.207-132.208-62.693z" transform="translate(-42 546)"/>
                    <path fill="url(#k)" d="M186.006 5.848C83.824 22.925.728 85.618.728 85.618c4.19 5.38 89.846-20.586 192.028-37.429C294.938 31.113 436.69 33.218 436.69 33.218c-43.76-15.44-148.502-44.447-250.684-27.37z" transform="translate(-42 546)"/>
                    <path fill="url(#l)" d="M243.484 456.18C223.434 556.44 49.272 644.343 46.008 638.748c-1.399-2.332 173.695-76.71 193.746-177.204 20.05-100.492-6.062-207.98-4.43-188.161 1.4 13.29 28.444 82.539 8.16 182.799z" transform="translate(-119)"/>
                    <path fill="url(#m)" d="M398.918 118.443c-8.866 36.649-15.865 66.34-33.83 62.164-10.032-2.32-10.732-34.097-2.1-70.747 8.633-36.65 8.866-67.963 33.83-62.164 10.032 2.32 10.965 34.097 2.1 70.747z" transform="translate(-119)"/>
                    <path fill="url(#n)" d="M474.245 324.07c-11.075 20.573-20.029 37.215-9.661 42.532 5.655 3.005 19.321-11.327 30.396-31.667 11.074-20.573 24.033-34.904 9.66-42.532-5.655-3.004-19.321 11.095-30.395 31.668z" transform="translate(-119)"/>
                    <path fill="url(#o)" d="M240.16 225.874c3.445 25.79 5.972 46.469-6.204 48.095-6.892.93-15.162-19.285-18.378-44.843-3.217-25.558-11.028-45.772 6.202-48.095 6.663-.93 14.933 19.285 18.38 44.843z" transform="translate(-119)"/>
                    <path fill="url(#p)" d="M212.375 148.32c4.825 19.51 8.927 36.2 7.238 36.67-1.689.47-4.102-15.75-9.168-35.495-.724-3.29-.724-24.212-8.445-35.495 1.689 2.586 5.55 14.81 10.375 34.32z" transform="translate(-119)"/>
                    <path fill="url(#q)" d="M399.525 26.465c-2.648 14.45-5.056 26.769-6.26 26.532-1.203-.237 1.927-11.845 4.575-26.296 2.648-14.45 4.334-30.085 5.056-26.058.482 1.895-.722 11.371-3.37 25.822z" transform="translate(-119)"/>
                    <path fill="url(#r)" d="M515.23 279.918c-6.447 12.197-12.177 22.752-13.132 22.049-.955-.47 5.252-10.086 11.7-22.284 6.446-12.197 12.654-25.801 12.176-22.048-.477 1.876-4.298 10.086-10.744 22.283z" transform="translate(-119)"/>
                    <path fill="url(#s)" d="M261.071 453.616C198.591 534.539 36.465 616.162 36 609.633c-.232-2.799 159.339-75.094 221.82-156.017 62.48-80.924 112.884-292.91 105.451-274.487-4.645 12.593-39.718 193.797-102.2 274.487z" transform="translate(-119)"/>
                    <path fill="url(#t)" d="M255.505 560.637C167.554 612.45-2.531 646.607.029 641.495c1.163-2.091 164.966-29.509 252.916-81.323 87.951-51.814 225.229-208.419 211.036-195.407-9.772 8.83-120.525 144.057-208.476 195.872z" transform="translate(-119)"/>
                    <path fill="url(#u)" d="M316.925 263.68c-10.517 39.556-4.44 75.622-1.402 76.32 0 0 1.87-33.739 12.387-73.528 10.518-39.556-2.57-77.483-2.57-77.483-2.572-12.332 2.336 35.135-8.415 74.691z" transform="translate(-119)"/>
                    <path fill="url(#v)" d="M325.353 356.174C320.4 374.603 301.065 385.66 298 384.969c0 0 11.082-13.13 16.034-31.79 4.952-18.429 31.597-27.643 31.597-27.643 7.074-3.686-15.327 12.209-20.278 30.638z" transform="translate(-119)"/>
                    <path fill="url(#w)" d="M225.214 416.017c11.887 39.27 7.37 75.054 4.517 75.983 0 0-3.09-33.693-15.216-72.73-12.125-39.037-.475-77.144-.475-77.144 2.14-12.78-.714 34.622 11.174 73.891z" transform="translate(-119)"/>
                    <path fill="url(#x)" d="M421.107 446.405c36.888-12.94 62.802-35.053 61.869-37.405 0 0-28.017 15.762-64.904 28.7-36.888 12.939-60.702 40.934-60.702 40.934-8.872 7.763 26.849-19.526 63.737-32.23z" transform="translate(-119)"/>
                    <path fill="url(#y)" d="M347.053 457.968c17.751-39.108 44.378-65.1 46.947-63.93 0 0-20.087 29.038-37.838 68.145s-50.45 62.524-50.45 62.524c-9.577 8.665 23.356-27.632 41.34-66.74z" transform="translate(-119)"/>
                    <path fill="url(#z)" d="M385 486.538c-9.78-5.845-192.589 36.24-255 112.462" transform="translate(-119)"/>
                    <path fill="url(#A)" d="M129 616c54.118 18.692 115 75 115 75" transform="translate(-119)"/>
                    <path fill="url(#B)" d="M164 591c28.268-49.85 95-99 95-99" transform="translate(-119)"/>
                    <path fill="url(#C)" d="M148 524c-56.675 52.266-82.457 81.968-95 102" transform="translate(-119)"/>
                    <path fill="url(#D)" d="M158 559c-44.696 41.641-76.49 67.408-94 75" transform="translate(-119)"/>
                    <path fill="url(#E)" d="M202 552c-56.701 52.95-100.853 90.037-122 101" transform="translate(-119)"/>
                    <path fill="url(#F)" d="M20.95 5.29c2.76-2.53 7.818-2.99 10.348 0 2.53 2.759 2.07 7.818-.92 10.348-2.99 2.53-7.359 2.53-9.888-.46-2.53-2.99-2.53-7.36.46-9.889z" transform="translate(12 505)"/>
                    <path fill="url(#G)" d="M30.378 15.638c3.45 1.84 5.29 6.439 3.45 9.888-1.84 3.45-6.67 4.37-10.119 2.53-3.45-1.84-4.6-5.98-2.76-9.429 1.84-3.45 5.98-4.829 9.43-2.99z" transform="translate(12 505)"/>
                    <path fill="url(#H)" d="M23.71 28.056c-.69 3.91-4.37 7.13-8.28 6.44-3.91-.69-6.209-4.83-5.749-8.74.69-3.909 4.14-6.439 8.049-5.749 3.91.69 6.44 4.37 5.98 8.05z" transform="translate(12 505)"/>
                    <path fill="url(#I)" d="M9.681 25.756c-3.91.69-8.049-1.84-8.739-5.749-.69-3.91 2.53-7.589 6.44-8.049 3.909-.69 7.358 1.84 8.048 5.75.69 3.679-1.84 7.359-5.749 8.048z" transform="translate(12 505)"/>
                    <path fill="url(#J)" d="M7.381 11.728c-1.84-3.45-.92-8.278 2.53-10.118 3.45-1.84 8.049 0 9.889 3.45 1.84 3.449.46 7.588-2.76 9.428-3.45 1.84-7.819.46-9.659-2.76z" transform="translate(12 505)"/>
                    <path fill="url(#K)" d="M27.871 12.188c3.91.69 6.899 4.6 6.21 8.28-.69 3.909-5.06 6.208-8.74 5.518-3.68-.69-6.209-4.369-5.519-8.278.69-3.68 4.14-6.21 8.049-5.52z" transform="translate(71 527)"/>
                    <path fill="url(#L)" d="M25.111 25.986c.46 3.91-2.07 8.05-5.749 8.51-3.91.46-7.589-2.76-8.049-6.67-.46-3.91 2.07-7.359 5.98-8.049 3.679-.23 7.358 2.53 7.818 6.21z" transform="translate(71 527)"/>
                    <path fill="url(#M)" d="M11.083 28.056c-3.45 1.84-8.279.69-10.118-2.76-1.84-3.449.23-8.048 3.68-9.658 3.449-1.84 7.588-.46 9.428 2.99 1.84 3.449.46 7.588-2.99 9.428z" transform="translate(71 527)"/>
                    <path fill="url(#N)" d="M4.874 15.408c-2.76-2.76-3.45-7.59-.69-10.349 2.76-2.76 7.59-2.3 10.349.23 2.76 2.76 2.76 7.13.23 9.889-2.76 2.76-7.13 2.76-9.889.23z" transform="translate(71 527)"/>
                    <path fill="url(#O)" d="M14.763 5.29c1.61-3.45 6.209-5.52 9.658-3.91 3.45 1.61 4.6 6.439 2.99 9.888-1.61 3.45-5.75 5.06-9.429 3.45-3.45-1.84-4.829-5.98-3.22-9.429z" transform="translate(71 527)"/>
                    <g>
                        <path fill="url(#P)" d="M19.655 9.208c2.673.448 4.9 3.135 4.454 5.821-.445 2.687-3.563 4.478-6.235 3.807-2.673-.448-4.454-3.135-4.01-5.822.446-2.686 2.896-4.477 5.791-3.806z" transform="translate(27 545)"/>
                        <path fill="url(#Q)" d="M17.65 19.06c.446 2.686-1.335 5.82-4.23 6.044-2.673.448-5.345-2.015-5.79-4.701-.446-2.687 1.558-5.374 4.23-5.597 2.896-.448 5.345 1.567 5.79 4.253z" transform="translate(27 545)"/>
                        <path fill="url(#R)" d="M7.63 20.403c-2.45 1.343-5.79.448-7.127-2.015-1.336-2.463.223-5.597 2.672-6.94 2.45-1.344 5.345-.225 6.681 2.238 1.337 2.463.223 5.373-2.227 6.717z" transform="translate(27 545)"/>
                        <path fill="url(#S)" d="M3.175 11.447C1.171 9.432.725 6.074 2.73 4.06c2.004-2.015 5.345-1.791 7.349.224 2.004 2.015 2.004 5.15 0 7.164-1.782 1.791-4.9 1.791-6.904 0z" transform="translate(27 545)"/>
                        <path fill="url(#T)" d="M10.302 4.059c1.113-2.463 4.454-4.03 6.903-2.91 2.45 1.119 3.341 4.701 2.227 7.164-1.113 2.463-4.23 3.582-6.68 2.463-2.673-1.12-3.786-4.03-2.45-6.717z" transform="translate(27 545)"/>
                    </g>
                    <path fill="url(#U)" d="M183 606c-51.9 18.182-77.269 30.455-91 40" transform="translate(-119)"/>
                    <path fill="url(#V)" d="M180 631c-41.268 14.72-69.321 22.77-83 23" transform="translate(-119)"/>
                    <path fill="url(#W)" d="M211 639c-51.794 18.102-91.045 29.642-108 31" transform="translate(-119)"/>
                    <g>
                        <path fill="url(#X)" d="M17.018 5.786c2.4-.886 5.673.221 6.546 2.657.872 2.436-.873 5.314-3.273 6.2-2.4.886-5.236-.443-6.11-2.879-.872-2.214.437-5.093 2.837-5.978z" transform="translate(54 592)"/>
                        <path fill="url(#Y)" d="M20.29 15.086c1.528 1.993 1.528 5.535-.435 7.085-1.964 1.55-5.237.886-6.982-1.107-1.528-1.993-1.31-5.093.654-6.643 2.182-1.771 5.018-1.55 6.764.665z" transform="translate(54 592)"/>
                        <path fill="url(#Z)" d="M12.655 21.064c-1.31 2.215-4.582 3.322-6.764 1.772-2.182-1.329-2.618-4.872-1.091-7.086 1.527-2.214 4.364-2.879 6.545-1.55 2.182 1.55 2.837 4.65 1.31 6.864z" transform="translate(54 592)"/>
                        <path fill="url(#aa)" d="M4.8 15.75C2.182 15.086.218 12.429.873 9.771c.654-2.657 3.709-3.985 6.109-3.321 2.618.664 4.145 3.321 3.49 5.757C9.819 14.643 7.2 16.414 4.8 15.75z" transform="translate(54 592)"/>
                        <path fill="url(#ab)" d="M6.982 6.229C6.764 3.57 8.727.693 11.127.47c2.4-.221 5.018 2.215 5.237 4.872C16.582 8 14.618 10.214 12 10.436c-2.618.221-4.8-1.55-5.018-4.207z" transform="translate(54 592)"/>
                    </g>
                    <g>
                        <path fill="url(#ac)" d="M21.285 11.556c2.262 1.583 3.168 4.751 1.81 7.014-1.584 2.262-4.978 2.489-7.24 1.131-2.263-1.584-2.942-4.525-1.358-6.788 1.584-2.262 4.525-2.941 6.788-1.357z" transform="translate(85 624)"/>
                        <path fill="url(#ad)" d="M15.628 19.701c-.679 2.715-3.394 4.752-6.109 3.846-2.715-.678-4.073-3.846-3.394-6.561.679-2.715 3.394-4.073 6.11-3.394 2.714.679 4.072 3.62 3.393 6.109z" transform="translate(85 624)"/>
                        <path fill="url(#ae)" d="M6.125 17.212c-2.715.226-5.43-1.81-5.656-4.525C.242 9.972 2.73 7.709 5.446 7.483c2.716-.226 4.978 1.81 5.205 4.525.226 2.489-1.81 4.978-4.526 5.204z" transform="translate(85 624)"/>
                        <path fill="url(#af)" d="M5.446 7.257c-1.13-2.49 0-5.883 2.49-6.788 2.488-1.132 5.656.678 6.561 3.167 1.131 2.49-.226 5.43-2.715 6.336-2.263.905-5.204-.227-6.336-2.715z" transform="translate(85 624)"/>
                        <path fill="url(#ag)" d="M14.723 3.41c2.037-1.81 5.43-2.036 7.24 0 1.81 2.036 1.358 5.43-.678 7.24-2.037 1.81-5.204 1.584-7.014-.452-1.81-1.81-1.584-4.978.452-6.788z" transform="translate(85 624)"/>
                    </g>
                    <g>
                        <path fill="url(#ah)" d="M16.437 9.038c1.618 1.156 2.543 3.699 1.387 5.318-1.156 1.618-3.7 1.85-5.318.924-1.619-.924-2.081-3.468-.925-5.086.694-1.85 3.006-2.313 4.856-1.156z" transform="translate(51 621)"/>
                        <path fill="url(#ai)" d="M12.043 15.05c-.462 1.849-2.543 3.467-4.624 3.005-2.08-.462-3.006-2.775-2.543-4.856.462-2.08 2.543-3.237 4.393-2.543 1.85.694 3.468 2.543 2.774 4.393z" transform="translate(51 621)"/>
                        <path fill="url(#aj)" d="M4.876 13.2C2.795 13.43.714 11.811.714 9.73c0-2.08 1.85-3.7 3.7-3.93 2.08-.232 3.699 1.387 3.93 3.468.231 2.08-1.387 3.7-3.468 3.93z" transform="translate(51 621)"/>
                        <path fill="url(#ak)" d="M4.644 5.8c-.693-1.85 0-4.393 1.85-5.086 1.85-.694 4.162.462 4.856 2.312.693 1.85 0 3.93-1.85 4.855-1.85.925-4.162-.23-4.856-2.08z" transform="translate(51 621)"/>
                        <path fill="url(#al)" d="M11.35 3.026c1.618-1.387 4.162-1.387 5.549 0 1.387 1.618.925 4.162-.694 5.318-1.618 1.387-3.93 1.156-5.086-.231-1.157-1.388-1.157-3.931.23-5.087z" transform="translate(51 621)"/>
                    </g>
                    <path fill="url(#am)" d="M216 591.307C272.204 581.967 352 604 352 604" transform="translate(-119)"/>
                    <path fill="url(#an)" d="M259 570c55.17-15.306 137-.74 137-.74" transform="translate(-119)"/>
                </g>
            </g>
        </g>
    </g>
</svg>
