<svg xmlns="http://www.w3.org/2000/svg" xmlns:xlink="http://www.w3.org/1999/xlink" width="78" height="74" viewBox="0 0 78 74">
    <defs>
        <rect id="a" width="368.182" height="385" x=".928" rx="12"/>
        <filter id="b" width="111.1%" height="110.6%" x="-5.6%" y="-4.8%" filterUnits="objectBoundingBox">
            <feOffset dy="2" in="SourceAlpha" result="shadowOffsetOuter1"/>
            <feGaussianBlur in="shadowOffsetOuter1" result="shadowBlurOuter1" stdDeviation="6.5"/>
            <feColorMatrix in="shadowBlurOuter1" values="0 0 0 0 0.821274909 0 0 0 0 0.821274909 0 0 0 0 0.821274909 0 0 0 0.5 0"/>
        </filter>
        <linearGradient id="c" x1="18.509%" x2="45.986%" y1="39.698%" y2="50.561%">
            <stop offset="0%" stop-color="#FFF6DC"/>
            <stop offset="100%" stop-color="#FFEFD3"/>
        </linearGradient>
        <linearGradient id="e" x1="15.539%" x2="57.414%" y1="43.819%" y2="48.418%">
            <stop offset="0%" stop-color="#FFE0A7"/>
            <stop offset="100%" stop-color="#FFFDF8"/>
        </linearGradient>
        <path id="f" d="M0 .827h20.258v42.198H0z"/>
        <path id="h" d="M.732.575h52.745v31.528H.732z"/>
        <path id="j" d="M.426.63h69.638v30.678H.427z"/>
    </defs>
    <g fill="none" fill-rule="evenodd">
        <g transform="translate(-45 -25)">
            <mask id="d" fill="#fff">
                <use xlink:href="#a"/>
            </mask>
            <use fill="#000" filter="url(#b)" xlink:href="#a"/>
            <use fill="#FFF" xlink:href="#a"/>
            <path fill="url(#c)" d="M-119 397.358c52.333-136.572 147.924-187.905 286.773-154 138.848 33.905 239.09-9.03 300.727-128.809l32 222.172-281.213 227.934-96.847-9.836-154.244-157.662-87.196.201z" mask="url(#d)" opacity=".584"/>
            <path fill="url(#e)" d="M-26.773 394.672C9.67 306.07 78.03 268.578 178.308 282.2c100.278 13.622 168.735-7.455 205.37-63.23L500.5 324.98 286.859 533.73l-86.826-1.426-159.58-120.128-67.226-17.504z" mask="url(#d)" opacity=".214"/>
        </g>
        <path fill="#FFF0B3" d="M12.317 71.179c2.206 0 4.344-.85 5.861-2.29l5.446-5.167c3.241-3.075 8.55-3.075 11.791 0l5.446 5.167c1.586 1.505 3.655 2.29 5.861 2.29v1.962H12.317v-1.962z"/>
        <path fill="#F2B630" d="M48.102 73.141H39.07c-1.517 0-2.965-.59-4.068-1.57l-3.93-3.729c-.207-.196-.483-.391-.76-.457-1.033-.393-1.584-1.505-1.171-2.55.414-1.048 1.586-1.506 2.689-1.114.828.328 1.517.72 2.207 1.374l3.93 3.728c.275.262.689.459 1.172.459h9.032c1.172 0 2.068.85 2.068 1.963 0 1.111-1.034 1.896-2.137 1.896"/>
        <g transform="translate(-.072 7.68)">
            <mask id="g" fill="#fff">
                <use xlink:href="#f"/>
            </mask>
            <path fill="#568C4B" d="M4.185 43.025h-.207a2.075 2.075 0 0 1-1.724-1.308C-3.606 26.54 2.186 10.58 17.009 1.16c.966-.588 2.207-.392 2.896.524.62.915.414 2.093-.551 2.747C7.219 12.151 1.91 24.121 4.874 36.418c1.379-1.896 3.24-3.27 5.447-4.12 1.035-.393 2.276.13 2.689 1.112.414.98-.138 2.158-1.172 2.551-1.517.588-2.827 1.57-3.654 2.877l-2.206 3.337c-.483.523-1.104.85-1.793.85" mask="url(#g)"/>
        </g>
        <path fill="#568C4B" d="M21.557 44.687h-.276c-.758-.066-1.448-.59-1.655-1.309-3.033-7.915-4.205-15.698-3.447-22.501.138-1.047 1.172-1.832 2.275-1.767 1.104.131 1.93 1.112 1.862 2.16-.621 5.166.069 10.988 1.93 17.072l.414-.59c2.827-3.923 7.998-5.69 12.825-4.447l.896.262-7.24-18.904c-.413-1.047.138-2.159 1.24-2.486 1.105-.393 2.277.13 2.62 1.177 0 0 8.275 21.652 8.62 22.437.069.261.138.523.138.784a1.994 1.994 0 0 1-1.724 1.832c-.552.066-.965 0-1.241-.13l-4.413-1.178c-3.102-.85-6.481.327-8.273 2.878l-2.827 3.86a2.196 2.196 0 0 1-1.724.85"/>
        <g transform="translate(23.928 .09)">
            <mask id="i" fill="#fff">
                <use xlink:href="#h"/>
            </mask>
            <path fill="#568C4B" d="M53.339 23.403C49.754 14.05 42.583 6.92 33.137 3.453 24.657.313 14.866.247 5.213 3.125L4.73 1.883C4.317.836 3.145.313 2.11.705 1.007 1.098.456 2.21.87 3.191l1.172 3.075c.207.457.55.915 1.103 1.112.482.196 1.034.261 1.586.065 9.308-3.206 18.822-3.337 26.958-.327 7.033 2.616 12.549 7.326 15.996 13.802-4.826-1.309-9.997.458-12.824 4.382l-.483.654c-2.896-6.41-6.757-11.84-11.17-15.894-.827-.72-2.137-.72-2.895.065-.76.785-.76 2.028.069 2.747 3.999 3.598 7.377 8.504 10.066 14.26l-.758-.197c-2.413-.653-4.895-.522-7.24.328-1.103.393-1.586 1.504-1.241 2.55.414 1.047 1.586 1.506 2.689 1.178a8.165 8.165 0 0 1 4.689-.196l4.757 1.243c.207.065.345.065.552.065.689 0 1.31-.327 1.723-.85l2.689-3.663c1.93-2.617 5.309-3.728 8.55-2.813l3.93 1.177c.758.197 1.586 0 2.137-.523.552-.588.69-1.374.414-2.028" mask="url(#i)"/>
        </g>
        <g transform="translate(2.928 41.833)">
            <mask id="k" fill="#fff">
                <use xlink:href="#j"/>
            </mask>
            <path fill="#568C4B" d="M67.996 27.383h-16.41l-9.79-25.446C41.381.891 40.208.367 39.175.76c-1.104.393-1.656 1.505-1.242 2.486l9.24 24.137h-3.31c-1.655 0-3.24-.59-4.412-1.767l-5.447-5.166c-4.069-3.86-10.619-3.86-14.687 0l-5.447 5.166a6.438 6.438 0 0 1-4.412 1.767H2.495c-1.173 0-2.069.85-2.069 1.962 0 1.113.897 1.963 2.068 1.963H9.39c2.759 0 5.379-1.047 7.378-2.879l5.448-5.167c2.413-2.29 6.412-2.29 8.825 0l5.447 5.167c1.93 1.832 4.55 2.879 7.377 2.879h24.132c1.172 0 2.068-.85 2.068-1.963 0-1.112-.896-1.962-2.068-1.962" mask="url(#k)"/>
        </g>
    </g>
</svg>
