<svg xmlns="http://www.w3.org/2000/svg" xmlns:xlink="http://www.w3.org/1999/xlink" width="109" height="71" viewBox="0 0 109 71">
    <defs>
        <rect id="a" width="368.182" height="385" x=".428" rx="12"/>
        <filter id="b" width="111.1%" height="110.6%" x="-5.6%" y="-4.8%" filterUnits="objectBoundingBox">
            <feOffset dy="2" in="SourceAlpha" result="shadowOffsetOuter1"/>
            <feGaussianBlur in="shadowOffsetOuter1" result="shadowBlurOuter1" stdDeviation="6.5"/>
            <feColorMatrix in="shadowBlurOuter1" values="0 0 0 0 0.821274909 0 0 0 0 0.821274909 0 0 0 0 0.821274909 0 0 0 0.5 0"/>
        </filter>
        <linearGradient id="c" x1="18.509%" x2="45.986%" y1="39.698%" y2="50.561%">
            <stop offset="0%" stop-color="#FFF6DC"/>
            <stop offset="100%" stop-color="#FFEFD3"/>
        </linearGradient>
        <linearGradient id="e" x1="15.539%" x2="57.414%" y1="43.819%" y2="48.418%">
            <stop offset="0%" stop-color="#FFE0A7"/>
            <stop offset="100%" stop-color="#FFFDF8"/>
        </linearGradient>
        <path id="f" d="M0 .41h107.7v70.643H0z"/>
    </defs>
    <g fill="none" fill-rule="evenodd">
        <g transform="translate(-44.428 -27)">
            <mask id="d" fill="#fff">
                <use xlink:href="#a"/>
            </mask>
            <use fill="#000" filter="url(#b)" xlink:href="#a"/>
            <use fill="#FFF" xlink:href="#a"/>
            <path fill="url(#c)" d="M-125 442.512c52.333-136.572 147.924-187.905 286.773-154 138.848 33.906 239.09-9.03 300.727-128.808l32 222.172L213.287 609.81l-96.847-9.837-154.244-157.661-87.196.2z" mask="url(#d)" opacity=".584" transform="matrix(-1 0 0 1 369.5 0)"/>
            <path fill="url(#e)" d="M137 426.666c36.443-88.603 104.803-126.094 205.081-112.473 100.278 13.622 168.735-7.455 205.37-63.23l116.822 106.011-213.642 208.75-86.826-1.426-159.58-120.128L137 426.666z" mask="url(#d)" opacity=".214"/>
        </g>
        <g transform="translate(.572 -.383)">
            <mask id="g" fill="#fff">
                <use xlink:href="#f"/>
            </mask>
            <path fill="#568C4B" d="M100.487 37.912l-26.942.172L54.77 16.801a1.437 1.437 0 0 0-1.085-.478 1.435 1.435 0 0 0-1.08.492L34.138 38.337l-26.943.174-4.172.026L6.78 13.29l24.405-.156.038 5.11c.004.736.637 1.329 1.414 1.323l6.086-.038c.777-.005 1.402-.607 1.396-1.342l-.036-5.11 60.463-.388 4.114 25.195-4.172.027zm-1.192 29.886l-25.105.161-.18-25.193 1.276 1.447c.279.317.682.48 1.087.477.315-.002.63-.104.891-.31a1.286 1.286 0 0 0 .176-1.878l-1.557-1.765 23.219-.15.193 27.211zM53.71 19.75l17.467 19.805.202 28.422-34.65.221-.204-28.42L53.71 19.75zM8.618 41.167l23.22-.149-1.532 1.786c-.491.571-.4 1.41.201 1.875.602.466 1.488.38 1.977-.192l1.255-1.463.18 25.193-25.107.16-.194-27.21zM37.24 8.652l.057 8.22-3.277.022-.058-8.22 3.278-.022zm-5.425-5.519l7.493-.048.018 2.666-7.492.05-.019-2.668zm75.868 35.87l-4.549-27.857c-.106-.653-.701-1.134-1.397-1.129l-61.675.395-.014-1.999.702-.004c.775-.006 1.4-.607 1.396-1.342l-.04-5.333C42.105 1 41.47.406 40.695.41L30.392.477c-.776.004-1.401.605-1.395 1.342l.037 5.331c.006.737.64 1.33 1.416 1.325l.7-.005.015 2-25.619.163c-.695.005-1.283.492-1.38 1.147L.013 39.694c-.058.384.065.772.334 1.064.27.291.658.458 1.067.455l4.393-.028.203 28.544c.006.736.64 1.33 1.416 1.324l93.292-.599c.776-.004 1.4-.605 1.395-1.342l-.203-28.544 4.395-.027a1.438 1.438 0 0 0 1.06-.469c.265-.295.381-.685.318-1.068z" mask="url(#g)"/>
        </g>
        <path fill="#568C4B" d="M22.958 56.54l-.011-1.578 3.871-.027.012 1.58-3.872.026zm-6.615-1.534l3.871-.026.011 1.579-3.871.026-.011-1.579zm3.842-4.312l.01 1.579-3.87.026-.012-1.58 3.872-.025zm6.615 1.534l-3.871.027-.012-1.579 3.872-.026.011 1.578zm1.338-4.295l-13.209.089a1.36 1.36 0 0 0-1.357 1.362l.058 8.573a1.362 1.362 0 0 0 1.375 1.344l13.21-.088a1.362 1.362 0 0 0 1.357-1.363l-.059-8.573a1.36 1.36 0 0 0-1.375-1.344zM86.186 49.747l.011 1.579-3.871.026-.011-1.579 3.871-.026zm6.616 1.534l-3.872.026-.011-1.578 3.871-.027.012 1.58zm-3.843 4.312l-.01-1.579 3.87-.026.012 1.58-3.872.025zm-6.615-1.534l3.872-.027.01 1.58-3.872.026-.01-1.58zm-1.338 4.295l13.209-.089a1.36 1.36 0 0 0 1.357-1.362l-.057-8.573a1.362 1.362 0 0 0-1.376-1.344l-13.21.089a1.362 1.362 0 0 0-1.357 1.362l.059 8.573c.006.746.62 1.348 1.375 1.344zM44.671 49.74l.011 1.583-2.329.015-.01-1.582 2.328-.015zm5.1 1.55l-2.328.015-.01-1.582 2.327-.015.011 1.582zm-2.298 4.309l-.011-1.582 2.328-.015.011 1.582-2.328.015zm-5.1-1.549l2.328-.015.011 1.582-2.33.015-.01-1.582zm-1.352 4.304l10.18-.067a1.37 1.37 0 0 0 1.371-1.366l-.06-8.588a1.37 1.37 0 0 0-1.39-1.347l-10.179.068a1.368 1.368 0 0 0-1.37 1.365l.059 8.588c.005.75.626 1.353 1.39 1.347zM61.672 49.74l.01 1.583-2.329.015-.01-1.582 2.329-.015zm5.1 1.55l-2.328.015-.011-1.582 2.328-.015.012 1.582zm-2.298 4.309l-.011-1.582 2.328-.015.011 1.582-2.328.015zm-5.1-1.549l2.327-.015.012 1.582-2.33.015-.01-1.582zm-2.802-5.631l.06 8.588c.004.75.627 1.353 1.39 1.347l10.179-.067a1.369 1.369 0 0 0 1.371-1.366l-.058-8.588a1.37 1.37 0 0 0-1.39-1.347l-10.18.068a1.367 1.367 0 0 0-1.372 1.365zM22.843 26.275l-3.375.022.859-6.923 2.47-.017.046 6.918zm1.294-9.605l-5.024.033a1.353 1.353 0 0 0-1.34 1.178l-1.19 9.603c-.048.383.073.766.334 1.054.259.287.632.45 1.024.448l6.28-.042a1.352 1.352 0 0 0 1.351-1.349L25.505 18a1.348 1.348 0 0 0-1.368-1.33zM86.328 26.296l-.047-6.922 2.451-.016.947 6.916-3.351.022zm4.92-8.467a1.346 1.346 0 0 0-1.347-1.16l-4.988.034a1.347 1.347 0 0 0-1.34 1.349l.064 9.603a1.347 1.347 0 0 0 1.36 1.33l6.235-.042c.387-.003.755-.17 1.01-.461.255-.292.37-.677.318-1.06l-1.313-9.593zM54.557 31.57c1.254-.009 2.28.95 2.288 2.138.008 1.186-1.004 2.16-2.258 2.168-1.253.008-2.28-.952-2.288-2.139-.008-1.188 1.004-2.16 2.258-2.168m.049 6.89c2.757-.017 4.984-2.157 4.966-4.768-.018-2.613-2.277-4.722-5.033-4.705-2.758.017-4.985 2.157-4.967 4.768.018 2.612 2.277 4.722 5.034 4.705"/>
    </g>
</svg>
