<svg xmlns="http://www.w3.org/2000/svg" xmlns:xlink="http://www.w3.org/1999/xlink" width="369" height="119" viewBox="0 0 369 119">
    <defs>
        <rect id="a" width="368.182" height="385" x=".428" rx="12"/>
        <filter id="b" width="111.1%" height="110.6%" x="-5.6%" y="-4.8%" filterUnits="objectBoundingBox">
            <feOffset dy="2" in="SourceAlpha" result="shadowOffsetOuter1"/>
            <feGaussianBlur in="shadowOffsetOuter1" result="shadowBlurOuter1" stdDeviation="6.5"/>
            <feColorMatrix in="shadowBlurOuter1" values="0 0 0 0 0.821274909 0 0 0 0 0.821274909 0 0 0 0 0.821274909 0 0 0 0.5 0"/>
        </filter>
        <linearGradient id="c" x1="18.509%" x2="45.986%" y1="39.698%" y2="50.561%">
            <stop offset="0%" stop-color="#FFF6DC"/>
            <stop offset="100%" stop-color="#FFEFD3"/>
        </linearGradient>
        <linearGradient id="e" x1="15.539%" x2="57.414%" y1="43.819%" y2="48.418%">
            <stop offset="0%" stop-color="#FFE0A7"/>
            <stop offset="100%" stop-color="#FFFDF8"/>
        </linearGradient>
    </defs>
    <g fill="none" fill-rule="evenodd" transform="translate(0 -266)">
        <mask id="d" fill="#fff">
            <use xlink:href="#a"/>
        </mask>
        <use fill="#000" filter="url(#b)" xlink:href="#a"/>
        <use fill="#FFF" xlink:href="#a"/>
        <path fill="url(#c)" d="M-125 442.512c52.333-136.572 147.924-187.905 286.773-154 138.848 33.906 239.09-9.03 300.727-128.808l32 222.172L213.287 609.81l-96.847-9.837-154.244-157.661-87.196.2z" mask="url(#d)" opacity=".584" transform="matrix(-1 0 0 1 369.5 0)"/>
        <path fill="url(#e)" d="M137 426.666c36.443-88.603 104.803-126.094 205.081-112.473 100.278 13.622 168.735-7.455 205.37-63.23l116.822 106.011-213.642 208.75-86.826-1.426-159.58-120.128L137 426.666z" mask="url(#d)" opacity=".214"/>
    </g>
</svg>
