<svg xmlns="http://www.w3.org/2000/svg" xmlns:xlink="http://www.w3.org/1999/xlink" width="369" height="149" viewBox="0 0 369 149">
    <defs>
        <rect id="a" width="368.182" height="385" x=".481" rx="12"/>
        <filter id="b" width="111.1%" height="110.6%" x="-5.6%" y="-4.8%" filterUnits="objectBoundingBox">
            <feOffset dy="2" in="SourceAlpha" result="shadowOffsetOuter1"/>
            <feGaussianBlur in="shadowOffsetOuter1" result="shadowBlurOuter1" stdDeviation="6.5"/>
            <feColorMatrix in="shadowBlurOuter1" values="0 0 0 0 0.821274909 0 0 0 0 0.821274909 0 0 0 0 0.821274909 0 0 0 0.5 0"/>
        </filter>
        <linearGradient id="c" x1="18.509%" x2="45.986%" y1="39.698%" y2="50.561%">
            <stop offset="0%" stop-color="#FFF6DC"/>
            <stop offset="100%" stop-color="#FFEFD3"/>
        </linearGradient>
        <linearGradient id="e" x1="15.539%" x2="57.414%" y1="43.819%" y2="48.418%">
            <stop offset="0%" stop-color="#FFE0A7"/>
            <stop offset="100%" stop-color="#FFFDF8"/>
        </linearGradient>
    </defs>
    <g fill="none" fill-rule="evenodd" transform="translate(0 -236)">
        <mask id="d" fill="#fff">
            <use xlink:href="#a"/>
        </mask>
        <use fill="#000" filter="url(#b)" xlink:href="#a"/>
        <use fill="#FFF" xlink:href="#a"/>
        <path fill="url(#c)" d="M-119.928 397.358c52.333-136.572 147.924-187.905 286.773-154 138.848 33.905 239.09-9.03 300.727-128.809l32 222.172L218.36 564.655l-96.848-9.836-154.244-157.662-87.196.201z" mask="url(#d)" opacity=".584"/>
        <path fill="url(#e)" d="M-27.7 394.672C8.741 306.07 77.101 268.578 177.38 282.2c100.279 13.622 168.735-7.455 205.371-63.23L499.572 324.98 285.931 533.73l-86.826-1.426-159.58-120.128-67.226-17.504z" mask="url(#d)" opacity=".214"/>
    </g>
</svg>
